<svg width="16" height="16" viewBox="0 0 16 16" fill="none" xmlns="http://www.w3.org/2000/svg">
<g id="Huge-icon/interface/bulk/add-circle">
<path id="Vector 280" opacity="0.4" d="M14.6668 7.9987C14.6668 11.6806 11.6821 14.6654 8.00016 14.6654C4.31826 14.6654 1.3335 11.6806 1.3335 7.9987C1.3335 4.3168 4.31826 1.33203 8.00016 1.33203C11.6821 1.33203 14.6668 4.3168 14.6668 7.9987Z" fill="#252525"/>
<path id="Union" fill-rule="evenodd" clip-rule="evenodd" d="M8.50016 5.33203C8.50016 5.05589 8.2763 4.83203 8.00016 4.83203C7.72402 4.83203 7.50016 5.05589 7.50016 5.33203V7.4987H5.3335C5.05735 7.4987 4.8335 7.72256 4.8335 7.9987C4.8335 8.27484 5.05735 8.4987 5.3335 8.4987H7.50016V10.6654C7.50016 10.9415 7.72402 11.1654 8.00016 11.1654C8.2763 11.1654 8.50016 10.9415 8.50016 10.6654V8.4987H10.6668C10.943 8.4987 11.1668 8.27484 11.1668 7.9987C11.1668 7.72256 10.943 7.4987 10.6668 7.4987H8.50016V5.33203Z" fill="#252525"/>
</g>
</svg>
