<svg width="24" height="25" viewBox="0 0 24 25" fill="none" xmlns="http://www.w3.org/2000/svg">
<g id="Huge-icon/editor/bulk/align-right">
<path id="Vector 2691 (Stroke)" fill-rule="evenodd" clip-rule="evenodd" d="M11.25 6.40039C11.25 5.98618 11.5858 5.65039 12 5.65039H18C18.4142 5.65039 18.75 5.98618 18.75 6.40039C18.75 6.8146 18.4142 7.15039 18 7.15039H12C11.5858 7.15039 11.25 6.8146 11.25 6.40039Z" fill="#252525"/>
<path id="Vector 2692 (Stroke)" opacity="0.4" fill-rule="evenodd" clip-rule="evenodd" d="M5.25 10.4004C5.25 9.98618 5.58579 9.65039 6 9.65039H18C18.4142 9.65039 18.75 9.98618 18.75 10.4004C18.75 10.8146 18.4142 11.1504 18 11.1504H6C5.58579 11.1504 5.25 10.8146 5.25 10.4004Z" fill="#252525"/>
<path id="Vector 2693 (Stroke)" fill-rule="evenodd" clip-rule="evenodd" d="M11.25 14.4004C11.25 13.9862 11.5858 13.6504 12 13.6504H18C18.4142 13.6504 18.75 13.9862 18.75 14.4004C18.75 14.8146 18.4142 15.1504 18 15.1504H12C11.5858 15.1504 11.25 14.8146 11.25 14.4004Z" fill="#252525"/>
<path id="Vector 2694 (Stroke)" opacity="0.4" fill-rule="evenodd" clip-rule="evenodd" d="M5.25 18.4004C5.25 17.9862 5.58579 17.6504 6 17.6504H18C18.4142 17.6504 18.75 17.9862 18.75 18.4004C18.75 18.8146 18.4142 19.1504 18 19.1504H6C5.58579 19.1504 5.25 18.8146 5.25 18.4004Z" fill="#252525"/>
</g>
</svg>
