<svg width="20" height="24" viewBox="0 0 20 24" fill="none" xmlns="http://www.w3.org/2000/svg">
<g id="Frame" clip-path="url(#clip0_977_3981)">
<g id="Group 1">
<path id="Vector" d="M12.5876 3.52572C13.3464 2.57662 13.8613 1.30225 13.7255 0C12.6148 0.0552331 11.2593 0.732824 10.4745 1.68267C9.76984 2.49607 9.14618 3.82379 9.30877 5.07145C10.5557 5.17961 11.8014 4.44819 12.5876 3.52572Z" fill="#252525"/>
<path id="Vector_2" d="M13.7113 5.31503C11.9005 5.20716 10.3609 6.34275 9.49612 6.34275C8.63089 6.34275 7.30666 5.36938 5.87439 5.39562C4.01021 5.423 2.28047 6.47702 1.33448 8.15341C-0.611268 11.507 0.820996 16.4816 2.71313 19.2129C3.63199 20.5642 4.73938 22.052 6.19853 21.9986C7.57719 21.9445 8.11756 21.1059 9.79337 21.1059C11.468 21.1059 11.9547 21.9986 13.4141 21.9715C14.9275 21.9445 15.8737 20.6196 16.7925 19.267C17.8466 17.7266 18.2782 16.2393 18.3053 16.1576C18.2782 16.1306 15.387 15.0214 15.3602 11.6957C15.3329 8.91103 17.6301 7.58648 17.7382 7.50434C16.4409 5.58572 14.414 5.36938 13.7113 5.31503Z" fill="#252525"/>
</g>
</g>
<defs>
<clipPath id="clip0_977_3981">
<rect width="19.1869" height="23.5833" fill="white" transform="translate(0.406555)"/>
</clipPath>
</defs>
</svg>
