<svg width="25" height="24" viewBox="0 0 25 24" fill="none" xmlns="http://www.w3.org/2000/svg">
<g id="Huge-icon/arrows/bulk/arrow-transfer">
<g id="arrow transfer">
<path id="Ellipse 1171" opacity="0.4" d="M22.5 12C22.5 17.5228 18.0228 22 12.5 22C6.97715 22 2.5 17.5228 2.5 12C2.5 6.47715 6.97715 2 12.5 2C18.0228 2 22.5 6.47715 22.5 12Z" fill="#CDCDDF"/>
<path id="Vector 200 (Stroke)" fill-rule="evenodd" clip-rule="evenodd" d="M17.1929 10.287C17.0768 10.5673 16.8033 10.75 16.5 10.75L8.49998 10.75C8.08576 10.75 7.74998 10.4142 7.74998 10C7.74998 9.58579 8.08576 9.25 8.49998 9.25L14.6893 9.25L13.9696 8.53033C13.6768 8.23744 13.6768 7.76256 13.9696 7.46967C14.2625 7.17678 14.7374 7.17678 15.0303 7.46967L17.0303 9.46967C17.2448 9.68417 17.309 10.0068 17.1929 10.287Z" fill="#CDCDDF"/>
<path id="Vector 201 (Stroke)" fill-rule="evenodd" clip-rule="evenodd" d="M7.80711 13.713C7.9232 13.4327 8.19668 13.25 8.50002 13.25L16.5 13.25C16.9142 13.25 17.25 13.5858 17.25 14C17.25 14.4142 16.9142 14.75 16.5 14.75L10.3107 14.75L11.0304 15.4697C11.3232 15.7626 11.3232 16.2374 11.0304 16.5303C10.7375 16.8232 10.2626 16.8232 9.96969 16.5303L7.96969 14.5303C7.75519 14.3158 7.69103 13.9932 7.80711 13.713Z" fill="#CDCDDF"/>
</g>
</g>
</svg>
