<svg width="25" height="68" viewBox="0 0 25 68" fill="none" xmlns="http://www.w3.org/2000/svg">
<g id="Vector">
<path d="M6.90912 67.714C7.00891 67.6811 7.08991 67.596 7.11027 67.4851C7.42954 65.8006 7.68723 64.0827 7.87701 62.3792C7.89568 62.2151 7.77714 62.0662 7.61159 62.048C7.44604 62.0299 7.29846 62.1479 7.28026 62.3134C7.09197 64.0022 6.83671 65.7035 6.52036 67.3728C6.4903 67.5359 6.59695 67.692 6.75913 67.7239C6.81129 67.7335 6.86208 67.7295 6.90912 67.714Z" fill="#CDCDDF"/>
<path d="M7.01787 67.694C7.05208 67.6827 7.08442 67.6658 7.11298 67.6421C12.2568 63.4552 16.1644 57.4418 18.1177 50.7087C19.7622 45.0391 19.9628 39.0582 18.7285 33.556C21.2606 31.7496 23.1577 28.8682 23.888 25.5764C24.7115 21.867 24.1166 17.6547 22.2127 13.7137C18.5231 6.08028 10.3499 0.775518 1.8743 0.513819C1.70822 0.508464 1.56962 0.639375 1.56565 0.804937C1.56026 0.97097 1.69118 1.10951 1.85679 1.11344C10.1151 1.3677 18.0791 6.536 21.674 13.9731C23.519 17.7929 24.0983 21.8667 23.3043 25.4448C22.6247 28.5066 20.894 31.1927 18.581 32.9206C18.381 32.1067 18.1483 31.3036 17.8841 30.5155C16.7868 27.2393 15.3607 24.8121 13.5218 23.0988C11.1896 20.924 8.08118 19.9666 5.40743 20.5986C2.36555 21.3172 0.111133 24.3225 0.485019 27.1576C0.656487 28.4658 1.34226 29.8053 2.52064 31.139C6.04259 35.1239 11.9145 36.6627 16.4861 34.7978C17.0783 34.5571 17.6504 34.2598 18.1942 33.915C19.3518 39.2562 19.1367 45.0444 17.5427 50.5411C15.6236 57.1571 11.7843 63.0658 6.73561 67.1772C6.60708 67.2811 6.58736 67.4708 6.69269 67.5988C6.77298 67.6988 6.9043 67.7329 7.01977 67.6949L7.01787 67.694ZM18.0523 33.2921C17.4823 33.6676 16.8827 33.9866 16.2586 34.241C16.0523 34.3247 15.8437 34.4012 15.6327 34.4707C11.3918 35.8665 6.16847 34.3591 2.96923 30.7402C1.87164 29.4984 1.23527 28.2658 1.07995 27.0787C0.745268 24.5355 2.78922 21.8363 5.54564 21.1818C8.0256 20.5945 10.925 21.4976 13.1115 23.5371C14.8743 25.1823 16.2495 27.5268 17.3135 30.7065C17.5968 31.553 17.8431 32.4164 18.0523 33.2921Z" fill="#CDCDDF"/>
<path d="M11.655 67.6508C11.7605 67.616 11.8424 67.5243 11.859 67.4067C11.881 67.2431 11.7663 67.0913 11.6022 67.068C10.1309 66.8652 8.64909 66.9233 7.19855 67.2397C7.09691 67.2621 6.98339 67.2868 6.92843 67.2638C6.77491 67.2006 6.60045 67.2754 6.53722 67.4289C6.47398 67.5824 6.54876 67.7568 6.70228 67.82C6.92876 67.9129 7.15864 67.8624 7.32677 67.8261C8.70796 67.5246 10.1195 67.4691 11.5197 67.6621C11.5662 67.6689 11.6117 67.6634 11.6545 67.6493L11.655 67.6508Z" fill="#CDCDDF"/>
</g>
</svg>
