<svg width="16" height="17" viewBox="0 0 16 17" fill="none" xmlns="http://www.w3.org/2000/svg">
<path opacity="0.4" d="M14.6666 8.50016C14.6666 12.1821 11.6819 15.1668 7.99998 15.1668C4.31808 15.1668 1.33331 12.1821 1.33331 8.50016C1.33331 4.81826 4.31808 1.8335 7.99998 1.8335C11.6819 1.8335 14.6666 4.81826 14.6666 8.50016Z" fill="#00BD7E"/>
<path fill-rule="evenodd" clip-rule="evenodd" d="M7.64645 5.47994C7.84171 5.28468 8.15829 5.28468 8.35355 5.47994L10.3536 7.47994C10.5488 7.6752 10.5488 7.99179 10.3536 8.18705C10.1583 8.38231 9.84171 8.38231 9.64645 8.18705L8.5 7.0406V11.1668C8.5 11.443 8.27614 11.6668 8 11.6668C7.72386 11.6668 7.5 11.443 7.5 11.1668V7.0406L6.35355 8.18705C6.15829 8.38231 5.84171 8.38231 5.64645 8.18705C5.45118 7.99179 5.45118 7.6752 5.64645 7.47994L7.64645 5.47994Z" fill="#00BD7E"/>
</svg>
