<svg width="88" height="248" viewBox="0 0 88 248" fill="none" xmlns="http://www.w3.org/2000/svg">
<g id="Vector">
<path d="M23.9117 246.678C24.2773 246.557 24.5741 246.245 24.6487 245.839C25.8185 239.667 26.7627 233.372 27.4581 227.13C27.5265 226.529 27.0922 225.983 26.4856 225.917C25.879 225.85 25.3383 226.283 25.2716 226.889C24.5816 233.077 23.6463 239.311 22.4872 245.428C22.3771 246.025 22.7678 246.597 23.3621 246.714C23.5532 246.749 23.7393 246.734 23.9117 246.678Z" fill="#CDCDDF"/>
<path d="M24.3101 246.604C24.4355 246.563 24.554 246.501 24.6586 246.414C43.5064 231.073 57.8242 209.039 64.9813 184.368C71.0069 163.594 71.7421 141.679 67.2192 121.518C76.4973 114.9 83.4484 104.342 86.1243 92.2804C89.1417 78.6886 86.9618 63.2542 79.9858 48.8139C66.4668 20.8441 36.5191 1.40684 5.46345 0.447941C4.85493 0.428323 4.34707 0.907995 4.33255 1.51464C4.31281 2.123 4.79251 2.63063 5.39931 2.64502C35.6587 3.57666 64.8397 22.514 78.012 49.7645C84.7724 63.7607 86.8951 78.6873 83.9856 91.798C81.4956 103.017 75.1541 112.859 66.6788 119.19C65.9461 116.208 65.0933 113.265 64.1255 110.378C60.1048 98.3735 54.8792 89.4798 48.1412 83.2021C39.596 75.2333 28.2062 71.7251 18.4093 74.0412C7.26347 76.6739 -0.996993 87.6858 0.372968 98.0742C1.00125 102.867 3.51399 107.775 7.83175 112.662C20.7366 127.263 42.2522 132.902 59.0029 126.069C61.1729 125.187 63.269 124.097 65.2614 122.834C69.5032 142.405 68.715 163.614 62.8744 183.754C55.8425 207.996 41.7748 229.646 23.2759 244.711C22.8049 245.092 22.7327 245.787 23.1186 246.256C23.4128 246.622 23.894 246.747 24.3171 246.608L24.3101 246.604ZM64.7416 120.551C62.6531 121.927 60.4559 123.096 58.1692 124.028C57.4133 124.335 56.6489 124.616 55.8759 124.87C40.3368 129.985 21.1978 124.461 9.47543 111.201C5.45371 106.651 3.122 102.135 2.55286 97.7849C1.32655 88.4662 8.81585 78.5762 18.9157 76.1778C28.0026 74.026 38.6263 77.3349 46.6378 84.8081C53.0969 90.8362 58.1358 99.4266 62.0344 111.078C63.0727 114.179 63.975 117.343 64.7416 120.551Z" fill="#CDCDDF"/>
<path d="M41.3011 246.446C41.6876 246.319 41.988 245.983 42.0488 245.552C42.1293 244.952 41.7089 244.396 41.1076 244.31C35.7166 243.567 30.2871 243.78 24.9722 244.94C24.5997 245.022 24.1838 245.112 23.9824 245.028C23.4199 244.797 22.7807 245.071 22.549 245.633C22.3172 246.195 22.5913 246.834 23.1538 247.066C23.9836 247.406 24.8259 247.222 25.442 247.088C30.5028 245.984 35.675 245.78 40.8053 246.488C40.9756 246.512 41.1426 246.492 41.2993 246.441L41.3011 246.446Z" fill="#CDCDDF"/>
</g>
</svg>
