<svg width="16" height="17" viewBox="0 0 16 17" fill="none" xmlns="http://www.w3.org/2000/svg">
<g id="Huge-icon/arrows/bulk/arrow-down-circle">
<g id="arrow down circle">
<path id="Ellipse 1171" opacity="0.4" d="M14.6667 8.50016C14.6667 12.1821 11.6819 15.1668 8.00001 15.1668C4.31811 15.1668 1.33334 12.1821 1.33334 8.50016C1.33334 4.81826 4.31811 1.8335 8.00001 1.8335C11.6819 1.8335 14.6667 4.81826 14.6667 8.50016Z" fill="#C92014"/>
<path id="Vector 191 (Stroke)" fill-rule="evenodd" clip-rule="evenodd" d="M7.64645 11.5205C7.84171 11.7158 8.15829 11.7158 8.35355 11.5205L10.3536 9.52055C10.5488 9.32528 10.5488 9.0087 10.3536 8.81344C10.1583 8.61818 9.84171 8.61818 9.64645 8.81344L8.5 9.95989V5.83366C8.5 5.55752 8.27614 5.33366 8 5.33366C7.72386 5.33366 7.5 5.55752 7.5 5.83366V9.95989L6.35355 8.81344C6.15829 8.61818 5.84171 8.61818 5.64645 8.81344C5.45118 9.0087 5.45118 9.32528 5.64645 9.52055L7.64645 11.5205Z" fill="#C92014"/>
</g>
</g>
</svg>
