<svg width="1110" height="288" viewBox="0 0 1110 288" fill="none" xmlns="http://www.w3.org/2000/svg">
<mask id="mask0_1501_40361" style="mask-type:alpha" maskUnits="userSpaceOnUse" x="0" y="0" width="1110" height="288">
<rect width="1110" height="288" rx="16" fill="#C4C4C4"/>
</mask>
<g mask="url(#mask0_1501_40361)">
<rect width="1110" height="288" rx="16" fill="#E39F17"/>
<path opacity="0.15" d="M730.287 206.715C612.471 122.077 450.106 220.981 321.429 154C254.479 119.15 240.901 87.7021 192.858 35.7146C162.043 2.36945 159.105 -3.43556 129.858 -27.2854C100.61 -51.1353 47.5723 -78.714 47.5723 -78.714V-166.143H1432.29V416.286H1101.86C1101.86 416.286 925.373 419.035 840.858 346.857C789.455 302.958 790.597 250.041 730.287 206.715Z" fill="white"/>
<path opacity="0.15" d="M777.857 178.715C660.041 94.0768 497.676 214.838 369 147.857C302.049 113.007 267 -10.4998 247.5 -46.9998C236.815 -66.9998 220.5 -84.9998 194 -98.9998C167.5 -113 95.1426 -106.714 95.1426 -106.714V-194.143H1479.86V351.715H1170C1170 351.715 952.714 358.715 882 308.572C820.285 264.811 838.168 222.041 777.857 178.715Z" fill="#E6ECF4"/>
</g>
</svg>
