<svg width="25" height="25" viewBox="0 0 25 25" fill="none" xmlns="http://www.w3.org/2000/svg">
<g id="Huge-icon/editor/bulk/bold">
<path id="Vector (Stroke)" opacity="0.4" fill-rule="evenodd" clip-rule="evenodd" d="M6.2998 5.40039C6.2998 4.98618 6.63559 4.65039 7.0498 4.65039H11.5498C13.897 4.65039 15.7998 6.55318 15.7998 8.90039C15.7998 10.0196 15.3672 11.0378 14.66 11.7969C16.4688 12.285 17.7998 13.9373 17.7998 15.9004C17.7998 18.2476 15.897 20.1504 13.5498 20.1504H7.0498C6.63559 20.1504 6.2998 19.8146 6.2998 19.4004V5.40039ZM7.7998 13.1504V18.6504H13.5498C15.0686 18.6504 16.2998 17.4192 16.2998 15.9004C16.2998 14.3816 15.0686 13.1504 13.5498 13.1504H7.7998ZM7.7998 11.6504H11.5498C13.0686 11.6504 14.2998 10.4192 14.2998 8.90039C14.2998 7.38161 13.0686 6.15039 11.5498 6.15039H7.7998V11.6504Z" fill="#252525"/>
</g>
</svg>
