<svg width="16" height="16" viewBox="0 0 16 16" fill="none" xmlns="http://www.w3.org/2000/svg">
<g id="Huge-icon/business/bulk/briefcase">
<g id="briefcase">
<path id="Vector 1009 (Stroke)" fill-rule="evenodd" clip-rule="evenodd" d="M7.33333 1.8335C6.5049 1.8335 5.83333 2.50507 5.83333 3.3335V4.00016H4.83333V3.3335C4.83333 1.95278 5.95262 0.833496 7.33333 0.833496H8.66666C10.0474 0.833496 11.1667 1.95278 11.1667 3.3335V4.00016H10.1667V3.3335C10.1667 2.50507 9.49509 1.8335 8.66666 1.8335H7.33333Z" fill="#4E5668"/>
<path id="Rectangle 395" opacity="0.4" d="M1.33333 6.66667C1.33333 5.19391 2.52724 4 3.99999 4H12C13.4728 4 14.6667 5.19391 14.6667 6.66667V12C14.6667 13.4728 13.4728 14.6667 12 14.6667H3.99999C2.52724 14.6667 1.33333 13.4728 1.33333 12V6.66667Z" fill="#4E5668"/>
<path id="Vector 1010 (Stroke)" fill-rule="evenodd" clip-rule="evenodd" d="M3.5 6.66699C3.5 6.39085 3.72386 6.16699 4 6.16699H12C12.2761 6.16699 12.5 6.39085 12.5 6.66699C12.5 6.94313 12.2761 7.16699 12 7.16699H4C3.72386 7.16699 3.5 6.94313 3.5 6.66699Z" fill="#4E5668"/>
<path id="Vector 1011 (Stroke)" fill-rule="evenodd" clip-rule="evenodd" d="M3.5 9.3335C3.5 9.05735 3.72386 8.8335 4 8.8335H12C12.2761 8.8335 12.5 9.05735 12.5 9.3335C12.5 9.60964 12.2761 9.8335 12 9.8335H4C3.72386 9.8335 3.5 9.60964 3.5 9.3335Z" fill="#4E5668"/>
<path id="Vector 1012 (Stroke)" fill-rule="evenodd" clip-rule="evenodd" d="M3.5 12C3.5 11.7239 3.72386 11.5 4 11.5H12C12.2761 11.5 12.5 11.7239 12.5 12C12.5 12.2761 12.2761 12.5 12 12.5H4C3.72386 12.5 3.5 12.2761 3.5 12Z" fill="#4E5668"/>
</g>
</g>
</svg>
