<svg width="16" height="16" viewBox="0 0 16 16" fill="none" xmlns="http://www.w3.org/2000/svg">
<g id="Huge-icon/interface/bulk/calendar">
<g id="calendar">
<path id="Rectangle 116" opacity="0.4" d="M2 6H14V12C14 13.4728 12.8061 14.6667 11.3333 14.6667H4.66667C3.19391 14.6667 2 13.4728 2 12V6Z" fill="#252525"/>
<path id="Vector" d="M11.3333 2.33398H4.66667C3.19391 2.33398 2 3.52789 2 5.00065V6.00065H14V5.00065C14 3.52789 12.8061 2.33398 11.3333 2.33398Z" fill="#252525"/>
<path id="Vector 422 (Stroke)" opacity="0.4" fill-rule="evenodd" clip-rule="evenodd" d="M5.33337 0.833984C5.60952 0.833984 5.83337 1.05784 5.83337 1.33398V3.33398C5.83337 3.61013 5.60952 3.83398 5.33337 3.83398C5.05723 3.83398 4.83337 3.61013 4.83337 3.33398V1.33398C4.83337 1.05784 5.05723 0.833984 5.33337 0.833984ZM10.6667 0.833984C10.9428 0.833984 11.1667 1.05784 11.1667 1.33398V3.33398C11.1667 3.61013 10.9428 3.83398 10.6667 3.83398C10.3906 3.83398 10.1667 3.61013 10.1667 3.33398V1.33398C10.1667 1.05784 10.3906 0.833984 10.6667 0.833984Z" fill="#252525"/>
</g>
</g>
</svg>
