<svg width="16" height="16" viewBox="0 0 16 16" fill="none" xmlns="http://www.w3.org/2000/svg">
<g id="Huge-icon/business/bulk/chart-wave">
<g id="chart wave">
<path id="Vector 1020 (Stroke)" opacity="0.4" fill-rule="evenodd" clip-rule="evenodd" d="M7.33333 5.16699C6.8731 5.16699 6.5 5.54009 6.5 6.00033V6.66699C6.5 7.67951 5.67919 8.50033 4.66667 8.50033H4C3.72386 8.50033 3.5 8.27647 3.5 8.00033C3.5 7.72418 3.72386 7.50033 4 7.50033H4.66667C5.1269 7.50033 5.5 7.12723 5.5 6.66699V6.00033C5.5 4.9878 6.32081 4.16699 7.33333 4.16699C8.34586 4.16699 9.16667 4.9878 9.16667 6.00033V10.0003C9.16667 10.4606 9.53976 10.8337 10 10.8337C10.4602 10.8337 10.8333 10.4606 10.8333 10.0003V9.33366C10.8333 8.32114 11.6541 7.50033 12.6667 7.50033H13.3333C13.6095 7.50033 13.8333 7.72418 13.8333 8.00033C13.8333 8.27647 13.6095 8.50033 13.3333 8.50033H12.6667C12.2064 8.50033 11.8333 8.87342 11.8333 9.33366V10.0003C11.8333 11.0128 11.0125 11.8337 10 11.8337C8.98748 11.8337 8.16667 11.0128 8.16667 10.0003V6.00033C8.16667 5.54009 7.79357 5.16699 7.33333 5.16699Z" fill="#4E5668"/>
<path id="Vector 1019 (Stroke)" fill-rule="evenodd" clip-rule="evenodd" d="M1.33333 0.833496C1.60947 0.833496 1.83333 1.05735 1.83333 1.3335V11.3335C1.83333 12.5301 2.80338 13.5002 3.99999 13.5002H14.6667C14.9428 13.5002 15.1667 13.724 15.1667 14.0002C15.1667 14.2763 14.9428 14.5002 14.6667 14.5002H3.99999C2.25109 14.5002 0.833328 13.0824 0.833328 11.3335V1.3335C0.833328 1.05735 1.05719 0.833496 1.33333 0.833496Z" fill="#4E5668"/>
</g>
</g>
</svg>
