<svg width="16" height="16" viewBox="0 0 16 16" fill="none" xmlns="http://www.w3.org/2000/svg">
<g id="Huge-icon/communication/bulk/chatting">
<g id="chatting">
<path id="Vector" opacity="0.4" d="M7.25925 2H6.51851C3.65482 2 1.33333 4.35051 1.33333 7.25V9.5C1.33333 10.3284 1.99661 11 2.81481 11H7.25925C9.71385 11 11.7037 8.98528 11.7037 6.5C11.7037 6.13792 11.6615 5.78583 11.5817 5.44851C11.114 3.47044 9.35625 2 7.25925 2Z" fill="#4E5668"/>
<path id="Vector_2" d="M7.25921 11.0002C9.71381 11.0002 11.7037 8.98551 11.7037 6.50022C11.7037 6.13815 11.6614 5.78606 11.5817 5.44873C13.399 6.26486 14.6666 8.10766 14.6666 10.2502V12.5002C14.6666 13.3287 14.0033 14.0002 13.1851 14.0002H8.7407C6.80556 14.0002 5.15928 12.748 4.54915 11.0002H7.25921Z" fill="#4E5668"/>
</g>
</g>
</svg>
