<svg width="16" height="17" viewBox="0 0 16 17" fill="none" xmlns="http://www.w3.org/2000/svg">
<g id="Huge-icon/communication/bulk/chat-smile">
<g id="chat smile">
<path id="Rectangle 17" opacity="0.4" d="M8.66665 2.5H7.33331C4.0196 2.5 1.33331 5.18629 1.33331 8.5V11.8333C1.33331 13.3061 2.52722 14.5 3.99998 14.5H8.66665C11.9804 14.5 14.6666 11.8137 14.6666 8.5C14.6666 5.18629 11.9804 2.5 8.66665 2.5Z" fill="#03045E"/>
<path id="Vector 54 (Stroke)" fill-rule="evenodd" clip-rule="evenodd" d="M10.2668 9.53238L10.2677 9.53123C10.4337 9.31157 10.7462 9.26736 10.9666 9.43268C11.1875 9.59837 11.2323 9.91177 11.0666 10.1327L11.0661 10.1334L11.0655 10.1342L11.064 10.1362L11.0598 10.1416L11.047 10.158C11.0364 10.1713 11.0219 10.1894 11.0034 10.2114C10.9664 10.2555 10.9135 10.3158 10.8453 10.387C10.7093 10.5289 10.5101 10.7163 10.2523 10.9037C9.7388 11.2772 8.97103 11.666 7.99993 11.666C7.02883 11.666 6.26106 11.2772 5.74751 10.9037C5.48977 10.7163 5.29055 10.5289 5.15456 10.387C5.08636 10.3158 5.03347 10.2555 4.9965 10.2114C4.978 10.1894 4.96343 10.1713 4.95288 10.158L4.94005 10.1416L4.9359 10.1362L4.93439 10.1342L4.93378 10.1334L4.93326 10.1327C4.76758 9.91177 4.81235 9.59837 5.03326 9.43268C5.25366 9.26739 5.5661 9.31156 5.73209 9.53113M5.73209 9.53113L5.73692 9.5373C5.74183 9.5435 5.75038 9.55412 5.76247 9.56854C5.7867 9.5974 5.82495 9.64123 5.87655 9.69506C5.98015 9.80316 6.13509 9.94909 6.33568 10.095C6.7388 10.3882 7.30436 10.666 7.99993 10.666C8.6955 10.666 9.26106 10.3882 9.66418 10.095C9.86477 9.94909 10.0197 9.80316 10.1233 9.69506C10.1749 9.64123 10.2132 9.5974 10.2374 9.56854C10.2495 9.55412 10.258 9.5435 10.2629 9.5373L10.2677 9.53123L10.2668 9.53238M5.73209 9.53113L5.7325 9.53167L5.73292 9.53223C5.73292 9.53223 5.73201 9.5311 5.73692 9.5373L5.73292 9.53223L5.73209 9.53113Z" fill="#03045E"/>
</g>
</g>
</svg>
