<svg width="24" height="25" viewBox="0 0 24 25" fill="none" xmlns="http://www.w3.org/2000/svg">
<path opacity="0.4" d="M22 12.5C22 18.0228 17.5228 22.5 12 22.5C6.47715 22.5 2 18.0228 2 12.5C2 6.97715 6.47715 2.5 12 2.5C17.5228 2.5 22 6.97715 22 12.5Z" fill="#252525"/>
<path fill-rule="evenodd" clip-rule="evenodd" d="M16.4605 8.90802C16.7874 9.16232 16.8463 9.63353 16.592 9.96049L12.585 15.1123C11.9613 15.9143 10.7881 16.0183 10.033 15.3387L7.49828 13.0575C7.1904 12.7804 7.16544 12.3062 7.44254 11.9983C7.71963 11.6904 8.19385 11.6655 8.50173 11.9426L11.0364 14.2238C11.1443 14.3209 11.3119 14.306 11.401 14.1914L15.408 9.03958C15.6623 8.71262 16.1335 8.65372 16.4605 8.90802Z" fill="#252525"/>
</svg>
