<svg width="14" height="15" viewBox="0 0 14 15" fill="none" xmlns="http://www.w3.org/2000/svg">
<g id="check">
<path id="Vector 279" opacity="0.4" d="M13.6666 7.4987C13.6666 11.1806 10.6818 14.1654 6.99992 14.1654C3.31802 14.1654 0.333252 11.1806 0.333252 7.4987C0.333252 3.8168 3.31802 0.832031 6.99992 0.832031C10.6818 0.832031 13.6666 3.8168 13.6666 7.4987Z" fill="#F5F7FA"/>
<path id="Vector 1265 (Stroke)" fill-rule="evenodd" clip-rule="evenodd" d="M9.97356 5.10535C10.1915 5.27488 10.2308 5.58902 10.0613 5.80699L7.38993 9.24157C6.97412 9.77618 6.19198 9.84556 5.68856 9.39248L3.99877 7.87167C3.79352 7.68694 3.77688 7.3708 3.96161 7.16554C4.14634 6.96029 4.46248 6.94365 4.66774 7.12838L6.35753 8.64918C6.42944 8.71391 6.54118 8.704 6.60058 8.62763L9.27191 5.19305C9.44145 4.97508 9.75559 4.93581 9.97356 5.10535Z" fill="#F5F7FA"/>
</g>
</svg>
