<svg width="24" height="25" viewBox="0 0 24 25" fill="none" xmlns="http://www.w3.org/2000/svg">
<g id="Huge-icon/device/bulk/computer">
<g id="computer">
<path id="Subtract" fill-rule="evenodd" clip-rule="evenodd" d="M11.25 18.5V21.75H9C8.58579 21.75 8.25 22.0858 8.25 22.5C8.25 22.9142 8.58579 23.25 9 23.25H15C15.4142 23.25 15.75 22.9142 15.75 22.5C15.75 22.0858 15.4142 21.75 15 21.75H12.75V18.5H11.25Z" fill="#03045E"/>
<path id="Rectangle 961" opacity="0.4" d="M2 5.5C2 3.84315 3.34315 2.5 5 2.5H19C20.6569 2.5 22 3.84315 22 5.5V15.5C22 17.1569 20.6569 18.5 19 18.5H5C3.34315 18.5 2 17.1569 2 15.5V5.5Z" fill="#03045E"/>
<path id="Vector 2979 (Stroke)" fill-rule="evenodd" clip-rule="evenodd" d="M10.25 15.5C10.25 15.0858 10.5858 14.75 11 14.75H13C13.4142 14.75 13.75 15.0858 13.75 15.5C13.75 15.9142 13.4142 16.25 13 16.25H11C10.5858 16.25 10.25 15.9142 10.25 15.5Z" fill="#03045E"/>
</g>
</g>
</svg>
