<svg width="24" height="24" viewBox="0 0 24 24" fill="none" xmlns="http://www.w3.org/2000/svg">
<g id="Huge-icon/education/bulk/globe">
<circle id="Ellipse 597" opacity="0.4" cx="12" cy="9" r="7" fill="#252525"/>
<path id="Vector (Stroke)" fill-rule="evenodd" clip-rule="evenodd" d="M5.45902 1.39936C5.75191 1.69225 5.75191 2.16712 5.45902 2.46002C4.60008 3.31896 3.91873 4.33867 3.45387 5.46093C2.98901 6.58319 2.74976 7.78603 2.74976 9.00076C2.74976 10.2155 2.98901 11.4183 3.45387 12.5406C3.91873 13.6628 4.60008 14.6826 5.45902 15.5415C6.31796 16.4004 7.33767 17.0818 8.45993 17.5466C9.5822 18.0115 10.785 18.2508 11.9998 18.2508C13.2145 18.2508 14.4173 18.0115 15.5396 17.5466C16.6618 17.0818 17.6816 16.4004 18.5405 15.5415C18.8334 15.2486 19.3083 15.2486 19.6012 15.5415C19.894 15.8344 19.894 16.3093 19.6012 16.6022C18.6029 17.6004 17.4179 18.3922 16.1136 18.9325C15.0409 19.3768 13.9048 19.6438 12.7498 19.7246L12.7499 21.2507H14.9999C15.4141 21.2507 15.7499 21.5865 15.7499 22.0007C15.7499 22.415 15.4141 22.7507 14.9999 22.7507H8.9999C8.58569 22.7507 8.2499 22.415 8.2499 22.0007C8.2499 21.5865 8.58569 21.2507 8.9999 21.2507H11.2499L11.2498 19.7246C10.0948 19.6438 8.95866 19.3768 7.88591 18.9325C6.58166 18.3922 5.39659 17.6004 4.39836 16.6022C3.40013 15.6039 2.60829 14.4189 2.06805 13.1146C1.52781 11.8104 1.24976 10.4125 1.24976 9.00076C1.24976 7.58905 1.52781 6.19116 2.06805 4.88691C2.60829 3.58266 3.40013 2.39759 4.39836 1.39936C4.69125 1.10646 5.16613 1.10646 5.45902 1.39936Z" fill="#252525"/>
</g>
</svg>
