<svg width="16" height="16" viewBox="0 0 16 16" fill="none" xmlns="http://www.w3.org/2000/svg">
<g id="Huge-icon/education/bulk/dashboard">
<path id="Rectangle 564" opacity="0.4" d="M1.33333 4.00016C1.33333 2.5274 2.52724 1.3335 3.99999 1.3335H12C13.4728 1.3335 14.6667 2.5274 14.6667 4.00016V12.0002C14.6667 13.4729 13.4728 14.6668 12 14.6668H3.99999C2.52724 14.6668 1.33333 13.4729 1.33333 12.0002V4.00016Z" fill="#03045E"/>
<path id="Vector 1484 (Stroke)" fill-rule="evenodd" clip-rule="evenodd" d="M8 4.1665C8.27614 4.1665 8.5 4.39036 8.5 4.6665V11.3332C8.5 11.6093 8.27614 11.8332 8 11.8332C7.72386 11.8332 7.5 11.6093 7.5 11.3332V4.6665C7.5 4.39036 7.72386 4.1665 8 4.1665Z" fill="#03045E"/>
<path id="Vector 1485 (Stroke)" fill-rule="evenodd" clip-rule="evenodd" d="M11.3333 5.5C11.6095 5.5 11.8333 5.72386 11.8333 6V10C11.8333 10.2761 11.6095 10.5 11.3333 10.5C11.0572 10.5 10.8333 10.2761 10.8333 10V6C10.8333 5.72386 11.0572 5.5 11.3333 5.5Z" fill="#03045E"/>
<path id="Vector 1486 (Stroke)" fill-rule="evenodd" clip-rule="evenodd" d="M4.66667 5.5C4.94281 5.5 5.16667 5.72386 5.16667 6V10C5.16667 10.2761 4.94281 10.5 4.66667 10.5C4.39053 10.5 4.16667 10.2761 4.16667 10V6C4.16667 5.72386 4.39053 5.5 4.66667 5.5Z" fill="#03045E"/>
</g>
</svg>
