<svg width="16" height="16" viewBox="0 0 16 16" fill="none" xmlns="http://www.w3.org/2000/svg">
<g id="Huge-icon/interface/bulk/diamond">
<g id="diamond">
<path id="Vector 475" opacity="0.4" d="M12.3605 2.48178L14.3086 4.701C14.7607 5.21601 14.7876 5.98367 14.3727 6.52984L9.12358 13.4398C8.55614 14.1867 7.44385 14.1867 6.87641 13.4398L1.6273 6.52984C1.2124 5.98367 1.2393 5.21601 1.69139 4.701L3.63945 2.48178C3.90846 2.17533 4.29403 2 4.69894 2H6.73995H9.41754H11.3011C11.706 2 12.0915 2.17533 12.3605 2.48178Z" fill="#4E5668"/>
<path id="Vector 474 (Stroke)" d="M14.1667 5.08846C14.4428 5.08846 14.6667 5.31232 14.6667 5.58846C14.6667 5.8646 14.4428 6.08846 14.1667 6.08846L1.83333 6.08838C1.55719 6.08838 1.33333 5.86452 1.33333 5.58838C1.33333 5.31224 1.55719 5.08838 1.83333 5.08838L14.1667 5.08846Z" fill="#4E5668"/>
</g>
</g>
</svg>
