<svg width="16" height="16" viewBox="0 0 16 16" fill="none" xmlns="http://www.w3.org/2000/svg">
<g id="Huge-icon/interface/bulk/edit">
<g id="edit">
<path id="Vector 399 (Stroke)" opacity="0.4" fill-rule="evenodd" clip-rule="evenodd" d="M1.5 14C1.5 13.7239 1.72386 13.5 2 13.5H14C14.2761 13.5 14.5 13.7239 14.5 14C14.5 14.2761 14.2761 14.5 14 14.5H2C1.72386 14.5 1.5 14.2761 1.5 14Z" fill="#252525"/>
<path id="Vector" d="M4.87975 11.9919L7.16823 11.665C7.49833 11.6178 7.80424 11.4649 8.04003 11.2291L12.4589 6.81027C12.4589 6.81027 11.3691 6.81027 10.2794 5.72052C9.18961 4.63077 9.18961 3.54102 9.18961 3.54102L4.77078 7.95985C4.53499 8.19564 4.38203 8.50154 4.33488 8.83165L4.00795 11.1201C3.9353 11.6287 4.3712 12.0646 4.87975 11.9919Z" fill="#252525" stroke="#252525" stroke-width="1.5" stroke-linecap="round"/>
<path id="Vector_2" opacity="0.4" d="M13.5486 3.54114L12.4589 2.45139C11.857 1.84954 10.8812 1.84954 10.2794 2.45139L9.18964 3.54114C9.18964 3.54114 9.18964 4.63089 10.2794 5.72064C11.3691 6.81039 12.4589 6.81039 12.4589 6.81039L13.5486 5.72064C14.1505 5.11879 14.1505 4.14299 13.5486 3.54114Z" fill="#252525" stroke="#252525" stroke-width="1.5" stroke-linecap="round"/>
</g>
</g>
</svg>
