<svg width="20" height="20" viewBox="0 0 20 20" fill="none" xmlns="http://www.w3.org/2000/svg">
<g id="figma">
<path id="Icon" d="M10 1.66797H7.08335C6.30981 1.66797 5.56794 1.97526 5.02096 2.52224C4.47398 3.06922 4.16669 3.81109 4.16669 4.58464C4.16669 5.35818 4.47398 6.10005 5.02096 6.64703C5.56794 7.19401 6.30981 7.5013 7.08335 7.5013M10 1.66797V7.5013M10 1.66797H12.9167C13.2997 1.66797 13.679 1.74341 14.0328 1.88999C14.3867 2.03656 14.7082 2.2514 14.9791 2.52224C15.2499 2.79308 15.4648 3.11461 15.6113 3.46848C15.7579 3.82234 15.8334 4.20161 15.8334 4.58464C15.8334 4.96766 15.7579 5.34693 15.6113 5.7008C15.4648 6.05466 15.2499 6.37619 14.9791 6.64703C14.7082 6.91787 14.3867 7.13271 14.0328 7.27928C13.679 7.42586 13.2997 7.5013 12.9167 7.5013M10 7.5013H7.08335M10 7.5013H12.9167M10 7.5013V13.3346M7.08335 7.5013C6.30981 7.5013 5.56794 7.80859 5.02096 8.35557C4.47398 8.90256 4.16669 9.64442 4.16669 10.418C4.16669 11.1915 4.47398 11.9334 5.02096 12.4804C5.56794 13.0273 6.30981 13.3346 7.08335 13.3346M12.9167 7.5013C12.5337 7.5013 12.1544 7.57674 11.8005 7.72332C11.4467 7.8699 11.1251 8.08474 10.8543 8.35557C10.5835 8.62641 10.3686 8.94794 10.222 9.30181C10.0755 9.65568 10 10.0349 10 10.418C10 10.801 10.0755 11.1803 10.222 11.5341C10.3686 11.888 10.5835 12.2095 10.8543 12.4804C11.1251 12.7512 11.4467 12.966 11.8005 13.1126C12.1544 13.2592 12.5337 13.3346 12.9167 13.3346C13.2997 13.3346 13.679 13.2592 14.0328 13.1126C14.3867 12.966 14.7082 12.7512 14.9791 12.4804C15.2499 12.2095 15.4648 11.888 15.6113 11.5341C15.7579 11.1803 15.8334 10.801 15.8334 10.418C15.8334 10.0349 15.7579 9.65568 15.6113 9.30181C15.4648 8.94794 15.2499 8.62641 14.9791 8.35557C14.7082 8.08474 14.3867 7.8699 14.0328 7.72332C13.679 7.57674 13.2997 7.5013 12.9167 7.5013ZM7.08335 13.3346C6.30981 13.3346 5.56794 13.6419 5.02096 14.1889C4.47398 14.7359 4.16669 15.4778 4.16669 16.2513C4.16669 17.0248 4.47398 17.7667 5.02096 18.3137C5.56794 18.8607 6.30981 19.168 7.08335 19.168C7.8569 19.168 8.59877 18.8607 9.14575 18.3137C9.69273 17.7667 10 17.0248 10 16.2513V13.3346M7.08335 13.3346H10" stroke="#03045E" stroke-width="1.66667" stroke-linecap="round" stroke-linejoin="round"/>
</g>
</svg>
