<svg width="16" height="16" viewBox="0 0 16 16" fill="none" xmlns="http://www.w3.org/2000/svg">
<g id="Huge-icon/files and folder/bulk/file">
<g id="Vector">
<path d="M13.3333 5.33301H12V13.333C12 14.0694 12.597 14.6663 13.3333 14.6663C14.0697 14.6663 14.6667 14.0694 14.6667 13.333V6.66634C14.6667 5.92996 14.0697 5.33301 13.3333 5.33301Z" fill="#252525"/>
</g>
<path id="Vector_2" opacity="0.4" d="M10 1.33301H3.33334C2.22877 1.33301 1.33334 2.22844 1.33334 3.33301V12.6663C1.33334 13.7709 2.22877 14.6663 3.33334 14.6663H13.3333C12.597 14.6663 12 14.0694 12 13.333V3.33301C12 2.22844 11.1046 1.33301 10 1.33301Z" fill="#252525"/>
<path id="Vector 391 (Stroke)" fill-rule="evenodd" clip-rule="evenodd" d="M3.5 4.66699C3.5 4.39085 3.72386 4.16699 4 4.16699H9.33333C9.60948 4.16699 9.83333 4.39085 9.83333 4.66699C9.83333 4.94313 9.60948 5.16699 9.33333 5.16699H4C3.72386 5.16699 3.5 4.94313 3.5 4.66699Z" fill="#252525"/>
<path id="Vector 392 (Stroke)" fill-rule="evenodd" clip-rule="evenodd" d="M3.5 8C3.5 7.72386 3.72386 7.5 4 7.5L9.33333 7.5C9.60948 7.5 9.83333 7.72386 9.83333 8C9.83333 8.27614 9.60948 8.5 9.33333 8.5L4 8.5C3.72386 8.5 3.5 8.27614 3.5 8Z" fill="#252525"/>
<path id="Vector 393 (Stroke)" fill-rule="evenodd" clip-rule="evenodd" d="M3.5 11.333C3.5 11.0569 3.72386 10.833 4 10.833H6.66667C6.94281 10.833 7.16667 11.0569 7.16667 11.333C7.16667 11.6092 6.94281 11.833 6.66667 11.833H4C3.72386 11.833 3.5 11.6092 3.5 11.333Z" fill="#252525"/>
</g>
</svg>
