<svg width="24" height="25" viewBox="0 0 24 25" fill="none" xmlns="http://www.w3.org/2000/svg">
<g id="Huge-icon/editor/bulk/font-color">
<path id="Vector 2625 (Stroke)" opacity="0.4" fill-rule="evenodd" clip-rule="evenodd" d="M4.25 20.4004C4.25 19.9862 4.58579 19.6504 5 19.6504H19C19.4142 19.6504 19.75 19.9862 19.75 20.4004C19.75 20.8146 19.4142 21.1504 19 21.1504H5C4.58579 21.1504 4.25 20.8146 4.25 20.4004Z" fill="#252525"/>
<path id="Vector (Stroke)" fill-rule="evenodd" clip-rule="evenodd" d="M12.0002 3.65039C12.303 3.65039 12.5761 3.83244 12.6925 4.11193L17.6925 16.1119C17.8518 16.4943 17.671 16.9334 17.2887 17.0927C16.9063 17.252 16.4672 17.0712 16.3079 16.6889L14.8335 13.1504H9.16686L7.6925 16.6889C7.53319 17.0712 7.09409 17.252 6.71173 17.0927C6.32938 16.9334 6.14858 16.4943 6.30789 16.1119L11.3079 4.11193C11.4243 3.83244 11.6974 3.65039 12.0002 3.65039ZM9.79186 11.6504H14.2085L12.0002 6.35039L9.79186 11.6504Z" fill="#252525"/>
</g>
</svg>
