<svg width="24" height="25" viewBox="0 0 24 25" fill="none" xmlns="http://www.w3.org/2000/svg">
<g id="Huge-icon/editor/bulk/font-rectangle">
<path id="Rectangle 1040" opacity="0.4" d="M2 6.40039C2 4.19125 3.79086 2.40039 6 2.40039H18C20.2091 2.40039 22 4.19125 22 6.40039V18.4004C22 20.6095 20.2091 22.4004 18 22.4004H6C3.79086 22.4004 2 20.6095 2 18.4004V6.40039Z" fill="#252525"/>
<path id="Vector (Stroke)" fill-rule="evenodd" clip-rule="evenodd" d="M12.0002 5.65039C12.303 5.65039 12.5761 5.83244 12.6925 6.11193L17.6925 18.1119C17.8518 18.4943 17.671 18.9334 17.2887 19.0927C16.9063 19.252 16.4672 19.0712 16.3079 18.6889L14.8335 15.1504H9.16686L7.6925 18.6889C7.53319 19.0712 7.09409 19.252 6.71173 19.0927C6.32938 18.9334 6.14858 18.4943 6.30789 18.1119L11.3079 6.11193C11.4243 5.83244 11.6974 5.65039 12.0002 5.65039ZM9.79186 13.6504H14.2085L12.0002 8.35039L9.79186 13.6504Z" fill="#252525"/>
</g>
</svg>
