<svg width="25" height="25" viewBox="0 0 25 25" fill="none" xmlns="http://www.w3.org/2000/svg">
<g id="Frame">
<path id="Vector" fill-rule="evenodd" clip-rule="evenodd" d="M10.9502 17.4004H18.9502C19.5502 17.4004 19.9502 17.8004 19.9502 18.4004C19.9502 19.0004 19.5502 19.4004 18.9502 19.4004H10.9502C10.685 19.4004 10.4306 19.295 10.2431 19.1075C10.0556 18.92 9.95021 18.6656 9.95021 18.4004C9.95021 18.1352 10.0556 17.8808 10.2431 17.6933C10.4306 17.5057 10.685 17.4004 10.9502 17.4004ZM10.9502 11.4004H18.9502C19.5502 11.4004 19.9502 11.8004 19.9502 12.4004C19.9502 13.0004 19.5502 13.4004 18.9502 13.4004H10.9502C10.685 13.4004 10.4306 13.295 10.2431 13.1075C10.0556 12.92 9.95021 12.6656 9.95021 12.4004C9.95021 12.1352 10.0556 11.8808 10.2431 11.6933C10.4306 11.5057 10.685 11.4004 10.9502 11.4004ZM10.9502 5.40039H18.9502C19.5502 5.40039 19.9502 5.80039 19.9502 6.40039C19.9502 7.00039 19.5502 7.40039 18.9502 7.40039H10.9502C10.685 7.40039 10.4306 7.29503 10.2431 7.1075C10.0556 6.91996 9.95021 6.66561 9.95021 6.40039C9.95021 6.13517 10.0556 5.88082 10.2431 5.69328C10.4306 5.50575 10.685 5.40039 10.9502 5.40039ZM6.95021 4.40039V7.90039C6.95021 8.20039 6.75021 8.40039 6.45021 8.40039C6.3176 8.40039 6.19042 8.34771 6.09665 8.25394C6.00289 8.16018 5.95021 8.033 5.95021 7.90039V5.40039H5.45021C5.3176 5.40039 5.19042 5.34771 5.09665 5.25394C5.00289 5.16018 4.95021 5.033 4.95021 4.90039C4.95021 4.76778 5.00289 4.64061 5.09665 4.54684C5.19042 4.45307 5.3176 4.40039 5.45021 4.40039H6.95021ZM5.95021 13.2004L6.15021 13.4004H7.45021C7.75021 13.4004 7.95021 13.6004 7.95021 13.9004C7.95021 14.2004 7.75021 14.4004 7.45021 14.4004H5.85021C5.60268 14.3755 5.37332 14.2593 5.2069 14.0744C5.04048 13.8895 4.94896 13.6492 4.95021 13.4004C4.95021 13.0004 5.25021 12.6004 5.55021 12.4004L6.75021 12.0004L6.95021 11.7004C6.95021 11.6473 6.92914 11.5965 6.89163 11.559C6.85412 11.5215 6.80325 11.5004 6.75021 11.5004H5.45021C5.3176 11.5004 5.19042 11.4477 5.09665 11.3539C5.00289 11.2602 4.95021 11.133 4.95021 11.0004C4.95021 10.7004 5.15021 10.5004 5.45021 10.5004H7.05021C7.55021 10.5004 7.95021 10.9004 7.95021 11.5004V11.6004C7.95021 12.0004 7.65021 12.4004 7.35021 12.6004L6.15021 13.0004L5.95021 13.3004V13.2004ZM7.95021 17.4004V19.4004C7.95021 20.0004 7.55021 20.4004 6.95021 20.4004H5.45021C5.3176 20.4004 5.19042 20.3477 5.09665 20.2539C5.00289 20.1602 4.95021 20.033 4.95021 19.9004C4.95021 19.7678 5.00289 19.6406 5.09665 19.5468C5.19042 19.4531 5.3176 19.4004 5.45021 19.4004H6.65021C6.85021 19.4004 6.95021 19.3004 6.95021 19.1004C6.95021 18.9004 6.85021 18.8004 6.65021 18.8004H5.35021C5.24412 18.8004 5.14238 18.7582 5.06737 18.6832C4.99235 18.6082 4.95021 18.5065 4.95021 18.4004C4.95021 18.2943 4.99235 18.1926 5.06737 18.1175C5.14238 18.0425 5.24412 18.0004 5.35021 18.0004H6.65021C6.85021 18.0004 6.95021 17.9004 6.95021 17.7004C6.95021 17.5004 6.85021 17.4004 6.65021 17.4004H5.45021C5.3176 17.4004 5.19042 17.3477 5.09665 17.2539C5.00289 17.1602 4.95021 17.033 4.95021 16.9004C4.95021 16.7678 5.00289 16.6406 5.09665 16.5468C5.19042 16.4531 5.3176 16.4004 5.45021 16.4004H6.95021C7.55021 16.4004 7.95021 16.8004 7.95021 17.4004Z" fill="#4E5668"/>
</g>
</svg>
