<svg width="25" height="25" viewBox="0 0 25 25" fill="none" xmlns="http://www.w3.org/2000/svg">
<g id="Huge-icon/editor/bulk/italic">
<path id="Vector (Stroke)" opacity="0.4" fill-rule="evenodd" clip-rule="evenodd" d="M14.0325 4.65058H12.0498C11.6356 4.65058 11.2998 4.98637 11.2998 5.40058C11.2998 5.8148 11.6356 6.15058 12.0498 6.15058H13.0555L9.48408 18.6506H8.0498C7.63559 18.6506 7.2998 18.9864 7.2998 19.4006C7.2998 19.8148 7.63559 20.1506 8.0498 20.1506H10.0332C10.0446 20.1508 10.0559 20.1508 10.0671 20.1506H12.0498C12.464 20.1506 12.7998 19.8148 12.7998 19.4006C12.7998 18.9864 12.464 18.6506 12.0498 18.6506H11.0441L14.6155 6.15058H16.0498C16.464 6.15058 16.7998 5.8148 16.7998 5.40058C16.7998 4.98637 16.464 4.65058 16.0498 4.65058H14.0664C14.0551 4.65033 14.0438 4.65033 14.0325 4.65058Z" fill="#252525"/>
</g>
</svg>
