<svg width="41" height="48" viewBox="0 0 41 48" fill="none" xmlns="http://www.w3.org/2000/svg">
<g id="layer1">
<g id="g600">
<path id="path602" d="M31.4925 7.71261C31.4925 7.71261 32.2037 12.7793 34.3371 16.1571C37.4136 21.0281 33.448 21.6681 34.248 25.0459C35.048 28.4238 41.1813 31.2681 33.8925 39.0014C29.1221 44.0627 23.4037 34.2014 23.4037 34.2014L21.8037 21.3126L31.4925 7.71261Z" fill="#FF6A59"/>
</g>
<path id="path606" d="M29.1389 15.956C28.3693 15.3795 27.6213 14.7838 26.8901 14.1729L21.8037 20.4766L23.4037 31.8568C23.4037 31.8568 24.8192 34.0112 26.8288 35.6267C27.3506 35.0483 28.5776 37.7302 29.2704 37.4902C31.5813 36.6902 35.7592 32.2459 32.737 28.8681C29.1272 24.8336 33.448 20.2459 29.1389 15.956Z" fill="#F2534F"/>
<g id="g608">
<path id="path610" d="M25.5916 32.249C23.3298 31.0151 23.9466 25.0514 23.9466 25.0514L20.5591 25.2695V25.0522L20.1967 25.161L19.834 25.0522V25.2695L16.4466 25.0514C16.4466 25.0514 17.0636 31.0151 14.8018 32.249C12.5399 33.4829 -0.825716 34.0997 0.613484 47.8765H19.834H20.5591H39.7796C41.2191 34.0997 27.8535 33.4829 25.5916 32.249Z" fill="#FF9D7B"/>
</g>
<g id="g612">
<path id="path614" d="M15.9717 30.7109C18.6775 30.3077 21.3815 29.8915 24.0837 29.4627C23.7034 27.4064 23.9466 25.0517 23.9466 25.0517L20.5591 25.2701V25.0525L20.1965 25.1613L19.8341 25.0525V25.2701L16.4466 25.0517C16.4466 25.0517 16.8037 28.5168 15.9717 30.7109Z" fill="#DA7E65"/>
</g>
<g id="g616">
<path id="path618" d="M28.7542 42.4678C28.1531 39.452 28.2955 36.2475 29.0283 33.292C28.4561 33.1259 27.9219 32.9843 27.4465 32.856C27.2307 35.3456 26.9385 37.8736 26.0019 40.1163C25.6411 40.9803 25.2057 41.7576 24.7017 42.4678H28.7542Z" fill="#352836"/>
</g>
<g id="g620">
<path id="path622" d="M32.8705 34.5887C30.634 37.6487 25.8401 39.7647 20.2854 39.7647C14.731 39.7647 9.93716 37.6487 7.70036 34.5887C3.72036 36.4653 -0.202039 40.0647 0.61396 47.8765H19.9214H20.6497H39.9569C40.7732 40.0647 36.8505 36.4653 32.8705 34.5887Z" fill="#438685"/>
</g>
<g id="g624">
<path id="path626" d="M19.2703 44.2456C27.1711 44.2456 34.0857 41.9605 37.8903 38.5437C36.5375 36.6936 34.7105 35.4563 32.8703 34.5888C30.6337 37.6488 25.8399 39.7648 20.2855 39.7648C14.7308 39.7648 9.93694 37.6488 7.70041 34.5888C5.52681 35.6136 3.37241 37.1544 1.99561 39.612C5.96707 42.4277 12.2255 44.2456 19.2703 44.2456Z" fill="#559C9A"/>
</g>
<g id="g628">
<path id="path630" d="M13.5737 16.322C12.9073 14.2545 11.3292 14.7332 11.1815 14.783C11.0265 14.8012 9.39532 15.0433 9.67719 17.1972C9.96065 19.3641 11.2177 20.5382 12.3967 20.1934C13.61 20.0012 14.2441 18.402 13.5737 16.322Z" fill="#DA7E65"/>
</g>
<g id="g632">
<path id="path634" d="M26.8806 16.322C27.547 14.2545 29.1252 14.7332 29.2729 14.783C29.4278 14.8012 31.059 15.0433 30.7772 17.1972C30.4937 19.3641 29.2366 20.5382 28.0577 20.1934C26.8444 20.0012 26.2102 18.402 26.8806 16.322Z" fill="#DA7E65"/>
</g>
<g id="g636">
<path id="path638" d="M11.9569 13.1898C12.7828 4.1255 19.6737 4.63323 20.3236 4.7015C20.9735 4.63323 27.8641 4.1255 28.69 13.1898C29.5209 22.3079 25.4596 28.2631 20.3236 27.9354C15.1873 28.2631 11.126 22.3079 11.9569 13.1898Z" fill="#FF9D7B"/>
</g>
<g id="g640">
<path id="path642" d="M15.3594 5.89046C15.3594 5.89046 16.2039 12.7793 23.0482 14.1126L21.3594 9.89046C21.3594 9.89046 21.9372 15.0017 28.7372 14.735C28.7372 14.735 31.226 15.8905 30.3372 18.5571C30.3372 18.5571 32.7815 16.5126 31.8482 13.0459C30.9148 9.57926 33.0927 9.35713 29.626 4.24593C26.5684 -0.262072 16.5594 -0.776205 15.3594 5.89046Z" fill="#FF6A59"/>
</g>
<g id="g644">
<path id="path646" d="M17.2703 4.42353C17.2703 4.42353 13.9815 1.75686 11.4925 4.77899C9.00368 7.80139 9.62581 12.5123 7.31488 15.4457C5.00368 18.379 5.35914 20.9569 8.20368 23.7123C11.0482 26.4681 0.203676 29.0457 3.67034 35.8902C7.13701 42.7347 15.7591 39.0902 16.3815 33.6681C17.0037 28.2457 16.6482 27.0902 16.6482 27.0902C16.6482 27.0902 13.0037 24.2457 12.3815 19.7123C11.7591 15.179 12.8258 12.9569 14.7815 11.3569C16.737 9.75686 18.5149 8.33472 17.2703 4.42353Z" fill="#FF6A59"/>
</g>
<g id="g648">
<path id="path650" d="M5.27025 32.6902C4.54544 31.2907 4.43984 30.2011 4.69904 29.3115C3.23584 30.9905 2.24731 33.0809 3.67024 35.8902C7.13691 42.7347 15.759 39.0902 16.3814 33.6681C16.395 33.5478 16.4078 33.4321 16.4206 33.3161C13.6924 35.4713 7.94598 37.8566 5.27025 32.6902Z" fill="#F2534F"/>
</g>
<g id="g652">
<path id="path654" d="M21.5115 17.7216C21.6251 17.931 21.7128 18.1456 21.792 18.3624C21.8704 18.579 21.9368 18.7984 21.996 19.0192C22.0275 19.1291 22.0496 19.2411 22.0765 19.352C22.1045 19.4627 22.1256 19.575 22.1459 19.6872C22.1904 19.911 22.2219 20.1376 22.2475 20.3656L22.2592 20.472L22.2013 20.5248C22.0165 20.6942 21.8267 20.8587 21.6336 21.02C21.4373 21.1784 21.2424 21.3382 21.0317 21.4824C21.1683 21.2667 21.3208 21.0662 21.472 20.8643C21.6264 20.6656 21.784 20.4699 21.9464 20.279L21.9005 20.4384C21.8323 20.2195 21.7699 19.9992 21.7208 19.7766C21.6941 19.6654 21.6685 19.5542 21.6493 19.4416C21.6296 19.3291 21.6048 19.2179 21.5893 19.1046C21.5549 18.8784 21.5275 18.651 21.512 18.4211C21.4976 18.191 21.4915 17.959 21.5115 17.7216Z" fill="#B36651"/>
</g>
<g id="g656">
<path id="path658" d="M23.8363 23.1106C22.1957 24.7053 19.4168 24.617 17.312 23.1957L23.8363 23.1106Z" fill="white"/>
</g>
<g id="g660">
<path id="path662" d="M26.8219 14.6479C26.8219 14.6479 26.7501 14.6082 26.6245 14.5386C26.5635 14.5053 26.4893 14.4647 26.4045 14.4181C26.3213 14.3741 26.2272 14.3245 26.1248 14.2703C26.0189 14.225 25.9131 14.1639 25.7947 14.1175C25.7373 14.0919 25.6784 14.0658 25.6181 14.0389C25.5573 14.0167 25.4952 13.9941 25.4323 13.9711C25.3093 13.9167 25.1757 13.897 25.0483 13.8517C24.916 13.8381 24.7864 13.7879 24.6544 13.793L24.4579 13.777C24.3931 13.7847 24.3285 13.7869 24.2637 13.7906C24.1325 13.785 24.0107 13.8338 23.884 13.8495C23.7576 13.8695 23.6445 13.9306 23.5259 13.9618L23.4381 13.989L23.3584 14.0293C23.304 14.0546 23.2517 14.0791 23.2013 14.1026C23.1013 14.1525 22.9987 14.1882 22.9213 14.2421C22.8419 14.2919 22.7661 14.3311 22.7043 14.3653C22.5797 14.4325 22.5 14.4679 22.5 14.4679C22.5 14.4679 22.5315 14.3919 22.6019 14.265C22.6373 14.2021 22.68 14.1234 22.7363 14.0378C22.7859 13.9461 22.8645 13.8623 22.9539 13.7714C23.0461 13.6847 23.1291 13.5647 23.26 13.489C23.3872 13.4111 23.5136 13.3055 23.6717 13.2469C23.7501 13.2151 23.8317 13.1869 23.9144 13.1575C23.996 13.1229 24.0837 13.1079 24.1736 13.0975C24.2629 13.0853 24.3533 13.0714 24.4445 13.0629C24.5352 13.0642 24.6267 13.0706 24.7179 13.0757C24.9029 13.0794 25.0739 13.1408 25.2453 13.1826C25.3275 13.2122 25.4064 13.2479 25.4843 13.2818C25.5637 13.3138 25.6381 13.3506 25.7059 13.3962C25.7752 13.4389 25.844 13.4789 25.9085 13.5223C25.9688 13.5701 26.028 13.6167 26.0856 13.6623C26.2021 13.7503 26.2904 13.8581 26.3787 13.9463C26.5448 14.1354 26.6589 14.3095 26.7264 14.4391C26.7968 14.5671 26.8219 14.6479 26.8219 14.6479Z" fill="#352836"/>
</g>
<g id="g664">
<path id="path666" d="M18.2379 14.6479C18.2379 14.6479 18.1661 14.6082 18.0405 14.5386C17.9795 14.5053 17.9053 14.4647 17.8205 14.4181C17.7373 14.3741 17.6432 14.3245 17.5408 14.2703C17.4349 14.225 17.3291 14.1639 17.2107 14.1175C17.1533 14.0919 17.0944 14.0658 17.0341 14.0389C16.9733 14.0167 16.9112 13.9941 16.8483 13.9711C16.7253 13.9167 16.5917 13.897 16.4643 13.8517C16.332 13.8381 16.2024 13.7879 16.0704 13.793L15.8739 13.777C15.8091 13.7847 15.7445 13.7869 15.6797 13.7906C15.5485 13.785 15.4267 13.8338 15.3 13.8495C15.1736 13.8695 15.0605 13.9306 14.9419 13.9618L14.8541 13.989L14.7744 14.0293C14.72 14.0546 14.6677 14.0791 14.6173 14.1026C14.5173 14.1525 14.4147 14.1882 14.3373 14.2421C14.2579 14.2919 14.1824 14.3311 14.1203 14.3653C13.9957 14.4325 13.916 14.4679 13.916 14.4679C13.916 14.4679 13.9475 14.3919 14.0179 14.265C14.0533 14.2021 14.096 14.1234 14.152 14.0378C14.2019 13.9461 14.2805 13.8623 14.3699 13.7714C14.4621 13.6847 14.5451 13.5647 14.676 13.489C14.8032 13.4111 14.9296 13.3055 15.0877 13.2469C15.1661 13.2151 15.2477 13.1869 15.3304 13.1575C15.412 13.1229 15.4997 13.1079 15.5896 13.0975C15.6789 13.0853 15.7693 13.0714 15.8605 13.0629C15.9512 13.0642 16.0427 13.0706 16.1339 13.0757C16.3189 13.0794 16.4899 13.1408 16.6613 13.1826C16.7435 13.2122 16.8224 13.2479 16.9003 13.2818C16.9797 13.3138 17.0541 13.3506 17.1219 13.3962C17.1912 13.4389 17.26 13.4789 17.3245 13.5223C17.3848 13.5701 17.444 13.6167 17.5016 13.6623C17.6181 13.7503 17.7064 13.8581 17.7947 13.9463C17.9605 14.1354 18.0749 14.3095 18.1424 14.4391C18.2128 14.5671 18.2379 14.6479 18.2379 14.6479Z" fill="#352836"/>
</g>
<g id="g668">
<path id="path670" d="M17.9655 17.9326C17.9655 17.9326 17.9468 17.859 17.905 17.7358C17.8631 17.6126 17.798 17.4393 17.6964 17.2494C17.5935 17.0612 17.4498 16.8564 17.2492 16.707C17.1506 16.6316 17.0372 16.5716 16.9143 16.5342C16.8538 16.5129 16.7919 16.4929 16.725 16.4886C16.6596 16.4798 16.5948 16.466 16.5263 16.4729C16.4628 16.4753 16.382 16.4673 16.3327 16.4764C16.2634 16.4897 16.1764 16.4932 16.1228 16.5142C16.0146 16.5494 15.8911 16.5908 15.798 16.6684C15.6983 16.7366 15.6215 16.8302 15.5522 16.923C15.4898 17.0214 15.4362 17.1217 15.3972 17.2212C15.3199 17.4198 15.2807 17.6012 15.2578 17.7289C15.2351 17.8569 15.2284 17.9326 15.2284 17.9326C15.2284 17.9326 15.2082 17.8593 15.1946 17.7265C15.182 17.5942 15.1743 17.4006 15.2218 17.1692C15.2447 17.0534 15.2842 16.9292 15.3466 16.8033C15.4143 16.6817 15.4962 16.5494 15.6218 16.4502C15.7396 16.343 15.8863 16.2644 16.0572 16.2137C16.1418 16.1846 16.2058 16.1838 16.2818 16.1673C16.3788 16.1502 16.4487 16.1588 16.5338 16.1545C16.6148 16.1497 16.697 16.1668 16.7786 16.1804C16.8607 16.1892 16.9394 16.2153 17.017 16.2444C17.0967 16.2665 17.1679 16.3081 17.237 16.3505C17.3092 16.3876 17.3676 16.442 17.4276 16.4913C17.6612 16.6988 17.7911 16.9574 17.8636 17.1774C17.938 17.3996 17.9591 17.5913 17.9668 17.7241C17.9735 17.8572 17.9655 17.9326 17.9655 17.9326Z" fill="#352836"/>
</g>
<g id="g672">
<path id="path674" d="M25.6794 17.8081C25.6794 17.8081 25.6607 17.7345 25.6188 17.6113C25.577 17.4881 25.5119 17.3148 25.4103 17.1249C25.3074 16.9366 25.1636 16.7318 24.9631 16.5825C24.8644 16.507 24.7511 16.447 24.6282 16.4097C24.5676 16.3884 24.5058 16.3684 24.4388 16.3641C24.3735 16.3553 24.3087 16.3414 24.2402 16.3484C24.1767 16.3508 24.0959 16.3428 24.0466 16.3518C23.9772 16.3652 23.8903 16.3686 23.8367 16.3897C23.7284 16.4249 23.605 16.4662 23.5119 16.5436C23.4122 16.6121 23.3354 16.7057 23.266 16.7985C23.2036 16.8969 23.1503 16.9972 23.1111 17.0966C23.0338 17.2953 22.9946 17.4766 22.9716 17.6044C22.949 17.7324 22.9423 17.8081 22.9423 17.8081C22.9423 17.8081 22.922 17.735 22.9084 17.602C22.8959 17.4697 22.8882 17.2761 22.9356 17.0446C22.9586 16.9289 22.998 16.8046 23.0604 16.6788C23.1282 16.5572 23.21 16.4249 23.3356 16.3257C23.4535 16.2185 23.6004 16.1398 23.7711 16.0889C23.8556 16.0601 23.9196 16.0593 23.9956 16.0428C24.0927 16.0257 24.1626 16.0342 24.2476 16.03C24.3287 16.0252 24.4108 16.0422 24.4924 16.0558C24.5746 16.0646 24.6532 16.0908 24.7308 16.1198C24.8106 16.142 24.8818 16.1836 24.9508 16.226C25.0231 16.263 25.0815 16.3174 25.1415 16.367C25.3751 16.5742 25.505 16.8329 25.5775 17.0529C25.6519 17.275 25.673 17.4668 25.6807 17.5996C25.6874 17.7326 25.6794 17.8081 25.6794 17.8081Z" fill="#352836"/>
</g>
</g>
</svg>
