<svg width="25" height="25" viewBox="0 0 25 25" fill="none" xmlns="http://www.w3.org/2000/svg">
<g id="Huge-icon/editor/bulk/link">
<path id="Vector 2730 (Stroke)" fill-rule="evenodd" clip-rule="evenodd" d="M15.5513 9.74908C15.8442 10.042 15.8442 10.5168 15.5513 10.8097L11.3087 15.0524C11.0158 15.3453 10.5409 15.3453 10.248 15.0524C9.95513 14.7595 9.95513 14.2846 10.248 13.9917L14.4907 9.74908C14.7836 9.45619 15.2584 9.45619 15.5513 9.74908Z" fill="#252525"/>
<path id="Vector 2731 (Stroke)" opacity="0.4" fill-rule="evenodd" clip-rule="evenodd" d="M19.0364 6.26419C17.4884 4.71612 14.9784 4.71612 13.4304 6.26419L11.7637 7.93086C11.4708 8.22376 10.9959 8.22376 10.703 7.93086C10.4101 7.63797 10.4101 7.1631 10.703 6.8702L12.3697 5.20353C14.5036 3.06968 17.9632 3.06967 20.0971 5.20353C22.2309 7.33738 22.2309 10.797 20.0971 12.9309L18.4304 14.5976C18.1375 14.8905 17.6626 14.8905 17.3697 14.5976C17.0769 14.3047 17.0769 13.8298 17.3697 13.5369L19.0364 11.8702C20.5845 10.3222 20.5845 7.81225 19.0364 6.26419Z" fill="#252525"/>
<path id="Vector 2732 (Stroke)" opacity="0.4" fill-rule="evenodd" clip-rule="evenodd" d="M6.76338 18.5366C8.31145 20.0847 10.8214 20.0847 12.3694 18.5366L14.0361 16.8699C14.329 16.577 14.8039 16.577 15.0968 16.8699C15.3897 17.1628 15.3897 17.6377 15.0968 17.9306L13.4301 19.5973C11.2962 21.7311 7.83658 21.7311 5.70272 19.5973C3.56887 17.4634 3.56887 14.0037 5.70272 11.8699L7.3694 10.2032C7.66229 9.91032 8.13717 9.91032 8.43006 10.2032C8.72295 10.4961 8.72295 10.971 8.43006 11.2639L6.76338 12.9305C5.21532 14.4786 5.21532 16.9885 6.76338 18.5366Z" fill="#252525"/>
</g>
</svg>
