<svg width="24" height="25" viewBox="0 0 24 25" fill="none" xmlns="http://www.w3.org/2000/svg">
<g id="Huge-icon/device/bulk/lock">
<g id="lock">
<path id="Subtract" fill-rule="evenodd" clip-rule="evenodd" d="M8.75 7.58337C8.75 5.78845 10.2051 4.33337 12 4.33337C13.7949 4.33337 15.25 5.78845 15.25 7.58337H16C16.2563 7.58337 16.5071 7.60749 16.75 7.65357V7.58337C16.75 4.96002 14.6234 2.83337 12 2.83337C9.37665 2.83337 7.25 4.96002 7.25 7.58337V7.65357C7.49294 7.60749 7.74365 7.58337 8 7.58337H8.75Z" fill="#252525"/>
<path id="Rectangle 324" opacity="0.4" d="M4 11.5834C4 9.37423 5.79086 7.58337 8 7.58337H16C18.2091 7.58337 20 9.37424 20 11.5834V17.5834C20 19.7925 18.2091 21.5834 16 21.5834H8C5.79086 21.5834 4 19.7925 4 17.5834V11.5834Z" fill="#252525"/>
<path id="Ellipse 332" d="M14 14.5834C14 15.6879 13.1046 16.5834 12 16.5834C10.8954 16.5834 10 15.6879 10 14.5834C10 13.4788 10.8954 12.5834 12 12.5834C13.1046 12.5834 14 13.4788 14 14.5834Z" fill="#252525"/>
</g>
</g>
</svg>
