<svg width="28" height="24" viewBox="0 0 28 24" fill="none" xmlns="http://www.w3.org/2000/svg">
<g id="mail notification">
<path id="Rectangle 68" opacity="0.4" d="M0.666504 9.33325C0.666504 7.12411 2.45737 5.33325 4.6665 5.33325H17.9998C20.209 5.33325 21.9998 7.12411 21.9998 9.33325V19.9999C21.9998 22.2091 20.209 23.9999 17.9998 23.9999H4.6665C2.45737 23.9999 0.666504 22.2091 0.666504 19.9999V9.33325Z" fill="#F2F6FF"/>
<g id="Vector">
<path fill-rule="evenodd" clip-rule="evenodd" d="M5.20006 11.4001C5.53143 10.9582 6.15823 10.8687 6.60006 11.2001L9.53339 13.4001C10.6001 14.2001 12.0667 14.2001 13.1334 13.4001L16.0667 11.2001C16.5086 10.8687 17.1354 10.9582 17.4667 11.4001C17.7981 11.8419 17.7086 12.4687 17.2667 12.8001L14.3334 15.0001C12.5556 16.3334 10.1112 16.3334 8.33339 15.0001L5.40006 12.8001C4.95823 12.4687 4.86869 11.8419 5.20006 11.4001Z" fill="#F2F6FF"/>
<path d="M27.3334 5.33333C27.3334 8.27885 24.9456 10.6667 22.0001 10.6667C19.0545 10.6667 16.6667 8.27885 16.6667 5.33333C16.6667 2.38781 19.0545 0 22.0001 0C24.9456 0 27.3334 2.38781 27.3334 5.33333Z" fill="#F2F6FF"/>
</g>
</g>
</svg>
