<svg width="25" height="24" viewBox="0 0 25 24" fill="none" xmlns="http://www.w3.org/2000/svg">
<g id="Huge-icon/finance and payment/bulk/master card">
<g id="master card">
<path id="Rectangle 577" opacity="0.4" d="M18.5 3C20.7091 3 22.5 4.79086 22.5 7L22.5 17C22.5 19.2091 20.7091 21 18.5 21L6.5 21C4.29086 21 2.5 19.2091 2.5 17L2.5 7C2.5 4.79086 4.29086 3 6.5 3L18.5 3Z" fill="#252525"/>
<path id="Vector (Stroke)" fill-rule="evenodd" clip-rule="evenodd" d="M10.5 9.75C9.25736 9.75 8.25 10.7574 8.25 12C8.25 13.2426 9.25736 14.25 10.5 14.25C10.8107 14.25 11.1063 14.1873 11.3752 14.0737C10.9805 13.4799 10.75 12.7666 10.75 12C10.75 11.2334 10.9805 10.5201 11.3752 9.92634C11.1063 9.8127 10.8107 9.75 10.5 9.75ZM12.5 8.82742C11.9211 8.46191 11.2348 8.25 10.5 8.25C8.42893 8.25 6.75 9.92893 6.75 12C6.75 14.0711 8.42893 15.75 10.5 15.75C11.2348 15.75 11.9211 15.5381 12.5 15.1726C13.0789 15.5381 13.7652 15.75 14.5 15.75C16.5711 15.75 18.25 14.0711 18.25 12C18.25 9.92893 16.5711 8.25 14.5 8.25C13.7652 8.25 13.0789 8.46191 12.5 8.82742ZM14.5 9.75C13.9233 9.75 13.3988 9.96602 13.0002 10.3227C12.5387 10.7358 12.25 11.3337 12.25 12C12.25 12.6663 12.5387 13.2642 13.0002 13.6773C13.3988 14.034 13.9233 14.25 14.5 14.25C15.7426 14.25 16.75 13.2426 16.75 12C16.75 10.7574 15.7426 9.75 14.5 9.75Z" fill="#252525"/>
</g>
</g>
</svg>
