<svg width="16" height="16" viewBox="0 0 16 16" fill="none" xmlns="http://www.w3.org/2000/svg">
<g id="Huge-icon/health/bulk/medical service">
<g id="Group 116">
<path id="Vector 994 (Stroke)" fill-rule="evenodd" clip-rule="evenodd" d="M7.33333 1.8335C6.5049 1.8335 5.83333 2.50507 5.83333 3.3335V4.66683C5.83333 4.94297 5.60947 5.16683 5.33333 5.16683C5.05719 5.16683 4.83333 4.94297 4.83333 4.66683V3.3335C4.83333 1.95278 5.95262 0.833496 7.33333 0.833496H8.66666C10.0474 0.833496 11.1667 1.95278 11.1667 3.3335V4.66683C11.1667 4.94297 10.9428 5.16683 10.6667 5.16683C10.3905 5.16683 10.1667 4.94297 10.1667 4.66683V3.3335C10.1667 2.50507 9.49509 1.8335 8.66666 1.8335H7.33333Z" fill="#4E5668"/>
<path id="Rectangle 391" opacity="0.4" d="M1.33333 6.66667C1.33333 5.19391 2.52724 4 3.99999 4H12C13.4728 4 14.6667 5.19391 14.6667 6.66667V12C14.6667 13.4728 13.4728 14.6667 12 14.6667H3.99999C2.52724 14.6667 1.33333 13.4728 1.33333 12V6.66667Z" fill="#4E5668"/>
<path id="Vector (Stroke)" fill-rule="evenodd" clip-rule="evenodd" d="M8 6.8335C8.27614 6.8335 8.5 7.05735 8.5 7.3335V8.8335H10C10.2761 8.8335 10.5 9.05735 10.5 9.3335C10.5 9.60964 10.2761 9.8335 10 9.8335H8.5V11.3335C8.5 11.6096 8.27614 11.8335 8 11.8335C7.72386 11.8335 7.5 11.6096 7.5 11.3335V9.8335H6C5.72386 9.8335 5.5 9.60964 5.5 9.3335C5.5 9.05735 5.72386 8.8335 6 8.8335H7.5V7.3335C7.5 7.05735 7.72386 6.8335 8 6.8335Z" fill="#4E5668"/>
</g>
</g>
</svg>
