<svg width="48" height="48" viewBox="0 0 48 48" fill="none" xmlns="http://www.w3.org/2000/svg">
<path opacity="0.4" fill-rule="evenodd" clip-rule="evenodd" d="M12.5 16C12.5 15.1716 13.1716 14.5 14 14.5H34C34.8284 14.5 35.5 15.1716 35.5 16C35.5 16.8284 34.8284 17.5 34 17.5H14C13.1716 17.5 12.5 16.8284 12.5 16Z" fill="#F2F6FF"/>
<path fill-rule="evenodd" clip-rule="evenodd" d="M12.5 24C12.5 23.1716 13.1716 22.5 14 22.5H34C34.8284 22.5 35.5 23.1716 35.5 24C35.5 24.8284 34.8284 25.5 34 25.5H14C13.1716 25.5 12.5 24.8284 12.5 24Z" fill="#F2F6FF"/>
<path opacity="0.4" fill-rule="evenodd" clip-rule="evenodd" d="M12.5 32C12.5 31.1716 13.1716 30.5 14 30.5H34C34.8284 30.5 35.5 31.1716 35.5 32C35.5 32.8284 34.8284 33.5 34 33.5H14C13.1716 33.5 12.5 32.8284 12.5 32Z" fill="#F2F6FF"/>
</svg>
