<svg width="25" height="25" viewBox="0 0 25 25" fill="none" xmlns="http://www.w3.org/2000/svg">
<g id="Huge-icon/device/bulk/mobile">
<g id="mobile">
<path id="Rectangle 1047" opacity="0.4" d="M5.2002 5.5C5.2002 3.84315 6.54334 2.5 8.2002 2.5H16.2002C17.857 2.5 19.2002 3.84315 19.2002 5.5V19.5C19.2002 21.1569 17.857 22.5 16.2002 22.5H8.2002C6.54334 22.5 5.2002 21.1569 5.2002 19.5V5.5Z" fill="#252525"/>
<path id="Vector 2978 (Stroke)" fill-rule="evenodd" clip-rule="evenodd" d="M10.4502 19.5C10.4502 19.0858 10.786 18.75 11.2002 18.75H13.2002C13.6144 18.75 13.9502 19.0858 13.9502 19.5C13.9502 19.9142 13.6144 20.25 13.2002 20.25H11.2002C10.786 20.25 10.4502 19.9142 10.4502 19.5Z" fill="#252525"/>
</g>
</g>
</svg>
