<svg width="37" height="37" viewBox="0 0 37 37" fill="none" xmlns="http://www.w3.org/2000/svg">
<g id="6384d19f2fb3c6c6a8598412_bg-dots-saas-x-template.svg" clip-path="url(#clip0_2870_23999)">
<path id="Vector" d="M1.60527 9.27981C2.04094 9.27981 2.39413 8.92662 2.39413 8.49095C2.39413 8.05527 2.04094 7.70209 1.60527 7.70209C1.16959 7.70209 0.816406 8.05527 0.816406 8.49095C0.816406 8.92662 1.16959 9.27981 1.60527 9.27981Z" fill="#CDCDDF"/>
<path id="Vector_2" d="M21.9959 9.27981C22.4316 9.27981 22.7848 8.92662 22.7848 8.49095C22.7848 8.05527 22.4316 7.70209 21.9959 7.70209C21.5602 7.70209 21.207 8.05527 21.207 8.49095C21.207 8.92662 21.5602 9.27981 21.9959 9.27981Z" fill="#CDCDDF"/>
<path id="Vector_3" d="M8.40214 9.27981C8.83782 9.27981 9.191 8.92662 9.191 8.49095C9.191 8.05527 8.83782 7.70209 8.40214 7.70209C7.96647 7.70209 7.61328 8.05527 7.61328 8.49095C7.61328 8.92662 7.96647 9.27981 8.40214 9.27981Z" fill="#CDCDDF"/>
<path id="Vector_4" d="M28.7928 9.27981C29.2284 9.27981 29.5816 8.92662 29.5816 8.49095C29.5816 8.05527 29.2284 7.70209 28.7928 7.70209C28.3571 7.70209 28.0039 8.05527 28.0039 8.49095C28.0039 8.92662 28.3571 9.27981 28.7928 9.27981Z" fill="#CDCDDF"/>
<path id="Vector_5" d="M15.199 9.27981C15.6347 9.27981 15.9879 8.92662 15.9879 8.49095C15.9879 8.05527 15.6347 7.70209 15.199 7.70209C14.7633 7.70209 14.4102 8.05527 14.4102 8.49095C14.4102 8.92662 14.7633 9.27981 15.199 9.27981Z" fill="#CDCDDF"/>
<path id="Vector_6" d="M35.5877 9.27981C36.0234 9.27981 36.3765 8.92662 36.3765 8.49095C36.3765 8.05527 36.0234 7.70209 35.5877 7.70209C35.152 7.70209 34.7988 8.05527 34.7988 8.49095C34.7988 8.92662 35.152 9.27981 35.5877 9.27981Z" fill="#CDCDDF"/>
<path id="Vector_7" d="M1.60722 2.4833C2.0429 2.4833 2.39608 2.13011 2.39608 1.69444C2.39608 1.25876 2.0429 0.905579 1.60722 0.905579C1.17154 0.905579 0.818359 1.25876 0.818359 1.69444C0.818359 2.13011 1.17154 2.4833 1.60722 2.4833Z" fill="#CDCDDF"/>
<path id="Vector_8" d="M21.9978 2.48336C22.4335 2.48336 22.7867 2.13018 22.7867 1.6945C22.7867 1.25882 22.4335 0.90564 21.9978 0.90564C21.5622 0.90564 21.209 1.25882 21.209 1.6945C21.209 2.13018 21.5622 2.48336 21.9978 2.48336Z" fill="#CDCDDF"/>
<path id="Vector_9" d="M8.40409 2.48336C8.83977 2.48336 9.19296 2.13018 9.19296 1.6945C9.19296 1.25882 8.83977 0.90564 8.40409 0.90564C7.96842 0.90564 7.61523 1.25882 7.61523 1.6945C7.61523 2.13018 7.96842 2.48336 8.40409 2.48336Z" fill="#CDCDDF"/>
<path id="Vector_10" d="M28.7928 2.48336C29.2284 2.48336 29.5816 2.13018 29.5816 1.6945C29.5816 1.25882 29.2284 0.90564 28.7928 0.90564C28.3571 0.90564 28.0039 1.25882 28.0039 1.6945C28.0039 2.13018 28.3571 2.48336 28.7928 2.48336Z" fill="#CDCDDF"/>
<path id="Vector_11" d="M15.201 2.48336C15.6366 2.48336 15.9898 2.13018 15.9898 1.6945C15.9898 1.25882 15.6366 0.90564 15.201 0.90564C14.7653 0.90564 14.4121 1.25882 14.4121 1.6945C14.4121 2.13018 14.7653 2.48336 15.201 2.48336Z" fill="#CDCDDF"/>
<path id="Vector_12" d="M35.5916 2.48336C36.0273 2.48336 36.3805 2.13018 36.3805 1.6945C36.3805 1.25882 36.0273 0.90564 35.5916 0.90564C35.1559 0.90564 34.8027 1.25882 34.8027 1.6945C34.8027 2.13018 35.1559 2.48336 35.5916 2.48336Z" fill="#CDCDDF"/>
<path id="Vector_13" d="M1.60527 16.0763C2.04094 16.0763 2.39413 15.7231 2.39413 15.2874C2.39413 14.8517 2.04094 14.4985 1.60527 14.4985C1.16959 14.4985 0.816406 14.8517 0.816406 15.2874C0.816406 15.7231 1.16959 16.0763 1.60527 16.0763Z" fill="#CDCDDF"/>
<path id="Vector_14" d="M21.9959 16.0763C22.4316 16.0763 22.7848 15.7231 22.7848 15.2874C22.7848 14.8517 22.4316 14.4985 21.9959 14.4985C21.5602 14.4985 21.207 14.8517 21.207 15.2874C21.207 15.7231 21.5602 16.0763 21.9959 16.0763Z" fill="#CDCDDF"/>
<path id="Vector_15" d="M8.40214 16.0763C8.83782 16.0763 9.191 15.7231 9.191 15.2874C9.191 14.8517 8.83782 14.4985 8.40214 14.4985C7.96647 14.4985 7.61328 14.8517 7.61328 15.2874C7.61328 15.7231 7.96647 16.0763 8.40214 16.0763Z" fill="#CDCDDF"/>
<path id="Vector_16" d="M28.7928 16.0763C29.2284 16.0763 29.5816 15.7231 29.5816 15.2874C29.5816 14.8517 29.2284 14.4985 28.7928 14.4985C28.3571 14.4985 28.0039 14.8517 28.0039 15.2874C28.0039 15.7231 28.3571 16.0763 28.7928 16.0763Z" fill="#CDCDDF"/>
<path id="Vector_17" d="M15.199 16.0763C15.6347 16.0763 15.9879 15.7231 15.9879 15.2874C15.9879 14.8517 15.6347 14.4985 15.199 14.4985C14.7633 14.4985 14.4102 14.8517 14.4102 15.2874C14.4102 15.7231 14.7633 16.0763 15.199 16.0763Z" fill="#CDCDDF"/>
<path id="Vector_18" d="M35.5877 16.0763C36.0234 16.0763 36.3765 15.7231 36.3765 15.2874C36.3765 14.8517 36.0234 14.4985 35.5877 14.4985C35.152 14.4985 34.7988 14.8517 34.7988 15.2874C34.7988 15.7231 35.152 16.0763 35.5877 16.0763Z" fill="#CDCDDF"/>
<path id="Vector_19" d="M1.60527 22.8728C2.04094 22.8728 2.39413 22.5196 2.39413 22.084C2.39413 21.6483 2.04094 21.2951 1.60527 21.2951C1.16959 21.2951 0.816406 21.6483 0.816406 22.084C0.816406 22.5196 1.16959 22.8728 1.60527 22.8728Z" fill="#CDCDDF"/>
<path id="Vector_20" d="M21.9959 22.8728C22.4316 22.8728 22.7848 22.5196 22.7848 22.084C22.7848 21.6483 22.4316 21.2951 21.9959 21.2951C21.5602 21.2951 21.207 21.6483 21.207 22.084C21.207 22.5196 21.5602 22.8728 21.9959 22.8728Z" fill="#CDCDDF"/>
<path id="Vector_21" d="M8.40214 22.8728C8.83782 22.8728 9.191 22.5196 9.191 22.084C9.191 21.6483 8.83782 21.2951 8.40214 21.2951C7.96647 21.2951 7.61328 21.6483 7.61328 22.084C7.61328 22.5196 7.96647 22.8728 8.40214 22.8728Z" fill="#CDCDDF"/>
<path id="Vector_22" d="M28.7928 22.8728C29.2284 22.8728 29.5816 22.5196 29.5816 22.084C29.5816 21.6483 29.2284 21.2951 28.7928 21.2951C28.3571 21.2951 28.0039 21.6483 28.0039 22.084C28.0039 22.5196 28.3571 22.8728 28.7928 22.8728Z" fill="#CDCDDF"/>
<path id="Vector_23" d="M15.199 22.8728C15.6347 22.8728 15.9879 22.5196 15.9879 22.084C15.9879 21.6483 15.6347 21.2951 15.199 21.2951C14.7633 21.2951 14.4102 21.6483 14.4102 22.084C14.4102 22.5196 14.7633 22.8728 15.199 22.8728Z" fill="#CDCDDF"/>
<path id="Vector_24" d="M35.5877 22.8728C36.0234 22.8728 36.3765 22.5196 36.3765 22.084C36.3765 21.6483 36.0234 21.2951 35.5877 21.2951C35.152 21.2951 34.7988 21.6483 34.7988 22.084C34.7988 22.5196 35.152 22.8728 35.5877 22.8728Z" fill="#CDCDDF"/>
<path id="Vector_25" d="M1.60527 29.6693C2.04094 29.6693 2.39413 29.3161 2.39413 28.8804C2.39413 28.4447 2.04094 28.0916 1.60527 28.0916C1.16959 28.0916 0.816406 28.4447 0.816406 28.8804C0.816406 29.3161 1.16959 29.6693 1.60527 29.6693Z" fill="#CDCDDF"/>
<path id="Vector_26" d="M21.9959 29.6693C22.4316 29.6693 22.7848 29.3161 22.7848 28.8804C22.7848 28.4447 22.4316 28.0916 21.9959 28.0916C21.5602 28.0916 21.207 28.4447 21.207 28.8804C21.207 29.3161 21.5602 29.6693 21.9959 29.6693Z" fill="#CDCDDF"/>
<path id="Vector_27" d="M8.40214 29.6693C8.83782 29.6693 9.191 29.3161 9.191 28.8804C9.191 28.4447 8.83782 28.0916 8.40214 28.0916C7.96647 28.0916 7.61328 28.4447 7.61328 28.8804C7.61328 29.3161 7.96647 29.6693 8.40214 29.6693Z" fill="#CDCDDF"/>
<path id="Vector_28" d="M28.7928 29.6693C29.2284 29.6693 29.5816 29.3161 29.5816 28.8804C29.5816 28.4447 29.2284 28.0916 28.7928 28.0916C28.3571 28.0916 28.0039 28.4447 28.0039 28.8804C28.0039 29.3161 28.3571 29.6693 28.7928 29.6693Z" fill="#CDCDDF"/>
<path id="Vector_29" d="M15.199 29.6693C15.6347 29.6693 15.9879 29.3161 15.9879 28.8804C15.9879 28.4447 15.6347 28.0916 15.199 28.0916C14.7633 28.0916 14.4102 28.4447 14.4102 28.8804C14.4102 29.3161 14.7633 29.6693 15.199 29.6693Z" fill="#CDCDDF"/>
<path id="Vector_30" d="M35.5877 29.6693C36.0234 29.6693 36.3765 29.3161 36.3765 28.8804C36.3765 28.4447 36.0234 28.0916 35.5877 28.0916C35.152 28.0916 34.7988 28.4447 34.7988 28.8804C34.7988 29.3161 35.152 29.6693 35.5877 29.6693Z" fill="#CDCDDF"/>
<path id="Vector_31" d="M1.60527 36.4658C2.04094 36.4658 2.39413 36.1126 2.39413 35.6769C2.39413 35.2412 2.04094 34.8881 1.60527 34.8881C1.16959 34.8881 0.816406 35.2412 0.816406 35.6769C0.816406 36.1126 1.16959 36.4658 1.60527 36.4658Z" fill="#CDCDDF"/>
<path id="Vector_32" d="M21.9959 36.4658C22.4316 36.4658 22.7848 36.1126 22.7848 35.6769C22.7848 35.2412 22.4316 34.8881 21.9959 34.8881C21.5602 34.8881 21.207 35.2412 21.207 35.6769C21.207 36.1126 21.5602 36.4658 21.9959 36.4658Z" fill="#CDCDDF"/>
<path id="Vector_33" d="M8.40214 36.4658C8.83782 36.4658 9.191 36.1126 9.191 35.6769C9.191 35.2412 8.83782 34.8881 8.40214 34.8881C7.96647 34.8881 7.61328 35.2412 7.61328 35.6769C7.61328 36.1126 7.96647 36.4658 8.40214 36.4658Z" fill="#CDCDDF"/>
<path id="Vector_34" d="M28.7928 36.4658C29.2284 36.4658 29.5816 36.1126 29.5816 35.6769C29.5816 35.2412 29.2284 34.8881 28.7928 34.8881C28.3571 34.8881 28.0039 35.2412 28.0039 35.6769C28.0039 36.1126 28.3571 36.4658 28.7928 36.4658Z" fill="#CDCDDF"/>
<path id="Vector_35" d="M15.199 36.4658C15.6347 36.4658 15.9879 36.1126 15.9879 35.6769C15.9879 35.2412 15.6347 34.8881 15.199 34.8881C14.7633 34.8881 14.4102 35.2412 14.4102 35.6769C14.4102 36.1126 14.7633 36.4658 15.199 36.4658Z" fill="#CDCDDF"/>
<path id="Vector_36" d="M35.5877 36.4658C36.0234 36.4658 36.3765 36.1126 36.3765 35.6769C36.3765 35.2412 36.0234 34.8881 35.5877 34.8881C35.152 34.8881 34.7988 35.2412 34.7988 35.6769C34.7988 36.1126 35.152 36.4658 35.5877 36.4658Z" fill="#CDCDDF"/>
</g>
<defs>
<clipPath id="clip0_2870_23999">
<rect width="35.8789" height="35.8789" fill="white" transform="translate(0.816406 0.905823)"/>
</clipPath>
</defs>
</svg>
