<svg width="111" height="111" viewBox="0 0 111 111" fill="none" xmlns="http://www.w3.org/2000/svg">
<g id="6384d19f2fb3c6c6a8598412_bg-dots-saas-x-template.svg" clip-path="url(#clip0_2746_22105)">
<path id="Vector" d="M2.91854 26.0042C4.25426 26.0042 5.33708 24.9214 5.33708 23.5857C5.33708 22.2499 4.25426 21.1671 2.91854 21.1671C1.58282 21.1671 0.5 22.2499 0.5 23.5857C0.5 24.9214 1.58282 26.0042 2.91854 26.0042Z" fill="#CDCDDF"/>
<path id="Vector_2" d="M65.4322 26.0042C66.7679 26.0042 67.8507 24.9214 67.8507 23.5857C67.8507 22.2499 66.7679 21.1671 65.4322 21.1671C64.0965 21.1671 63.0137 22.2499 63.0137 23.5857C63.0137 24.9214 64.0965 26.0042 65.4322 26.0042Z" fill="#CDCDDF"/>
<path id="Vector_3" d="M23.7564 26.0042C25.0922 26.0042 26.175 24.9214 26.175 23.5857C26.175 22.2499 25.0922 21.1671 23.7564 21.1671C22.4207 21.1671 21.3379 22.2499 21.3379 23.5857C21.3379 24.9214 22.4207 26.0042 23.7564 26.0042Z" fill="#CDCDDF"/>
<path id="Vector_4" d="M86.2701 26.0042C87.6058 26.0042 88.6886 24.9214 88.6886 23.5857C88.6886 22.2499 87.6058 21.1671 86.2701 21.1671C84.9344 21.1671 83.8516 22.2499 83.8516 23.5857C83.8516 24.9214 84.9344 26.0042 86.2701 26.0042Z" fill="#CDCDDF"/>
<path id="Vector_5" d="M44.5943 26.0042C45.93 26.0042 47.0129 24.9214 47.0129 23.5857C47.0129 22.2499 45.93 21.1671 44.5943 21.1671C43.2586 21.1671 42.1758 22.2499 42.1758 23.5857C42.1758 24.9214 43.2586 26.0042 44.5943 26.0042Z" fill="#CDCDDF"/>
<path id="Vector_6" d="M107.108 26.0042C108.444 26.0042 109.527 24.9214 109.527 23.5857C109.527 22.2499 108.444 21.1671 107.108 21.1671C105.772 21.1671 104.689 22.2499 104.689 23.5857C104.689 24.9214 105.772 26.0042 107.108 26.0042Z" fill="#CDCDDF"/>
<path id="Vector_7" d="M2.92245 5.16716C4.25817 5.16716 5.34099 4.08434 5.34099 2.74862C5.34099 1.4129 4.25817 0.330078 2.92245 0.330078C1.58672 0.330078 0.503906 1.4129 0.503906 2.74862C0.503906 4.08434 1.58672 5.16716 2.92245 5.16716Z" fill="#CDCDDF"/>
<path id="Vector_8" d="M65.4361 5.16716C66.7718 5.16716 67.8547 4.08434 67.8547 2.74862C67.8547 1.4129 66.7718 0.330078 65.4361 0.330078C64.1004 0.330078 63.0176 1.4129 63.0176 2.74862C63.0176 4.08434 64.1004 5.16716 65.4361 5.16716Z" fill="#CDCDDF"/>
<path id="Vector_9" d="M23.7603 5.16716C25.0961 5.16716 26.1789 4.08434 26.1789 2.74862C26.1789 1.4129 25.0961 0.330078 23.7603 0.330078C22.4246 0.330078 21.3418 1.4129 21.3418 2.74862C21.3418 4.08434 22.4246 5.16716 23.7603 5.16716Z" fill="#CDCDDF"/>
<path id="Vector_10" d="M86.274 5.16716C87.6097 5.16716 88.6926 4.08434 88.6926 2.74862C88.6926 1.4129 87.6097 0.330078 86.274 0.330078C84.9383 0.330078 83.8555 1.4129 83.8555 2.74862C83.8555 4.08434 84.9383 5.16716 86.274 5.16716Z" fill="#CDCDDF"/>
<path id="Vector_11" d="M44.5982 5.16716C45.934 5.16716 47.0168 4.08434 47.0168 2.74862C47.0168 1.4129 45.934 0.330078 44.5982 0.330078C43.2625 0.330078 42.1797 1.4129 42.1797 2.74862C42.1797 4.08434 43.2625 5.16716 44.5982 5.16716Z" fill="#CDCDDF"/>
<path id="Vector_12" d="M107.112 5.16716C108.448 5.16716 109.53 4.08434 109.53 2.74862C109.53 1.4129 108.448 0.330078 107.112 0.330078C105.776 0.330078 104.693 1.4129 104.693 2.74862C104.693 4.08434 105.776 5.16716 107.112 5.16716Z" fill="#CDCDDF"/>
<path id="Vector_13" d="M2.91854 46.8414C4.25426 46.8414 5.33708 45.7585 5.33708 44.4228C5.33708 43.0871 4.25426 42.0043 2.91854 42.0043C1.58282 42.0043 0.5 43.0871 0.5 44.4228C0.5 45.7585 1.58282 46.8414 2.91854 46.8414Z" fill="#CDCDDF"/>
<path id="Vector_14" d="M65.4322 46.8414C66.7679 46.8414 67.8507 45.7585 67.8507 44.4228C67.8507 43.0871 66.7679 42.0043 65.4322 42.0043C64.0965 42.0043 63.0137 43.0871 63.0137 44.4228C63.0137 45.7585 64.0965 46.8414 65.4322 46.8414Z" fill="#CDCDDF"/>
<path id="Vector_15" d="M23.7564 46.8414C25.0922 46.8414 26.175 45.7585 26.175 44.4228C26.175 43.0871 25.0922 42.0043 23.7564 42.0043C22.4207 42.0043 21.3379 43.0871 21.3379 44.4228C21.3379 45.7585 22.4207 46.8414 23.7564 46.8414Z" fill="#CDCDDF"/>
<path id="Vector_16" d="M86.2701 46.8414C87.6058 46.8414 88.6886 45.7585 88.6886 44.4228C88.6886 43.0871 87.6058 42.0043 86.2701 42.0043C84.9344 42.0043 83.8516 43.0871 83.8516 44.4228C83.8516 45.7585 84.9344 46.8414 86.2701 46.8414Z" fill="#CDCDDF"/>
<path id="Vector_17" d="M44.5943 46.8414C45.93 46.8414 47.0129 45.7585 47.0129 44.4228C47.0129 43.0871 45.93 42.0043 44.5943 42.0043C43.2586 42.0043 42.1758 43.0871 42.1758 44.4228C42.1758 45.7585 43.2586 46.8414 44.5943 46.8414Z" fill="#CDCDDF"/>
<path id="Vector_18" d="M107.108 46.8414C108.444 46.8414 109.527 45.7585 109.527 44.4228C109.527 43.0871 108.444 42.0043 107.108 42.0043C105.772 42.0043 104.689 43.0871 104.689 44.4228C104.689 45.7585 105.772 46.8414 107.108 46.8414Z" fill="#CDCDDF"/>
<path id="Vector_19" d="M2.91854 67.6784C4.25426 67.6784 5.33708 66.5956 5.33708 65.2598C5.33708 63.9241 4.25426 62.8413 2.91854 62.8413C1.58282 62.8413 0.5 63.9241 0.5 65.2598C0.5 66.5956 1.58282 67.6784 2.91854 67.6784Z" fill="#CDCDDF"/>
<path id="Vector_20" d="M65.4322 67.6784C66.7679 67.6784 67.8507 66.5956 67.8507 65.2598C67.8507 63.9241 66.7679 62.8413 65.4322 62.8413C64.0965 62.8413 63.0137 63.9241 63.0137 65.2598C63.0137 66.5956 64.0965 67.6784 65.4322 67.6784Z" fill="#CDCDDF"/>
<path id="Vector_21" d="M23.7564 67.6784C25.0922 67.6784 26.175 66.5956 26.175 65.2598C26.175 63.9241 25.0922 62.8413 23.7564 62.8413C22.4207 62.8413 21.3379 63.9241 21.3379 65.2598C21.3379 66.5956 22.4207 67.6784 23.7564 67.6784Z" fill="#CDCDDF"/>
<path id="Vector_22" d="M86.2701 67.6784C87.6058 67.6784 88.6886 66.5956 88.6886 65.2598C88.6886 63.9241 87.6058 62.8413 86.2701 62.8413C84.9344 62.8413 83.8516 63.9241 83.8516 65.2598C83.8516 66.5956 84.9344 67.6784 86.2701 67.6784Z" fill="#CDCDDF"/>
<path id="Vector_23" d="M44.5943 67.6784C45.93 67.6784 47.0129 66.5956 47.0129 65.2598C47.0129 63.9241 45.93 62.8413 44.5943 62.8413C43.2586 62.8413 42.1758 63.9241 42.1758 65.2598C42.1758 66.5956 43.2586 67.6784 44.5943 67.6784Z" fill="#CDCDDF"/>
<path id="Vector_24" d="M107.108 67.6784C108.444 67.6784 109.527 66.5956 109.527 65.2598C109.527 63.9241 108.444 62.8413 107.108 62.8413C105.772 62.8413 104.689 63.9241 104.689 65.2598C104.689 66.5956 105.772 67.6784 107.108 67.6784Z" fill="#CDCDDF"/>
<path id="Vector_25" d="M2.91854 88.5155C4.25426 88.5155 5.33708 87.4327 5.33708 86.097C5.33708 84.7613 4.25426 83.6785 2.91854 83.6785C1.58282 83.6785 0.5 84.7613 0.5 86.097C0.5 87.4327 1.58282 88.5155 2.91854 88.5155Z" fill="#CDCDDF"/>
<path id="Vector_26" d="M65.4322 88.5155C66.7679 88.5155 67.8507 87.4327 67.8507 86.097C67.8507 84.7613 66.7679 83.6785 65.4322 83.6785C64.0965 83.6785 63.0137 84.7613 63.0137 86.097C63.0137 87.4327 64.0965 88.5155 65.4322 88.5155Z" fill="#CDCDDF"/>
<path id="Vector_27" d="M23.7564 88.5155C25.0922 88.5155 26.175 87.4327 26.175 86.097C26.175 84.7613 25.0922 83.6785 23.7564 83.6785C22.4207 83.6785 21.3379 84.7613 21.3379 86.097C21.3379 87.4327 22.4207 88.5155 23.7564 88.5155Z" fill="#CDCDDF"/>
<path id="Vector_28" d="M86.2701 88.5155C87.6058 88.5155 88.6886 87.4327 88.6886 86.097C88.6886 84.7613 87.6058 83.6785 86.2701 83.6785C84.9344 83.6785 83.8516 84.7613 83.8516 86.097C83.8516 87.4327 84.9344 88.5155 86.2701 88.5155Z" fill="#CDCDDF"/>
<path id="Vector_29" d="M44.5943 88.5155C45.93 88.5155 47.0129 87.4327 47.0129 86.097C47.0129 84.7613 45.93 83.6785 44.5943 83.6785C43.2586 83.6785 42.1758 84.7613 42.1758 86.097C42.1758 87.4327 43.2586 88.5155 44.5943 88.5155Z" fill="#CDCDDF"/>
<path id="Vector_30" d="M107.108 88.5155C108.444 88.5155 109.527 87.4327 109.527 86.097C109.527 84.7613 108.444 83.6785 107.108 83.6785C105.772 83.6785 104.689 84.7613 104.689 86.097C104.689 87.4327 105.772 88.5155 107.108 88.5155Z" fill="#CDCDDF"/>
<path id="Vector_31" d="M2.91854 109.353C4.25426 109.353 5.33708 108.27 5.33708 106.934C5.33708 105.598 4.25426 104.516 2.91854 104.516C1.58282 104.516 0.5 105.598 0.5 106.934C0.5 108.27 1.58282 109.353 2.91854 109.353Z" fill="#CDCDDF"/>
<path id="Vector_32" d="M65.4322 109.353C66.7679 109.353 67.8507 108.27 67.8507 106.934C67.8507 105.598 66.7679 104.516 65.4322 104.516C64.0965 104.516 63.0137 105.598 63.0137 106.934C63.0137 108.27 64.0965 109.353 65.4322 109.353Z" fill="#CDCDDF"/>
<path id="Vector_33" d="M23.7564 109.353C25.0922 109.353 26.175 108.27 26.175 106.934C26.175 105.598 25.0922 104.516 23.7564 104.516C22.4207 104.516 21.3379 105.598 21.3379 106.934C21.3379 108.27 22.4207 109.353 23.7564 109.353Z" fill="#CDCDDF"/>
<path id="Vector_34" d="M86.2701 109.353C87.6058 109.353 88.6886 108.27 88.6886 106.934C88.6886 105.598 87.6058 104.516 86.2701 104.516C84.9344 104.516 83.8516 105.598 83.8516 106.934C83.8516 108.27 84.9344 109.353 86.2701 109.353Z" fill="#CDCDDF"/>
<path id="Vector_35" d="M44.5943 109.353C45.93 109.353 47.0129 108.27 47.0129 106.934C47.0129 105.598 45.93 104.516 44.5943 104.516C43.2586 104.516 42.1758 105.598 42.1758 106.934C42.1758 108.27 43.2586 109.353 44.5943 109.353Z" fill="#CDCDDF"/>
<path id="Vector_36" d="M107.108 109.353C108.444 109.353 109.527 108.27 109.527 106.934C109.527 105.598 108.444 104.516 107.108 104.516C105.772 104.516 104.689 105.598 104.689 106.934C104.689 108.27 105.772 109.353 107.108 109.353Z" fill="#CDCDDF"/>
</g>
<defs>
<clipPath id="clip0_2746_22105">
<rect width="110" height="110" fill="white" transform="translate(0.5 0.330078)"/>
</clipPath>
</defs>
</svg>
