<svg width="172" height="152" viewBox="0 0 172 152" fill="none" xmlns="http://www.w3.org/2000/svg">
<g id="Group 593">
<g id="Group 580">
<circle id="Ellipse 1" opacity="0.5" cx="93.4784" cy="75.3129" r="71.103" fill="#CDCDDF"/>
<path id="Rectangle 35" d="M104.525 58.5381L171.216 77.3588L164.261 151.414L84.4772 131.366L104.525 58.5381Z" fill="#03045E"/>
<path id="Vector 1" d="M170.807 76.9497L100.843 58.9473C97.4335 63.857 88.6505 76.5406 80.7949 87.9967C72.9393 99.4528 59.2465 113.5 53.3821 119.092L135.211 143.231C136.712 142.413 143.067 136.44 156.487 119.092C169.907 101.744 171.625 83.7688 170.807 76.9497Z" fill="#CDCDDF" stroke="#2D2E79" stroke-width="0.818293"/>
<circle id="Ellipse 2" cx="106.98" cy="78.1775" r="3.27317" fill="#03045E"/>
<circle id="Ellipse 3" cx="97.1607" cy="95.3611" r="3.27317" fill="#03045E"/>
<circle id="Ellipse 4" cx="87.3412" cy="110.909" r="3.27317" fill="#03045E"/>
<g id="Group 592">
<circle id="Ellipse 107" cx="41.2164" cy="41.0176" r="29.8586" transform="rotate(25.8347 41.2164 41.0176)" fill="#CDCDDF" stroke="#2D2E79" stroke-width="0.818293"/>
<rect id="Rectangle 37" width="16.3659" height="2.45488" transform="matrix(1 0 0 -1 31.806 49.6094)" fill="#03045E"/>
<circle id="Ellipse 108" cx="24.0323" cy="36.108" r="4.50061" fill="#03045E"/>
<circle id="Ellipse 109" cx="55.9457" cy="36.108" r="4.50061" fill="#03045E"/>
</g>
</g>
<rect id="Rectangle 38" x="105.524" y="98.1855" width="39.2781" height="1.63659" rx="0.818293" transform="rotate(15.5 105.524 98.1855)" fill="#03045E"/>
<rect id="Rectangle 39" x="96.957" y="114.769" width="35.5522" height="1.63659" rx="0.818293" transform="rotate(15.5 96.957 114.769)" fill="#03045E"/>
<rect id="Rectangle 40" x="116.306" y="80.6689" width="39.2781" height="1.63659" rx="0.818293" transform="rotate(14.5 116.306 80.6689)" fill="#03045E"/>
</g>
</svg>
