<svg width="18" height="21" viewBox="0 0 18 21" fill="none" xmlns="http://www.w3.org/2000/svg">
<g id="notes">
<path id="Vector 1204 (Stroke)" fill-rule="evenodd" clip-rule="evenodd" d="M13 0.25C13.4142 0.25 13.75 0.585786 13.75 1V4C13.75 4.41421 13.4142 4.75 13 4.75C12.5858 4.75 12.25 4.41421 12.25 4V1C12.25 0.585786 12.5858 0.25 13 0.25Z" fill="#03045E"/>
<path id="Vector 1205 (Stroke)" fill-rule="evenodd" clip-rule="evenodd" d="M5 0.25C5.41421 0.25 5.75 0.585786 5.75 1V4C5.75 4.41421 5.41421 4.75 5 4.75C4.58579 4.75 4.25 4.41421 4.25 4V1C4.25 0.585786 4.58579 0.25 5 0.25Z" fill="#03045E"/>
<path id="Rectangle 450" opacity="0.4" d="M0 6.5C0 4.29086 1.79086 2.5 4 2.5H14C16.2091 2.5 18 4.29086 18 6.5V17C18 19.2091 16.2091 21 14 21H4C1.79086 21 0 19.2091 0 17V6.5Z" fill="#03045E"/>
<g id="Vector">
<path fill-rule="evenodd" clip-rule="evenodd" d="M14.75 12C14.75 12.4142 14.4142 12.75 14 12.75H8C7.58579 12.75 7.25 12.4142 7.25 12C7.25 11.5858 7.58579 11.25 8 11.25H14C14.4142 11.25 14.75 11.5858 14.75 12Z" fill="#03045E"/>
<path fill-rule="evenodd" clip-rule="evenodd" d="M14.75 8C14.75 8.41421 14.4142 8.75 14 8.75H8C7.58579 8.75 7.25 8.41421 7.25 8C7.25 7.58579 7.58579 7.25 8 7.25H14C14.4142 7.25 14.75 7.58579 14.75 8Z" fill="#03045E"/>
<path fill-rule="evenodd" clip-rule="evenodd" d="M14.75 16C14.75 16.4142 14.4142 16.75 14 16.75H8C7.58579 16.75 7.25 16.4142 7.25 16C7.25 15.5858 7.58579 15.25 8 15.25H14C14.4142 15.25 14.75 15.5858 14.75 16Z" fill="#03045E"/>
</g>
<g id="Vector_2">
<path d="M5.5 8C5.5 8.55228 5.05228 9 4.5 9C3.94772 9 3.5 8.55228 3.5 8C3.5 7.44772 3.94772 7 4.5 7C5.05228 7 5.5 7.44772 5.5 8Z" fill="#03045E"/>
<path d="M5.5 12C5.5 12.5523 5.05228 13 4.5 13C3.94772 13 3.5 12.5523 3.5 12C3.5 11.4477 3.94772 11 4.5 11C5.05228 11 5.5 11.4477 5.5 12Z" fill="#03045E"/>
<path d="M5.5 16C5.5 16.5523 5.05228 17 4.5 17C3.94772 17 3.5 16.5523 3.5 16C3.5 15.4477 3.94772 15 4.5 15C5.05228 15 5.5 15.4477 5.5 16Z" fill="#03045E"/>
</g>
</g>
</svg>
