<svg width="16" height="16" viewBox="0 0 16 16" fill="none" xmlns="http://www.w3.org/2000/svg">
<g id="Huge-icon/notes and task/bulk/notes-edit-check">
<g id="notes edit check">
<path id="Vector 1233 (Stroke)" fill-rule="evenodd" clip-rule="evenodd" d="M5.33333 0.833496C5.60947 0.833496 5.83333 1.05735 5.83333 1.3335V3.3335C5.83333 3.60964 5.60947 3.8335 5.33333 3.8335C5.05719 3.8335 4.83333 3.60964 4.83333 3.3335V1.3335C4.83333 1.05735 5.05719 0.833496 5.33333 0.833496Z" fill="#4E5668"/>
<path id="Vector 1235 (Stroke)" fill-rule="evenodd" clip-rule="evenodd" d="M10.6667 0.833496C10.9428 0.833496 11.1667 1.05735 11.1667 1.3335V3.3335C11.1667 3.60964 10.9428 3.8335 10.6667 3.8335C10.3905 3.8335 10.1667 3.60964 10.1667 3.3335V1.3335C10.1667 1.05735 10.3905 0.833496 10.6667 0.833496Z" fill="#4E5668"/>
<path id="Rectangle 445" opacity="0.4" d="M2 5.00016C2 3.5274 3.19391 2.3335 4.66667 2.3335H11.3333C12.8061 2.3335 14 3.5274 14 5.00016V12.0002C14 13.4729 12.8061 14.6668 11.3333 14.6668H4.66667C3.19391 14.6668 2 13.4729 2 12.0002V5.00016Z" fill="#4E5668"/>
<path id="Rectangle 462" d="M12.7618 8.32682C13.1976 7.89106 13.9041 7.89106 14.3398 8.32682C14.7756 8.76259 14.7756 9.46911 14.3398 9.90487L10.9966 13.2481C10.9162 13.3285 10.8166 13.3871 10.7072 13.4183L9.24288 13.8357C8.99155 13.9074 8.75928 13.6751 8.83093 13.4238L9.24837 11.9595C9.27956 11.8501 9.33814 11.7505 9.41858 11.67L12.7618 8.32682Z" fill="#4E5668"/>
<path id="Vector 1265 (Stroke)" fill-rule="evenodd" clip-rule="evenodd" d="M10.3293 5.62372C10.5371 5.80556 10.5581 6.12144 10.3763 6.32926L8.46304 8.51585C8.05191 8.98571 7.34374 9.04863 6.85622 8.65861L5.68767 7.72377C5.47204 7.55127 5.43708 7.23662 5.60958 7.02099C5.78209 6.80536 6.09673 6.7704 6.31237 6.94291L7.48091 7.87774C7.55056 7.93346 7.65173 7.92447 7.71046 7.85735L9.62373 5.67075C9.80557 5.46294 10.1215 5.44188 10.3293 5.62372Z" fill="#4E5668"/>
</g>
</g>
</svg>
