<svg width="16" height="16" viewBox="0 0 16 16" fill="none" xmlns="http://www.w3.org/2000/svg">
<g id="Huge-icon/editor/bulk/post add">
<path id="Rectangle 1035" opacity="0.4" d="M14 12.0002V4.00016C14 2.5274 12.8061 1.3335 11.3333 1.3335H4.66667C3.19391 1.3335 2 2.5274 2 4.00016V12.0002C2 13.4729 3.19391 14.6668 4.66667 14.6668H11.3333C12.8061 14.6668 14 13.4729 14 12.0002Z" fill="#4E5668"/>
<path id="Vector 2654 (Stroke)" fill-rule="evenodd" clip-rule="evenodd" d="M4.83333 4.6665C4.83333 4.39036 5.05719 4.1665 5.33333 4.1665H7.99999C8.27614 4.1665 8.49999 4.39036 8.49999 4.6665C8.49999 4.94265 8.27614 5.1665 7.99999 5.1665H5.33333C5.05719 5.1665 4.83333 4.94265 4.83333 4.6665Z" fill="#4E5668"/>
<path id="Vector 2655 (Stroke)" fill-rule="evenodd" clip-rule="evenodd" d="M4.83333 8C4.83333 7.72386 5.05719 7.5 5.33333 7.5H10.6667C10.9428 7.5 11.1667 7.72386 11.1667 8C11.1667 8.27614 10.9428 8.5 10.6667 8.5H5.33333C5.05719 8.5 4.83333 8.27614 4.83333 8Z" fill="#4E5668"/>
<path id="Vector 2656 (Stroke)" fill-rule="evenodd" clip-rule="evenodd" d="M4.83333 11.3335C4.83333 11.0574 5.05719 10.8335 5.33333 10.8335H10.6667C10.9428 10.8335 11.1667 11.0574 11.1667 11.3335C11.1667 11.6096 10.9428 11.8335 10.6667 11.8335H5.33333C5.05719 11.8335 4.83333 11.6096 4.83333 11.3335Z" fill="#4E5668"/>
<path id="Vector (Stroke)" fill-rule="evenodd" clip-rule="evenodd" d="M12 0.833496C12.2761 0.833496 12.5 1.05735 12.5 1.3335V2.8335L14 2.8335C14.2761 2.8335 14.5 3.05735 14.5 3.3335C14.5 3.60964 14.2761 3.8335 14 3.8335H12.5V5.3335C12.5 5.60964 12.2761 5.8335 12 5.8335C11.7239 5.8335 11.5 5.60964 11.5 5.3335V3.8335L10 3.8335C9.72386 3.8335 9.5 3.60964 9.5 3.3335C9.5 3.05735 9.72386 2.8335 10 2.8335L11.5 2.8335V1.3335C11.5 1.05735 11.7239 0.833496 12 0.833496Z" fill="#4E5668"/>
</g>
</svg>
