<svg width="24" height="24" viewBox="0 0 24 24" fill="none" xmlns="http://www.w3.org/2000/svg">
<g id="Huge-icon/education/bulk/quiz">
<path id="Subtract" opacity="0.4" fill-rule="evenodd" clip-rule="evenodd" d="M6.82379 16.4991C7.73898 19.1208 10.2084 20.9991 13.1111 20.9991H17.1762H19.7778C21.0051 20.9991 22 19.9918 22 18.7491V15.3741C22 12.1603 20.0986 9.39606 17.3726 8.17188C17.4922 8.67787 17.5556 9.206 17.5556 9.74912C17.5556 13.477 14.5708 16.4991 10.8889 16.4991H6.82379Z" fill="#03045E"/>
<path id="Subtract_2" fill-rule="evenodd" clip-rule="evenodd" d="M9.77778 3H10.8889C14.0344 3 16.6711 5.20566 17.3726 8.17276C17.4922 8.67875 17.5556 9.20688 17.5556 9.75C17.5556 13.4779 14.5708 16.5 10.8889 16.5H6.82379H4.22222C2.99492 16.5 2 15.4926 2 14.25V10.875C2 6.52576 5.48223 3 9.77778 3ZM10 6.75C9.30964 6.75 8.75 7.30964 8.75 8C8.75 8.41421 8.41421 8.75 8 8.75C7.58579 8.75 7.25 8.41421 7.25 8C7.25 6.48122 8.48122 5.25 10 5.25C11.5188 5.25 12.75 6.48122 12.75 8C12.75 9.51878 11.5188 10.75 10 10.75C9.58579 10.75 9.25 10.4142 9.25 10C9.25 9.58579 9.58579 9.25 10 9.25C10.6904 9.25 11.25 8.69036 11.25 8C11.25 7.30964 10.6904 6.75 10 6.75ZM11 13C11 13.5523 10.5523 14 10 14C9.44772 14 9 13.5523 9 13C9 12.4477 9.44772 12 10 12C10.5523 12 11 12.4477 11 13Z" fill="#03045E"/>
</g>
</svg>
