<svg width="24" height="25" viewBox="0 0 24 25" fill="none" xmlns="http://www.w3.org/2000/svg">
<g id="Huge-icon/arrows/bulk/redo-circle">
<g id="redo circle">
<path id="Vector 455" opacity="0.4" d="M3 12.5C3 17.4706 7.02944 21.5 12 21.5C16.9706 21.5 21 17.4706 21 12.5C21 7.52944 16.9706 3.5 12 3.5C7.02944 3.5 3 7.52944 3 12.5Z" fill="#252525"/>
<path id="Ellipse 92 (Stroke)" fill-rule="evenodd" clip-rule="evenodd" d="M15.4649 7.25C15.8791 7.25 16.2149 7.58579 16.2149 8V10.5C16.2149 10.843 15.9822 11.1423 15.6498 11.2268L13.685 11.7268C13.2835 11.829 12.8753 11.5864 12.7732 11.185C12.671 10.7835 12.9136 10.3753 13.315 10.2732L14.1483 10.0611C13.5752 9.55579 12.8231 9.25 12 9.25C10.2051 9.25 8.75 10.7051 8.75 12.5C8.75 14.2949 10.2051 15.75 12 15.75C13.5133 15.75 14.7868 14.715 15.1477 13.3131C15.2509 12.9119 15.6598 12.6704 16.0609 12.7737C16.4621 12.8769 16.7036 13.2858 16.6003 13.6869C16.0731 15.7355 14.2143 17.25 12 17.25C9.37665 17.25 7.25 15.1234 7.25 12.5C7.25 9.87665 9.37665 7.75 12 7.75C13.0098 7.75 13.9457 8.06522 14.7149 8.60195V8C14.7149 7.58579 15.0507 7.25 15.4649 7.25Z" fill="#252525"/>
</g>
</g>
</svg>
