<svg width="16" height="17" viewBox="0 0 16 17" fill="none" xmlns="http://www.w3.org/2000/svg">
<g id="Huge-icon/interface/bulk/remove-circle">
<path id="Vector 281" opacity="0.4" d="M14.6666 8.58342C14.6666 12.2653 11.6819 15.2501 7.99998 15.2501C4.31808 15.2501 1.33331 12.2653 1.33331 8.58342C1.33331 4.90152 4.31808 1.91675 7.99998 1.91675C11.6819 1.91675 14.6666 4.90152 14.6666 8.58342Z" fill="#C92014"/>
<path id="Union" fill-rule="evenodd" clip-rule="evenodd" d="M9.53207 10.8225C9.72733 11.0178 10.0439 11.0178 10.2392 10.8225C10.4344 10.6273 10.4344 10.3107 10.2392 10.1154L8.70715 8.58341L10.2392 7.0514C10.4344 6.85613 10.4344 6.53955 10.2392 6.34429C10.0439 6.14903 9.72732 6.14903 9.53206 6.34429L8.00005 7.8763L6.46794 6.3442C6.27268 6.14894 5.9561 6.14894 5.76084 6.3442C5.56557 6.53946 5.56557 6.85604 5.76084 7.05131L7.29294 8.58341L5.76083 10.1155C5.56556 10.3108 5.56556 10.6274 5.76083 10.8226C5.95609 11.0179 6.27267 11.0179 6.46793 10.8226L8.00005 9.29052L9.53207 10.8225Z" fill="#C92014"/>
</g>
</svg>
