<svg width="110" height="110" viewBox="0 0 110 110" fill="none" xmlns="http://www.w3.org/2000/svg">
<g id="scribble final version-123">
<path id="Path" d="M55.3652 96.0208L55.2044 96.0091C55.2044 96.0091 55.1785 95.955 55.1052 96.0567L55.0208 96.0194C54.9429 95.9578 54.872 95.8875 54.8097 95.8101L54.3973 95.3424C54.2568 95.1879 54.0947 94.9883 53.9369 94.7978C53.7791 94.6072 53.8116 94.5362 53.7425 94.3919L53.6031 93.9154C53.4447 93.2373 53.3043 92.5506 53.1451 91.9172L52.9608 91.185L52.826 90.6952C52.4683 89.3724 52.0181 88.0764 51.4788 86.8167C51.092 85.8931 50.5609 85.0387 50.1109 84.1454C48.4564 80.9379 46.3984 77.9552 43.987 75.2699C42.9067 74.0523 41.7342 72.9197 40.4799 71.8823C38.8307 70.6245 37.25 69.2792 35.7449 67.8521C35.2877 67.3836 35.6797 66.952 36.4923 66.7735C37.5665 66.5468 38.6865 66.7252 39.6371 67.2744C40.1064 67.5597 40.5799 67.854 41.0351 68.1794L41.7339 68.643C41.9501 68.8167 42.1573 68.9947 42.3688 69.1817C43.2156 69.8849 44.0082 70.6141 44.826 71.4421C46.4067 73.0342 47.8355 74.77 49.0941 76.6272C50.6907 78.8568 52.1682 81.1693 53.5203 83.555C54.2123 84.9036 54.819 86.2943 55.3368 87.7189C55.5976 88.4255 55.8267 89.1585 56.038 89.8778L56.1987 90.4217L56.2483 90.6641L56.3426 91.1622L56.4657 91.8128C56.4797 91.8647 56.5032 91.9137 56.5348 91.9571C56.5348 91.9571 56.616 91.9183 56.6521 91.901C56.6882 91.8837 56.8325 91.8146 56.9227 91.7714L58.1087 90.9373C60.3906 89.3325 62.8297 87.9638 65.3885 86.8526C67.3433 85.9358 69.3592 85.1557 71.4219 84.5178C71.8803 84.387 72.3258 84.2291 72.8016 84.1343C74.5653 83.7887 75.1694 84.0316 75.6103 84.9292C75.7231 85.1299 75.8226 85.3378 75.9084 85.5515C76.1154 86.2617 75.4383 86.8853 74.336 87.2691C70.8782 88.2434 67.5174 89.5336 64.2959 91.1234C63.0876 91.7454 61.9141 92.4332 60.781 93.1835L59.9481 93.7597C59.4365 94.1267 58.8519 94.573 58.33 95.0113C58.0776 95.2428 57.8095 95.4565 57.5274 95.6507L57.1114 95.9164C56.9761 95.9812 56.8679 96.033 56.7416 96.0935C56.6281 96.1399 56.5039 96.1533 56.3831 96.1321L56.0568 96.1221L55.3911 96.075L55.3652 96.0208Z" fill="#CDCDDF"/>
<path id="Path_2" d="M42.2853 68.3572C46.2501 72.3024 49.5552 76.8591 52.0742 81.853C52.9921 83.6309 53.9731 85.3786 54.7306 87.1225C55.4107 88.6817 56.0548 90.2582 56.7065 91.6424L56.9614 92.1745C57.0144 92.3079 57.0765 92.4375 57.1471 92.5624C57.2737 92.8398 57.5673 93.0012 57.8694 92.9594C58.1583 92.8544 58.4362 92.7213 58.6991 92.562L60.8417 91.2478C62.2752 90.3285 63.7354 89.4185 65.2263 88.5494C67.8729 86.9313 70.6196 85.4827 73.4497 84.2124C75.3458 83.3659 77.3479 82.7802 79.4013 82.4711C80.4774 82.3612 81.5628 82.3812 82.6341 82.5307C83.7258 82.714 84.7707 83.1102 85.7094 83.6969C86.8774 84.4458 86.3141 84.9596 85.1588 85.5571C84.425 85.9423 83.7182 86.3771 83.0434 86.8584C82.6712 87.0751 82.2821 87.2614 81.8799 87.4155C81.4872 87.5919 81.079 87.7317 80.6607 87.8331C80.2838 87.9027 79.9104 88.026 79.5241 88.1223C79.1378 88.2186 78.7472 88.3059 78.3566 88.3931C77.549 88.6145 76.7533 88.8771 75.9726 89.1799C74.3266 89.8175 72.7203 90.5533 71.1625 91.3835C69.5513 92.2327 67.9522 93.1537 66.3343 94.128L61.038 97.3073C60.2305 97.8611 59.3421 98.2866 58.4044 98.5684C58.1871 98.6176 57.9669 98.6527 57.7451 98.6735L57.5706 98.6794C57.5446 98.6253 57.5706 98.6794 57.5706 98.6794L57.4984 98.714L57.154 98.7126C56.9178 98.7116 56.6831 98.6744 56.4581 98.6023C56.231 98.5448 56.0117 98.4599 55.805 98.3496C54.9424 97.9447 54.2007 97.3215 53.6531 96.5417C53.3406 96.1561 53.0618 95.7443 52.8198 95.3109C52.6799 95.1061 52.5521 94.8934 52.437 94.6737L52.2038 94.1867C51.013 91.8853 50.0745 89.7402 49.0596 87.6207C46.9824 83.0033 44.2473 78.7111 40.9396 74.8779C38.8837 72.5633 36.5653 70.4958 34.0313 68.7174C33.6511 68.4559 33.2756 68.1812 32.8727 67.9417L32.2798 67.5604C31.9656 67.3671 31.6646 67.1786 31.35 67.0078C29.9486 66.304 28.6052 65.6057 27.3011 64.9662L25.1933 63.4587L23.9643 62.3509C23.9038 62.2246 23.7069 62.2302 23.7155 61.9933C23.7619 61.8077 23.8439 61.6329 23.9568 61.4786C24.1684 61.1842 24.4099 60.9125 24.6773 60.6678C25.2465 60.1365 25.881 59.6799 26.5657 59.309C27.6199 58.7411 28.7387 58.3021 29.8978 58.0016C31.1677 57.6385 32.4568 57.3469 33.7593 57.1282L34.7995 56.9849L35.0638 56.9581L35.2521 56.9345L35.6372 56.9053C36.1526 56.847 36.7033 56.8161 37.1908 56.8155C38.2382 56.8053 39.285 56.871 40.3229 57.012C41.2548 57.1235 42.175 57.3173 43.0727 57.5912C43.7845 57.8069 44.4709 58.0991 45.1198 58.4625C45.558 58.7341 45.943 59.0832 46.2562 59.4927C46.495 59.7945 46.6632 60.1458 46.7486 60.5209C46.7839 60.8965 46.7714 61.275 46.7115 61.6474C46.6893 61.9557 46.6512 62.2626 46.5974 62.5669C46.4154 63.2749 44.6015 63.6779 42.7444 63.2034C41.3855 62.776 39.9858 62.4913 38.5679 62.3539C37.8615 62.277 37.1508 62.2469 36.4404 62.264C36.0827 62.2579 35.7246 62.2741 35.3484 62.299L35.2096 62.3101L35.1014 62.3619C34.9865 62.5388 35.1921 62.5513 35.1877 62.5423C35.1877 62.5423 35.1618 62.4882 35.2894 62.6156L35.9885 63.0569C36.4535 63.3332 36.8949 63.6762 37.3414 63.9835C39.1467 65.2582 40.8568 66.6627 42.4582 68.1857L42.2853 68.3572Z" fill="#CDCDDF"/>
<path id="Path_3" d="M62.2658 52.5467C61.9283 52.1429 61.6084 51.7528 61.285 51.3089L60.8082 50.6836L60.4368 50.1629L59.4685 48.7195C58.8408 47.7561 58.2403 46.7798 57.6487 45.7991C57.0571 44.8184 56.5059 43.8295 55.9591 42.8495L55.5378 42.1088C55.4601 41.9465 55.4601 41.9465 55.4471 41.9194L55.4039 41.8292L55.2312 41.4684C55.0325 41.0536 54.8387 40.8803 54.6364 40.4117C54.5198 40.1682 54.3903 39.8976 54.2477 39.5999C54.1844 39.4456 54.1123 39.2951 54.0318 39.149C53.9972 39.0768 53.8909 39.0169 53.8678 39.0612C53.8447 39.1055 53.8137 39.0871 53.8125 39.1542C53.6835 39.5182 53.6004 39.897 53.5652 40.2816C53.5054 40.6429 53.4577 41.0759 53.4179 41.5717L53.3642 42.3625L53.3063 44.1864L53.0853 51.8982C53.0651 53.5686 52.9455 55.2364 52.7273 56.8926C52.5925 57.7345 52.402 58.5665 52.157 59.3832C51.8918 60.2485 51.5169 61.0764 51.0415 61.8466C50.416 62.8557 49.5394 62.067 48.8352 60.8741C48.6748 60.5816 48.5307 60.2805 48.4033 59.9722C48.237 59.6325 48.098 59.2802 47.9874 58.9185C47.755 58.1821 47.6963 57.4018 47.816 56.6389C48.2056 53.5572 48.4346 50.4572 48.5022 47.3517C48.5694 45.686 48.6212 44.0424 48.6578 42.4209C48.6755 40.8602 48.6657 39.3348 48.7039 37.8863C48.742 36.4377 48.7844 34.9982 48.9529 33.7755L49.036 32.8377L49.1193 32.4097C49.1503 32.2977 49.1957 32.1902 49.2545 32.09L49.5064 31.4815L49.7496 30.855C49.8327 30.7043 49.9331 30.5897 50.0071 30.4434C50.1624 30.1789 50.3325 29.9235 50.5167 29.6783L50.7683 29.3471C50.8711 29.1781 51.0433 29.0632 51.2388 29.0331C51.583 29.0308 51.9215 29.1216 52.2184 29.2958C52.5161 29.4453 52.8059 29.6099 53.0866 29.7892C53.9477 30.3607 54.6812 31.1042 55.241 31.9729C56.1748 33.3441 57.0939 35.0549 58.0109 36.6226L60.3184 40.5846C61.4223 42.4731 62.5716 44.3176 63.7982 46.0918L65.0601 47.8935C65.3616 48.3146 65.6815 48.7047 66.0625 49.1764C66.2862 49.4351 66.5233 49.6986 66.774 49.9444C67.0248 50.1902 67.192 50.3541 67.4121 50.5591C67.4292 50.5889 67.4618 50.6063 67.496 50.604C67.5303 50.6017 67.5602 50.5802 67.5733 50.5485L67.6211 50.3704C67.6367 50.2409 67.6566 50.1205 67.6632 49.9954L67.7845 48.3962C67.8207 47.8466 67.8666 47.2481 67.9389 46.6813L68.0967 45.2974L68.3297 43.7001C68.725 40.3124 69.6539 37.0087 71.0819 33.9114C71.4116 33.2058 71.794 32.526 72.2258 31.8779C72.7778 30.9585 73.562 30.2006 74.4997 29.6803C75.1387 29.4184 75.8652 29.4842 76.4468 29.8566C76.7593 29.9955 77.0601 30.1592 77.3465 30.346C78.2113 31.0407 77.9703 32.3202 77.145 33.7688C75.9066 35.9407 74.9502 38.2616 74.2988 40.6754C73.9554 41.94 73.6812 43.2225 73.4774 44.5169C73.3722 45.1771 73.2847 45.851 73.2061 46.5206L73.1425 47.1055L73.0603 48.2536C72.9983 49.0039 72.963 49.7637 72.932 50.5325C72.9355 52.1522 72.7851 53.7686 72.4829 55.3599C72.3491 55.8532 72.1176 56.3147 71.8022 56.717C71.593 57.0021 71.3361 57.2489 71.0428 57.4465C70.758 57.6213 70.4557 57.766 70.1409 57.8784C69.9615 57.9403 69.7784 57.9909 69.5927 58.0301C69.4244 58.062 69.2533 58.077 69.082 58.075C68.1051 58.1156 67.15 57.779 66.4144 57.135C64.8513 55.7819 63.4015 54.3031 62.0796 52.7135L62.2658 52.5467Z" fill="#CDCDDF"/>
<path id="Path_4" d="M80.2334 63.0466C80.099 61.7472 80.0093 60.4486 79.915 59.1633C79.8206 57.878 79.7803 56.5668 79.6589 55.2944C79.5898 54.3629 79.3862 53.4515 79.3665 52.5074C79.2433 49.2401 79.2374 45.9167 79.1412 42.6366C79.1123 41.1869 78.9715 39.7353 78.8387 38.3465C78.5547 36.5 78.5716 34.6197 78.8889 32.7787C79.0106 32.1993 79.6005 32.2273 80.3087 32.6643C81.1883 33.1924 81.8645 34.0011 82.2286 34.9602L82.6031 36.3442C82.6845 36.7862 82.7426 37.2321 82.7771 37.6801C82.8866 38.6034 82.9647 39.5306 83.0068 40.475C83.154 42.3337 83.2475 44.196 83.2241 46.0921C83.2526 47.2342 83.3677 48.3726 83.5686 49.4973C83.7551 50.6276 83.9682 51.7673 84.0962 52.9145L84.6005 56.6534L85.1542 60.3798C85.428 61.9007 85.6743 63.457 85.9531 64.9422C86.3409 67.2343 86.9004 69.494 87.6269 71.7023C87.9599 72.525 88.3436 73.3262 88.7758 74.1014C89.2099 74.8692 89.6492 75.6013 90.0567 76.3596C90.2208 76.7024 90.4438 77.0059 90.6263 77.3176C91.3129 78.4967 91.0696 79.1232 90.146 80.0423C89.9233 80.2487 89.7269 80.4869 89.4956 80.6753C88.7514 81.2977 87.7335 81.1864 86.7773 80.3471C86.4519 80.0151 86.1266 79.683 85.815 79.3333C85.5034 78.9836 85.2636 78.6217 84.988 78.2547C84.7125 77.8877 84.4641 77.5077 84.2113 77.1187C83.9459 76.7443 83.7175 76.3449 83.5294 75.9263C82.7825 74.2864 82.1698 72.5886 81.6971 70.8497C81.3239 69.5759 81.0161 68.2838 80.7747 66.9785C80.4881 65.6854 80.2686 64.3935 80.1075 63.0847L80.2334 63.0466Z" fill="#CDCDDF"/>
<path id="Path_5" d="M19.8667 45.8078C20.2062 46.1969 20.4783 46.64 20.6718 47.1187C20.8984 47.5839 21.0312 48.0893 21.0624 48.6058C21.1023 49.1077 21.0952 49.6122 21.0412 50.1128C20.953 50.6118 20.8158 51.1008 20.6317 51.5729C20.5185 51.9154 20.3563 52.248 20.234 52.5948C20.0642 52.9269 19.8735 53.2478 19.663 53.5557C17.8328 55.7738 14.8215 56.6287 12.0987 55.7034L11.1972 55.3257C10.9052 55.1872 10.6225 55.03 10.3509 54.855C9.84235 54.477 9.40762 54.0087 9.06841 53.4734C8.83692 53.1284 8.65653 52.7517 8.53285 52.355C8.43277 51.9494 8.39317 51.5313 8.41536 51.1141C8.46464 50.7394 8.55186 50.3708 8.67566 50.0137C8.82919 49.6977 9.0237 49.4032 9.25416 49.138C9.55053 48.8076 10.2042 49.2929 10.8427 49.8852C11.1731 50.1816 11.4945 50.4823 11.7495 50.7371C12.0046 50.9919 12.2796 51.1263 12.2734 51.2291C12.2672 51.3318 12.3837 51.3204 12.3468 51.3824C12.31 51.4444 12.41 51.3522 12.428 51.3435C12.446 51.3349 12.428 51.3435 12.4731 51.3219C12.4894 51.3352 12.4989 51.355 12.499 51.376C12.4838 51.4831 12.551 51.7392 13.0069 52.0198C13.2362 52.1646 13.5249 52.178 13.7667 52.0552C13.9564 51.9289 14.1314 51.7819 14.2885 51.6168C14.8471 51.212 15.1577 50.5478 15.1102 49.8596C15.0213 49.436 14.7244 49.0859 14.3209 48.9292C13.6286 48.6055 12.8172 48.6698 12.1845 49.0985C11.7242 49.5053 11.489 50.1094 11.553 50.7203C11.5697 50.8225 11.5784 50.9258 11.5791 51.0294C11.5583 51.1372 11.5051 51.2362 11.4266 51.313C11.3098 51.3916 11.1822 51.4527 11.0478 51.4944C10.6713 51.6198 10.2782 51.6885 9.88142 51.6982C9.63511 51.7163 9.41077 51.7572 9.1825 51.7668C8.82069 51.7918 8.46157 51.6891 8.16765 51.4766C7.82025 51.2318 7.55987 50.8827 7.42427 50.4799L7.33929 49.9552C7.3337 49.7583 7.35987 49.5351 7.36801 49.3205C7.39028 48.8692 7.49329 48.4256 7.67213 48.0107C7.84087 47.5759 8.04861 47.1573 8.29281 46.76C8.56028 46.3732 8.85503 46.0061 9.17479 45.6613C9.82961 44.9973 10.6093 44.4695 11.469 44.1081C12.2697 43.7806 13.1167 43.5807 13.9794 43.5158C14.5732 43.4634 15.1714 43.4901 15.7582 43.5953C16.0264 43.6747 16.2985 43.7405 16.5733 43.7926C16.8516 43.8265 17.1232 43.902 17.3791 44.0166C18.3688 44.402 19.2579 45.0075 19.9789 45.7874L19.8667 45.8078Z" fill="#CDCDDF"/>
<path id="Path_6" d="M49.4611 19.7397C49.6129 20.223 49.7035 20.7234 49.731 21.2292C49.7158 21.7294 49.6367 22.2256 49.4956 22.7057C49.2159 23.6468 48.7723 24.531 48.1852 25.3178C47.7533 25.899 47.2003 26.3795 46.5644 26.726C44.1901 27.996 40.9737 26.1878 40.1083 24.4734C39.8565 24.0519 39.6439 23.6081 39.4734 23.1476C39.2792 22.6639 39.1963 22.1427 39.2311 21.6227C39.203 20.9328 39.3981 20.2522 39.7875 19.682C40.1416 19.1822 40.6536 18.816 41.241 18.6423C41.5916 18.5409 41.837 19.0998 42.0405 19.7562C42.244 20.4127 42.495 21.1685 42.5367 21.3481C42.5316 21.4085 42.5528 21.4681 42.5949 21.5117C42.637 21.5552 42.6959 21.5785 42.7564 21.5755C42.8465 21.571 42.9351 21.5995 43.0056 21.6557C43.1301 21.7588 43.2492 21.8684 43.3623 21.9839C43.4054 22.0741 43.4573 22.1823 43.5048 22.2815C43.5523 22.3807 43.5198 22.4517 43.5583 22.5553C43.6054 22.7536 43.7825 22.8935 43.9863 22.8935C44.173 22.8883 44.3571 22.849 44.5295 22.7776C45.0066 22.5799 45.3497 22.1522 45.439 21.6436C45.4911 21.2717 45.3426 20.8999 45.0486 20.6663C44.5417 20.1869 43.8034 20.0436 43.1539 20.2986C42.9014 20.4195 42.7097 20.6443 42.7561 20.8106C42.7561 20.8106 42.7561 20.8106 42.782 20.8647C42.782 20.8647 42.8079 20.9188 42.782 20.8647C42.74 20.8389 42.7001 20.8098 42.6627 20.7777C42.6627 20.7777 42.6627 20.7777 42.8455 20.8121C43.0283 20.8466 43.0463 20.8379 43.1495 20.8218L43.2883 20.8107C43.1796 20.9471 43.0576 21.0724 42.9241 21.1847C42.6022 21.4386 42.258 21.6922 41.8416 21.9803L41.3295 22.3696C41.0435 22.5593 40.7101 22.6651 40.3671 22.6753C40.1242 22.6942 39.8801 22.6885 39.6383 22.6584C39.33 22.6397 39.2123 22.4633 39.0137 22.3033C38.722 22.0219 38.4944 21.6808 38.3464 21.3035C38.1848 20.8216 38.1145 20.3137 38.1394 19.806C38.2453 18.6463 38.8369 17.5856 39.7681 16.8862C40.4688 16.3471 41.2926 15.9907 42.1653 15.8492C42.5191 15.7914 42.8772 15.7646 43.2357 15.769C43.6042 15.7673 43.9715 15.8111 44.3293 15.8995C46.7291 16.2803 48.8432 17.6851 49.4796 19.7087L49.4611 19.7397Z" fill="#CDCDDF"/>
<path id="Path_7" d="M79.4781 17.3844C79.0827 18.3253 78.4283 19.1347 77.591 19.7183L77.2428 19.9405C77.1572 19.9926 77.0665 20.036 76.9722 20.07C76.8099 20.1478 76.6656 20.2169 76.4672 20.3119C76.0254 20.4723 75.5653 20.5771 75.0976 20.624C74.9051 20.6386 74.6901 20.6528 74.4442 20.6486C74.1965 20.6492 73.9494 20.6224 73.7075 20.569C72.4738 20.3313 71.512 19.3615 71.2847 18.1258C71.1915 17.6905 71.1645 17.2438 71.2044 16.8005C71.2704 16.1134 71.4018 15.4341 71.5968 14.772C71.7492 14.2334 71.8207 13.7113 71.9373 13.1676C71.9523 12.3899 72.2984 11.6554 72.8886 11.1487C73.156 10.9431 73.6705 11.4617 74.2348 11.9455C74.7991 12.4292 75.4672 12.8521 75.4991 13.0808C75.6193 14.0005 75.5624 14.9348 75.3314 15.8331C75.2378 16.0776 75.3101 16.298 75.3768 16.3215C75.3768 16.3215 75.4435 16.345 75.3768 16.3215L75.0972 16.4553C74.9499 16.5413 74.813 16.644 74.6894 16.7615C74.5913 16.8322 74.5102 16.9241 74.4522 17.0303C74.4994 16.8097 74.4926 16.5809 74.4323 16.3635C74.4003 16.2183 74.3579 16.0755 74.3054 15.9364L74.3775 15.9019L74.5128 15.8371C74.3079 15.525 74.7962 16.2668 74.7483 16.19L74.7699 16.2351C74.7699 16.2351 74.7483 16.19 74.7354 16.1629C74.6785 16.1218 74.624 16.0776 74.5721 16.0304C74.751 15.8722 74.8673 15.6553 74.9001 15.4188C75.014 14.9658 74.9329 14.4859 74.6767 14.0955C74.6422 14.0233 74.5657 14.0489 74.512 14.0524C74.4582 14.056 74.4669 14.074 74.4398 14.087C74.4699 14.0516 74.496 14.013 74.5178 13.972C74.6467 13.755 74.5753 13.7449 74.5899 13.9375L74.6461 14.0547C74.6559 14.1434 74.6754 14.2307 74.7043 14.3151C75.0368 15.0096 74.4586 14.0336 73.7753 13.1856L73.28 12.5912C73.0147 12.2846 72.8221 11.922 72.7166 11.5305C72.6516 11.3089 72.6164 11.0797 72.612 10.8488C72.5999 10.642 72.6639 10.4379 72.7917 10.2749C72.9945 10.0163 73.2422 9.79629 73.5229 9.62539C73.6701 9.51997 73.8258 9.42688 73.9884 9.34707C74.1892 9.26855 74.395 9.20333 74.6045 9.15183C75.0436 9.03661 75.504 9.02912 75.9467 9.12999C76.4057 9.19337 76.8499 9.33722 77.2589 9.55492C78.4982 10.2441 79.4133 11.3971 79.8029 12.7606C80.2627 14.282 80.2097 15.9123 79.6522 17.4007L79.4781 17.3844Z" fill="#CDCDDF"/>
</g>
</svg>
