<svg width="79" height="78" viewBox="0 0 79 78" fill="none" xmlns="http://www.w3.org/2000/svg">
<g id="scribble final version-135">
<path id="Path" d="M36.9084 6.61C35.1984 6.69 33.4884 6.78 31.7784 6.92C31.1584 6.92 30.5584 7.18 29.9284 7.22C28.8284 7.3 27.7184 7.35 26.5984 7.36C25.4784 7.37 24.3684 7.44 23.2584 7.52C22.2802 7.61108 21.3106 7.77826 20.3584 8.02C19.758 8.2141 19.1372 8.33825 18.5084 8.39C17.8362 8.41689 17.1635 8.35298 16.5084 8.2C16.0784 8.09 16.0484 7.45 16.2384 6.66C16.431 5.80357 16.8895 5.03 17.5484 4.45C17.8241 4.26236 18.1191 4.10479 18.4284 3.98L19.3484 3.74C19.9684 3.59 20.5884 3.45 21.2184 3.34C22.4911 3.10187 23.7836 2.98468 25.0784 2.99C25.8673 2.9709 26.6518 2.86697 27.4184 2.68C28.1884 2.53 28.9684 2.35 29.7584 2.25C31.4884 2.02 33.2284 1.85 34.9684 1.68C36.0284 1.57 37.1084 1.49 38.1784 1.37C39.7984 1.19 41.4384 1.1 43.0384 0.81C43.6584 0.72 44.2684 0.48 44.8884 0.37C45.5092 0.238464 46.1368 0.141647 46.7684 0.08C47.0468 0.0385751 47.3272 0.0118713 47.6084 0C47.8418 0.00279959 48.0738 0.0364239 48.2984 0.1C48.4789 0.185124 48.6392 0.307868 48.7684 0.46C49.0162 0.746196 49.1881 1.09005 49.2684 1.46C49.2684 1.65 49.3884 1.84 49.4184 2.01C49.4582 2.32546 49.3837 2.64475 49.2084 2.91C49.0041 3.28327 48.7407 3.62097 48.4284 3.91L46.9084 4.76L45.3584 5.6C45.1062 5.73111 44.8313 5.81258 44.5484 5.84L43.7284 5.99C43.1784 6.08 42.6184 6.16 42.0584 6.22C40.3884 6.44 38.6784 6.55 36.9684 6.74L36.9084 6.61Z" fill="#CDCDDF"/>
<path id="Path_2" d="M40.429 14.15C37.579 14.46 34.719 14.78 31.879 15.15C30.879 15.28 29.879 15.55 28.789 15.67C25.119 16.1 21.449 16.5 17.789 17C16.169 17.2 14.559 17.54 12.979 17.89C10.9713 18.4919 8.90102 18.861 6.80899 18.99C6.14899 18.99 6.03899 17.99 6.37899 16.99C6.69437 15.8237 7.54962 14.8792 8.67899 14.45C12.8077 13.2439 17.0566 12.4961 21.349 12.22C23.939 12.07 26.539 11.36 29.139 10.95C31.999 10.51 34.879 10.12 37.749 9.72001L43.039 8.98001C45.709 8.58001 48.399 8.26001 51.039 7.73001C53.039 7.31001 55.039 6.62001 57.039 6.04001C57.479 5.91001 57.899 5.74001 58.349 5.64001C59.999 5.26001 60.589 5.50001 61.169 6.79001C61.3174 7.07482 61.4477 7.36874 61.559 7.67001C61.7102 8.18192 61.6505 8.73302 61.3932 9.20068C61.1359 9.66834 60.7023 10.0137 60.189 10.16C56.6123 11.5467 52.8824 12.5001 49.079 13C46.239 13.46 43.359 13.81 40.499 14.23L40.429 14.15Z" fill="#CDCDDF"/>
<path id="Path_3" d="M45.0992 28.06C41.3692 28.59 37.6292 29.13 33.9092 29.71C32.5492 29.92 31.2192 30.28 29.9092 30.48C25.1092 31.18 20.2992 31.85 15.4992 32.6C13.3692 32.92 11.2592 33.37 9.1792 33.85C6.53729 34.6101 3.82798 35.1124 1.0892 35.35C0.219201 35.35 0.0892012 34.35 0.609201 33.2C1.17236 31.834 2.31088 30.787 3.7192 30.34C9.13771 28.8172 14.6787 27.7699 20.2792 27.21C23.6692 26.9 27.0592 25.96 30.4692 25.35C34.1592 24.68 37.9092 24.06 41.6592 23.45L48.5892 22.29C52.0792 21.68 55.5892 21.15 59.0392 20.41C61.7092 19.83 64.2792 18.96 66.8992 18.22C67.4792 18.06 68.0292 17.85 68.6192 17.71C70.7992 17.22 71.6192 17.47 72.2892 18.85C72.469 19.1563 72.6293 19.4736 72.7692 19.8C73.1692 20.9 72.4292 21.98 70.8992 22.58C66.1758 24.2599 61.309 25.505 56.3592 26.3C52.6392 26.99 48.8692 27.56 45.1292 28.21L45.0992 28.06Z" fill="#CDCDDF"/>
<path id="Path_4" d="M46.8085 21.6501C43.7285 22.0301 40.6485 22.4001 37.5785 22.8301C36.4485 22.9801 35.3585 23.2801 34.2385 23.4201C30.2385 23.9201 26.3185 24.4201 22.3685 24.9301C20.6085 25.1601 18.8685 25.5201 17.1585 25.9301C14.99 26.5732 12.7558 26.9691 10.4985 27.1101C9.77846 27.1101 9.66846 26.1101 10.0485 25.0401C10.4225 23.8161 11.3532 22.8409 12.5585 22.4101C17.0149 21.1216 21.5925 20.2972 26.2185 19.9501C29.0085 19.7701 31.8085 19.0001 34.6085 18.5401C37.6985 18.0301 40.7885 17.5401 43.8885 17.1101L49.5985 16.2401C52.4685 15.7801 55.3785 15.3901 58.2085 14.7901C60.4085 14.3301 62.5085 13.5801 64.6585 12.9501C65.1285 12.8101 65.5885 12.6201 66.0685 12.5101C67.8585 12.1001 68.4885 12.3501 69.0685 13.6901C69.2085 13.9901 69.3785 14.2901 69.4885 14.6001C69.6387 15.1451 69.566 15.7275 69.2865 16.2189C69.0071 16.7104 68.5437 17.0705 67.9985 17.2201C64.1273 18.702 60.1021 19.7452 55.9985 20.3301C52.9285 20.8701 49.8285 21.3301 46.7385 21.7701L46.8085 21.6501Z" fill="#CDCDDF"/>
<path id="Path_5" d="M38.1589 45.7398C35.1589 46.1798 32.0689 46.6198 29.0389 47.1098C27.9289 47.2798 26.8489 47.5898 25.7389 47.7598L13.9889 49.4498C12.2589 49.7098 10.5289 50.0798 8.83886 50.4498C6.68625 51.093 4.46973 51.4988 2.22886 51.6598C1.51886 51.6598 1.42886 50.7798 1.81886 49.7698C2.23119 48.6065 3.15747 47.6987 4.32886 47.3098C8.73664 46.0675 13.2487 45.2307 17.8089 44.8098C20.5689 44.5598 23.3289 43.8098 26.0989 43.2598C29.1489 42.6898 32.1989 42.1798 35.2589 41.6498L40.8989 40.6498C43.7389 40.1398 46.6089 39.6498 49.4089 39.0698C51.5889 38.5798 53.6689 37.8398 55.8089 37.2198C56.2789 37.0798 56.7289 36.8998 57.2089 36.7898C58.9889 36.3798 59.6189 36.5998 60.2089 37.7898C60.3603 38.0608 60.4939 38.3414 60.6089 38.6298C60.9489 39.6298 60.3689 40.5398 59.1189 41.0498C55.2988 42.4973 51.3468 43.569 47.3189 44.2498C44.3189 44.8298 41.2289 45.3098 38.1789 45.8498L38.1589 45.7398Z" fill="#CDCDDF"/>
<path id="Path_6" d="M48.1394 38.0199C44.1394 38.6099 40.1394 39.2099 36.1394 39.8499C34.6693 40.0899 33.2394 40.4699 31.7794 40.6899C26.6094 41.4499 21.4394 42.2299 16.2894 43.0499C14.0094 43.3999 11.7294 43.8899 9.49935 44.3999C6.65171 45.1928 3.74088 45.7382 0.799352 46.0299C-0.130648 46.0799 -0.200648 45.0999 0.339352 43.9699C1.02733 42.5968 2.25539 41.5716 3.72935 41.1399C9.56475 39.5433 15.5163 38.4065 21.5294 37.7399C25.1694 37.3699 28.8194 36.3899 32.5294 35.7399L44.6094 33.6499L52.0494 32.3799C55.7994 31.7099 59.5793 31.1099 63.2794 30.3799C66.1593 29.7599 68.9193 28.8599 71.7393 28.0999C72.3693 27.9299 72.9594 27.7199 73.5993 27.5699C75.9393 27.0499 76.7594 27.2699 77.4994 28.5699C77.6551 28.854 77.7921 29.1479 77.9094 29.4499C78.3194 30.4999 77.5094 31.5599 75.8493 32.1599C70.7479 33.8849 65.5137 35.1892 60.1994 36.0599C56.1994 36.8099 52.1994 37.4499 48.1294 38.1599L48.1394 38.0199Z" fill="#CDCDDF"/>
<path id="Path_7" d="M49.5781 49.0899C45.7681 49.6599 41.9481 50.2299 38.1481 50.8399C36.7581 51.0599 35.3981 51.4199 34.0081 51.6299L19.3081 53.8799C17.1381 54.2099 14.9781 54.6799 12.8581 55.1599C10.1508 55.9141 7.38409 56.436 4.58809 56.7199C3.69809 56.7199 3.58809 55.8199 4.14809 54.7199C4.79654 53.4071 5.9638 52.4247 7.36809 52.0099C12.9153 50.494 18.5725 49.4141 24.2881 48.7799C27.7381 48.4299 31.2081 47.4899 34.6881 46.8599L46.1681 44.8599L53.2381 43.6599C56.7981 43.0399 60.3981 42.4499 63.9081 41.7399C66.6381 41.1499 69.2681 40.2999 71.9081 39.5799C72.4981 39.4199 73.0681 39.2099 73.6681 39.0699C75.8981 38.5799 76.6681 38.7899 77.3781 40.0699C77.5532 40.3479 77.7135 40.6349 77.8581 40.9299C78.2481 41.9299 77.4781 42.9299 75.8581 43.5299C71.0107 45.1693 66.0375 46.41 60.9881 47.2399C57.1781 47.9499 53.3381 48.5499 49.5081 49.2399L49.5781 49.0899Z" fill="#CDCDDF"/>
<path id="Path_8" d="M51.1591 61.4498C47.9191 61.9598 44.6691 62.4498 41.4391 63.0298C40.2591 63.2298 39.1091 63.5798 37.9291 63.7698L25.3991 65.7698C23.5391 66.0598 21.7091 66.4798 19.8991 66.9198C17.6039 67.6318 15.2355 68.0813 12.8391 68.2598C12.0791 68.2598 11.9791 67.2598 12.3791 66.1998C12.7886 64.922 13.7674 63.9063 15.0291 63.4498C19.7206 62.0648 24.5263 61.101 29.3891 60.5698C32.3891 60.2798 35.2691 59.3798 38.2191 58.7898C41.4691 58.1498 44.7291 57.5598 47.9891 56.9498L53.9891 55.8498C56.9891 55.2598 60.0891 54.7698 63.0791 54.0798C65.4091 53.5498 67.6291 52.7298 69.9091 52.0798C70.4091 51.9298 70.9091 51.7298 71.4091 51.6098C73.3091 51.1698 73.9791 51.4098 74.6291 52.7498C74.7938 53.0441 74.9407 53.3479 75.0691 53.6598C75.4291 54.7198 74.8091 55.7498 73.4791 56.2998C69.4089 57.8417 65.1994 58.987 60.9091 59.7198C57.6891 60.3698 54.4191 60.8998 51.1791 61.5198L51.1591 61.4498Z" fill="#CDCDDF"/>
<path id="Path_9" d="M44.7498 57.2398L35.6598 58.7998C34.5598 58.9998 33.4798 59.3098 32.3698 59.4998L20.6698 61.4498C18.9298 61.7398 17.2098 62.1298 15.5198 62.5298C13.3643 63.1708 11.1498 63.5929 8.90976 63.7898C8.20976 63.7898 8.12976 62.9998 8.52976 62.0698C8.99792 60.9713 9.92173 60.1315 11.0598 59.7698C15.4604 58.5075 19.9546 57.5979 24.4998 57.0498C27.2498 56.7498 29.9998 55.9298 32.7598 55.3798L41.9098 53.6098L47.5298 52.5298C50.3598 51.9698 53.2198 51.4698 55.9998 50.7898C58.1698 50.2698 60.2398 49.5198 62.3598 48.8698C62.8298 48.7298 63.2798 48.5498 63.7498 48.4298C65.5198 47.9798 66.1498 48.1598 66.7498 49.2498C66.9 49.4922 67.0368 49.7425 67.1598 49.9998C67.4998 50.8698 66.9298 51.7498 65.6798 52.2698C61.8626 53.7184 57.9236 54.8228 53.9098 55.5698C50.9098 56.2098 47.8398 56.7498 44.7998 57.3398L44.7498 57.2398Z" fill="#CDCDDF"/>
<path id="Path_10" d="M51.2002 69.76C48.8702 70.19 46.5202 70.65 44.2002 71.15C43.3402 71.33 42.5202 71.64 41.6602 71.8C38.6602 72.4 35.5602 72.93 32.5102 73.47C31.1502 73.69 29.8202 74.04 28.5102 74.37C26.8467 74.9475 25.1091 75.2842 23.3502 75.37C22.7802 75.37 22.6702 74.45 22.9302 73.48C23.1211 72.4454 23.8039 71.5685 24.7602 71.13C28.1306 70.0453 31.6013 69.3015 35.1202 68.91C37.272 68.5469 39.3968 68.0391 41.4802 67.39C43.8102 66.82 46.1702 66.28 48.5402 65.75L52.9202 64.75C55.1302 64.26 57.3702 63.86 59.5502 63.32C61.2402 62.89 62.8502 62.23 64.5502 61.68C64.9202 61.56 65.2702 61.4 65.6402 61.31C67.0302 60.96 67.5302 61.2 68.0502 62.44C68.1814 62.7171 68.2982 63.0008 68.4002 63.29C68.706 64.235 68.2365 65.2566 67.3202 65.64C64.4321 66.8847 61.4131 67.8005 58.3202 68.37C56.0102 68.87 53.6702 69.37 51.3202 69.84L51.2002 69.76Z" fill="#CDCDDF"/>
<path id="Path_11" d="M51.4702 75.45C50.1602 75.64 48.8402 75.82 47.5302 76.04C47.0502 76.12 46.6102 76.32 46.1302 76.38C44.4302 76.63 42.7202 76.84 40.9902 76.98C40.2376 77.0799 39.4926 77.2302 38.7602 77.43C37.8378 77.7764 36.8542 77.9296 35.8702 77.88C35.5502 77.88 35.4602 77.21 35.5702 76.51C35.6802 75.81 35.9602 75.03 36.4602 74.81C38.2472 74.0105 40.1457 73.4878 42.0902 73.26C43.2938 73.1276 44.4803 72.8695 45.6302 72.49C46.9402 72.22 48.2502 71.97 49.5602 71.72L51.9902 71.25C53.2302 71.04 54.4802 70.88 55.6802 70.58C56.1502 70.47 56.5902 70.26 57.0602 70.15C57.5202 70.0109 57.9876 69.8974 58.4602 69.81C58.6682 69.7628 58.8785 69.7261 59.0902 69.7C59.9002 69.65 60.2002 69.81 60.4502 70.39C60.5121 70.5026 60.5655 70.6195 60.6102 70.74C60.6777 71.2283 60.4397 71.7082 60.0102 71.95C59.2802 72.47 58.5402 73.01 57.7702 73.52C56.9811 73.9173 56.1619 74.2517 55.3202 74.52C54.7002 74.74 54.0702 74.93 53.4402 75.12C52.782 75.3005 52.1143 75.4441 51.4402 75.55L51.4702 75.45Z" fill="#CDCDDF"/>
</g>
</svg>
