<svg width="79" height="75" viewBox="0 0 79 75" fill="none" xmlns="http://www.w3.org/2000/svg">
<g id="scribble final version-05">
<path id="Path" d="M54.6952 70.2711C54.5587 70.5181 54.3869 70.7438 54.1852 70.9411C53.9762 71.1456 53.7279 71.3055 53.4552 71.4111C53.212 71.5044 52.9554 71.5584 52.6952 71.5711C52.4152 71.5711 52.1352 71.5711 51.8652 71.5711C51.4352 71.4411 51.0152 71.3211 50.5852 71.1711L49.2852 70.5411C48.8652 70.3611 48.4052 70.0511 48.0752 69.8711C47.7452 69.6911 47.5952 69.5811 47.3652 69.4211C46.7552 69.0311 46.1152 68.7111 45.5452 68.2711C44.9752 67.8311 44.5452 67.5011 44.0752 67.0811L42.7252 65.7611C42.2952 65.2911 41.8552 64.8411 41.4452 64.3711C41.0352 63.9011 40.6052 63.4411 40.2152 62.9511C39.4952 62.1111 38.7852 61.2611 38.1452 60.3511C37.2538 59.1877 36.6909 57.8063 36.5152 56.3511C36.4552 55.9111 36.7652 55.9111 37.2152 56.1411C37.7817 56.4626 38.2835 56.8864 38.6952 57.3911C40.0858 59.5935 41.7981 61.5755 43.7752 63.2711C44.3901 63.8192 45.0604 64.3018 45.7752 64.7111C46.1352 64.9211 46.4752 65.1511 46.8252 65.3711L47.8252 66.0211C48.4152 66.3811 49.0952 66.7911 49.6052 67.0811C49.865 67.2578 50.1355 67.4182 50.4152 67.5611C50.5836 67.6674 50.77 67.742 50.9652 67.7811C51.1028 67.823 51.2498 67.7539 51.3052 67.6211C51.3504 67.502 51.3807 67.3777 51.3952 67.2511C51.4041 66.9731 51.384 66.695 51.3352 66.4211C51.3352 66.1511 51.0552 65.1211 50.8352 64.3111C50.6152 63.5011 50.3452 62.6311 50.0652 61.8011C49.5298 60.52 49.0625 59.2115 48.6652 57.8811C48.5663 57.5771 48.4894 57.2662 48.4352 56.9511C48.3409 56.4959 48.4081 56.0221 48.6252 55.6111C48.8026 55.309 49.1013 55.0978 49.4452 55.0311C49.6117 54.9749 49.7822 54.9315 49.9552 54.9011C50.5252 54.9011 50.9552 55.2711 51.3752 55.9011C51.9052 56.9011 52.3752 57.9011 52.9552 58.9911C53.5352 60.0811 53.7552 61.2911 54.1352 62.5111L54.5152 63.9011L54.6952 64.6211L54.9152 65.6211C55.3352 67.4511 55.4052 69.2111 54.7652 70.3111L54.6952 70.2711Z" fill="#CDCDDF"/>
<path id="Path_2" d="M12.2465 26.3512C13.5833 28.0701 15.0156 29.7127 16.5365 31.2712L18.8765 33.6412L19.7165 34.4812C20.065 34.8154 20.3707 35.1916 20.6265 35.6012C20.8628 35.9345 20.9498 36.3512 20.8665 36.7512L20.3165 37.8512L19.4465 38.7312L18.8965 39.3212C18.5865 39.6412 18.2865 39.9712 17.9865 40.3212C16.7165 41.7512 15.5865 43.3212 14.4565 44.8612C12.4527 47.5948 10.699 50.5032 9.21648 53.5512C8.84648 54.3112 8.50648 55.0812 8.21648 55.8612C7.92648 56.6412 7.75648 57.0412 7.64648 57.4112C7.50232 57.7798 7.45749 58.1798 7.51648 58.5712C7.60648 58.8012 7.85648 58.7012 7.99648 58.5712L8.46648 58.2412L11.4665 56.1212C12.7565 55.2412 14.0665 54.3912 15.3965 53.5912C17.1192 52.5515 18.9137 51.6359 20.7665 50.8512L22.1965 50.3112C22.6765 50.1412 23.1965 50.0112 23.6565 49.8712C24.1505 49.7208 24.6608 49.6301 25.1765 49.6012C25.6871 49.5358 26.2017 49.5057 26.7165 49.5112C27.9965 49.5112 27.8065 49.7712 26.8665 50.3612C26.6365 50.5212 26.3565 50.6812 26.0465 50.8912L25.0465 51.6212C24.2142 52.1491 23.3454 52.617 22.4465 53.0212C20.6979 53.8244 19.0012 54.7362 17.3665 55.7512C15.6865 56.7645 14.0365 57.8212 12.4165 58.9212C11.5165 59.5312 11.1165 59.8212 9.21648 61.2312C8.82648 61.5112 8.44648 61.7212 8.06648 61.9712L7.77648 62.1612C7.70453 62.2215 7.61856 62.2628 7.52648 62.2812L7.06648 62.3912C6.80965 62.4485 6.54332 62.4485 6.28648 62.3912C6.01275 62.3657 5.74723 62.284 5.50648 62.1512C4.98464 61.8201 4.62276 61.2882 4.50648 60.6812C4.43203 60.3534 4.40176 60.017 4.41648 59.6812C4.41648 59.4812 4.41648 59.3112 4.41648 59.1012L4.51648 58.4812C4.67175 57.6409 4.89583 56.8148 5.18648 56.0112C5.32648 55.5712 5.40648 55.4212 5.50648 55.1512C5.60648 54.8812 5.71648 54.6612 5.81648 54.4212C7.86777 49.7766 10.4482 45.3842 13.5065 41.3312C14.1865 40.4712 14.8765 39.6212 15.5965 38.8012C15.9565 38.3912 16.3165 37.9712 16.6865 37.5812L17.2265 37.0012L17.4365 36.8012L17.6165 36.6312L17.6965 36.5512C17.6965 36.5512 17.6965 36.4812 17.6965 36.4512C17.6965 36.4212 17.4865 36.2112 17.3765 36.0912L15.8165 34.5412C14.6365 33.3712 13.4665 32.1612 12.3465 30.9112C10.0133 28.3867 7.99833 25.5858 6.34648 22.5712C5.71473 21.4028 5.18606 20.1815 4.76648 18.9212C4.65648 18.6012 4.57648 18.2712 4.48648 17.9212C4.38036 17.4926 4.29691 17.0586 4.23648 16.6212C4.17699 16.1837 4.14693 15.7427 4.14648 15.3012C4.15621 14.8911 4.20306 14.4828 4.28648 14.0812C4.35681 13.3521 4.71714 12.6819 5.28648 12.2212C6.00005 12.2334 6.69477 12.4522 7.28648 12.8512C8.00648 13.2812 8.74648 13.8512 9.47648 14.3712L11.0065 15.4712C14.0895 17.6742 17.4269 19.4974 20.9465 20.9012C21.7065 21.1912 22.4565 21.4212 23.2265 21.6612C24.6465 22.1012 25.5865 22.2812 26.2265 22.5312C26.745 22.7158 27.2163 23.0129 27.6065 23.4012C27.7711 23.532 27.9249 23.6758 28.0665 23.8312C28.2365 24.0612 28.0065 24.3012 27.3865 24.5512C26.463 24.8892 25.4724 25.0023 24.4965 24.8812C22.619 24.6908 20.7718 24.2711 18.9965 23.6312C17.205 23.0032 15.4745 22.2133 13.8265 21.2712C12.2065 20.3312 10.6365 19.2712 9.11648 18.2712L7.98648 17.4712L7.47648 17.1012V17.2312C7.54648 17.5112 7.61648 17.7912 7.70648 18.0812C7.88715 18.6616 8.09742 19.2323 8.33648 19.7912C9.3867 22.1353 10.7308 24.3363 12.3365 26.3412L12.2465 26.3512Z" fill="#CDCDDF"/>
<path id="Path_3" d="M52.5661 5.9312C52.604 5.86487 52.6342 5.79441 52.6561 5.7212C52.6882 5.66233 52.7086 5.59781 52.7161 5.5312C52.7465 5.47861 52.7465 5.4138 52.7161 5.3612C52.6348 5.3132 52.5392 5.29549 52.4461 5.3112C52.3209 5.32285 52.197 5.34629 52.0761 5.3812H51.9761L51.5461 5.5912L50.6261 6.0712C49.6261 6.6212 48.6261 7.3312 47.6261 7.9512C44.0462 10.154 40.6961 12.7101 37.6261 15.5812C36.2789 16.8672 35.0474 18.2692 33.9461 19.7712C32.4961 21.6412 31.2761 23.6412 29.9461 25.5612C29.5261 26.1612 28.9461 25.8212 28.5761 24.9212C28.1251 23.7044 28.1938 22.3558 28.7661 21.1912C29.3642 20.0157 30.032 18.877 30.7661 17.7812C31.5205 16.7292 32.3422 15.7271 33.2261 14.7812C34.954 12.8561 36.8627 11.1014 38.9261 9.5412C41.3961 7.6812 43.7361 5.4912 46.3661 3.7112C47.0961 3.2212 47.8361 2.7112 48.5961 2.3012C48.9761 2.0812 49.3561 1.8612 49.7561 1.6512C50.3461 1.3312 50.9561 1.0012 51.5661 0.741203C52.6371 0.233498 53.811 -0.0197614 54.9961 0.00120317C55.5256 0.0155005 56.0368 0.197587 56.4561 0.521203C56.652 0.694925 56.7885 0.925785 56.8461 1.1812L57.1161 1.9012C57.1835 2.0579 57.2305 2.22257 57.2561 2.3912V3.3912C57.3003 3.73981 57.3003 4.09259 57.2561 4.4412C57.1261 5.1512 57.0661 5.8612 56.8761 6.5712C56.6861 7.2812 56.5361 7.7012 56.3661 8.2212L55.8461 9.6412C54.6961 12.6412 53.2961 15.4812 52.2961 18.3912C51.5659 20.5785 51.119 22.8503 50.9661 25.1512C50.9661 25.6312 50.9661 26.1512 50.9661 26.5812C50.9161 28.3212 50.7761 28.7812 49.5561 29.3412C49.2861 29.4612 49.0161 29.6212 48.7461 29.7212C47.8361 30.0612 46.9361 29.2912 46.6461 27.6012C46.3438 25.1721 46.5308 22.7069 47.1961 20.3512C47.7965 18.0817 48.5618 15.8591 49.4861 13.7012C50.1528 12.1679 50.7961 10.6379 51.4161 9.1112C51.7461 8.3512 51.9561 7.6212 52.2261 6.8812L52.3761 6.3512L52.4461 6.0812V6.0112L52.5661 5.9312Z" fill="#CDCDDF"/>
<path id="Path_4" d="M0.624687 14.9611C0.419256 14.0147 0.312021 13.0496 0.304688 12.0811C0.322858 11.6826 0.362919 11.2853 0.424687 10.8911C0.514688 10.5411 0.594687 10.1911 0.694687 9.84113C0.930019 9.31461 1.27029 8.84164 1.69469 8.45113C1.9325 8.24065 2.21701 8.08982 2.52469 8.01113C2.76626 7.94593 3.01459 7.90901 3.26469 7.90113C3.81216 7.8895 4.35827 7.96029 4.88469 8.11113C5.60329 8.34061 6.29419 8.64916 6.94469 9.03113L7.60469 9.46113L8.26469 9.94113L9.59469 10.9411L10.9047 11.9411C11.1147 12.1111 11.3347 12.2711 11.5447 12.4511L11.9047 12.7511C15.0525 15.5611 18.4728 18.0501 22.1147 20.1811C23.7273 21.052 25.4399 21.7236 27.2147 22.1811C29.4301 22.8165 31.7057 23.2187 34.0047 23.3811C34.7347 23.4311 34.7447 23.9711 34.1647 24.6611C33.2662 25.6182 32.0351 26.1943 30.7247 26.2711C29.3535 26.3184 27.981 26.2381 26.6247 26.0311C25.2934 25.7625 23.9909 25.3674 22.7347 24.8511C20.2834 23.8535 17.9629 22.5606 15.8247 21.0011C14.5647 20.0811 13.2447 19.2211 11.9247 18.3611L9.92469 17.0611L8.92469 16.3911L8.67469 16.2011L8.52469 16.0811C8.16469 15.7611 7.74469 15.3811 7.25469 14.9911C7.00661 14.7709 6.72246 14.595 6.41469 14.4711C6.21469 14.4111 6.15469 14.5811 6.11469 14.6911C6.06215 14.8145 6.03495 14.9471 6.03469 15.0811C6.0099 15.277 6.0099 15.4752 6.03469 15.6711C6.0825 16.1212 6.1695 16.5662 6.29469 17.0011C6.36469 17.2311 6.44469 17.4711 6.52469 17.7211L6.76469 18.3211L7.05469 19.0111C8.25579 21.8312 9.75782 24.5135 11.5347 27.0111C12.9469 28.8449 14.5867 30.4914 16.4147 31.9111L17.6247 32.7711C18.8647 34.0611 19.0647 34.6611 18.7347 35.9011C18.6547 36.1911 18.6147 36.4811 18.5247 36.7411C18.3625 37.1687 17.9782 37.4723 17.5247 37.5311C16.8413 37.611 16.1491 37.5002 15.5247 37.2111C14.3538 36.7668 13.2755 36.109 12.3447 35.2711C11.4177 34.4957 10.5487 33.6534 9.74469 32.7511C8.15219 30.9362 6.73582 28.9741 5.51469 26.8911C4.59923 25.3455 3.77126 23.7496 3.03469 22.1111C2.84469 21.7011 2.66469 21.2911 2.48469 20.8711L2.22469 20.2711L1.91469 19.4911C1.33456 18.0133 0.860038 16.4962 0.494687 14.9511L0.624687 14.9611Z" fill="#CDCDDF"/>
<path id="Path_5" d="M49.1168 60.7512C47.8568 57.7512 46.6668 54.8412 45.5068 51.5712C45.2622 50.8932 45.0553 50.2021 44.8868 49.5012C44.7044 48.8489 44.597 48.1779 44.5668 47.5012C44.5312 46.9002 44.6023 46.2975 44.7768 45.7212C44.854 45.4484 44.972 45.1888 45.1268 44.9512C45.1268 44.9512 45.1268 44.8212 45.2668 44.7912C45.3008 44.722 45.3446 44.658 45.3968 44.6012C45.4901 44.4974 45.594 44.4035 45.7068 44.3212C46.7537 43.6472 47.9979 43.3476 49.2368 43.4712C49.9268 43.4712 50.6868 43.4712 51.3268 43.5512L52.6668 43.6412C54.9668 43.8012 57.2168 43.7812 59.4368 43.7812C61.9577 43.8224 64.4757 43.5911 66.9468 43.0912C67.5368 42.9612 68.1268 42.8012 68.6968 42.6212L69.5368 42.3212L70.1368 42.0712C70.6342 41.8623 71.0911 41.5678 71.4868 41.2012C71.7222 41.0035 71.9218 40.7667 72.0768 40.5012C72.0768 40.3412 71.8868 40.3012 71.7668 40.2512C71.637 40.2028 71.5032 40.166 71.3668 40.1412C71.0968 40.0712 70.8068 40.0212 70.5068 39.9712L69.4468 39.8012C65.8368 39.2912 62.1468 38.8012 58.5468 37.9212C56.2161 37.3232 53.9514 36.4924 51.7868 35.4412C49.5869 34.3766 47.6139 32.896 45.9768 31.0812C44.9768 29.8912 45.5868 29.7212 46.8568 30.0812C48.1268 30.4412 50.2168 31.1612 52.4968 32.0812C54.4532 32.8605 56.4789 33.4532 58.5468 33.8512C60.6368 34.2812 62.7368 34.7512 64.8968 35.0612C65.9768 35.2312 67.0568 35.3712 68.1568 35.5212L69.8168 35.7312L71.1668 35.8912C71.7068 35.8912 72.2468 36.0012 72.7768 36.0712C73.7644 36.1738 74.7392 36.3748 75.6868 36.6712C76.332 36.8918 76.9079 37.278 77.3568 37.7912C77.5467 37.9893 77.7052 38.2153 77.8268 38.4612C77.994 38.7662 78.0605 39.1162 78.0168 39.4612C77.9678 40.1542 77.7253 40.8194 77.3168 41.3812C76.9368 41.9012 76.4868 42.3812 76.0368 42.9112C75.2101 43.7319 74.2905 44.4534 73.2968 45.0612L72.5068 45.5212C72.3745 45.6025 72.2376 45.6759 72.0968 45.7412L71.7368 45.9212C71.3668 46.0912 70.9868 46.2512 70.6068 46.4012C69.1215 46.9787 67.5892 47.4271 66.0268 47.7412C63.0133 48.3305 59.9472 48.6087 56.8768 48.5712C55.2268 48.5712 53.5968 48.4912 51.9868 48.4212C51.5168 48.4212 51.3368 48.4212 51.2168 48.4212H50.7668H50.2968C50.1568 48.4212 49.9368 48.4212 49.8668 48.5612C49.7985 48.8574 49.7985 49.1651 49.8668 49.4612L49.9768 49.9312L50.0368 50.1712L50.1968 50.6912C50.6668 52.1512 51.1968 53.6213 51.8368 55.0812C53.3368 58.6812 54.9768 62.2612 56.5868 65.8812C57.3368 67.6412 58.4968 69.9813 58.6668 71.6213C58.7008 72.0038 58.7008 72.3887 58.6668 72.7712C58.6754 73.1471 58.5268 73.5096 58.2568 73.7712C57.5162 74.2061 56.6645 74.4146 55.8068 74.3713C53.8027 74.2377 51.8481 73.6894 50.0668 72.7612C48.6448 72.0764 47.2715 71.2946 45.9568 70.4212C41.8335 67.8557 38.2665 64.4894 35.4668 60.5212C34.8413 59.61 34.2896 58.6503 33.8168 57.6512C33.2171 56.2784 32.9334 54.7884 32.9868 53.2912C33.0035 52.4915 33.3688 51.739 33.9868 51.2312C34.2154 51.0018 34.4706 50.8004 34.7468 50.6312C35.6368 50.2312 36.4168 51.6312 37.5168 53.8312C37.7568 54.2312 37.9568 54.6313 38.1968 55.0112L38.5668 55.5912C38.6668 55.7913 38.7868 55.9812 38.9068 56.1712C39.3624 56.9564 39.8632 57.7143 40.4068 58.4412C41.5294 59.9408 42.7844 61.3364 44.1568 62.6112C45.5554 63.9298 47.0606 65.1305 48.6568 66.2012C49.4568 66.7212 50.2768 67.2012 51.1068 67.6912C51.3168 67.8112 51.5268 67.9112 51.7368 68.0212L52.0368 68.1712C52.0368 68.1712 52.0968 68.2412 52.1168 68.1712C52.1168 68.1712 52.1168 68.1712 52.1168 68.0812L51.8868 67.5412L50.8868 65.3512L48.8868 60.9312L49.1168 60.7512Z" fill="#CDCDDF"/>
<path id="Path_6" d="M6.33604 57.8511C6.04415 58.1754 5.8228 58.5568 5.68604 58.9711C5.68604 59.0711 5.62604 59.2411 5.68604 59.2911C5.74604 59.3411 5.90604 59.2911 6.05604 59.1911C6.15643 59.13 6.25326 59.0632 6.34604 58.9911C6.48295 58.8599 6.63784 58.7487 6.80604 58.6611C6.73604 58.7611 8.12604 57.8511 9.02604 57.2911C9.92604 56.7311 11.026 56.0611 12.026 55.4911C14.026 54.3111 16.136 53.2811 18.226 52.2411C20.116 51.3711 21.976 50.4211 23.926 49.6311C24.556 49.3811 25.176 49.1311 25.826 48.9311C26.476 48.7311 27.146 48.5611 27.826 48.3911C28.5111 48.2688 29.202 48.182 29.896 48.1311C30.0724 48.1161 30.2497 48.1161 30.426 48.1311L30.966 48.2611L32.026 48.5511C32.886 48.8311 32.696 49.1611 32.026 49.8411C31.696 50.1911 31.246 50.6511 30.786 51.1511C30.3352 51.6208 29.7701 51.9654 29.146 52.1511C28.036 52.5511 26.936 52.9811 25.816 53.4911C24.696 54.0011 23.556 54.4911 22.406 54.9311C20.126 55.9311 17.836 57.1311 15.496 58.2811C14.806 58.6411 14.106 59.0011 13.416 59.4111C12.726 59.8211 12.076 60.2611 11.416 60.7011L9.31604 62.1711L6.00604 64.5811L4.88604 65.3911L4.48604 65.6411C4.37604 65.6411 4.26604 65.7211 4.15604 65.7611L3.50604 66.0111C3.30696 66.0957 3.10331 66.1692 2.89604 66.2311L2.40604 66.3111C2.11731 66.3769 1.82217 66.4104 1.52604 66.4111C1.33449 66.4065 1.14647 66.3587 0.97604 66.2711C0.768008 66.1562 0.59517 65.9868 0.47604 65.7811C0.105422 65.0456 -0.0538199 64.2217 0.0160402 63.4011C0.0871642 62.3363 0.29211 61.2847 0.62604 60.2711C0.87604 59.5111 1.15604 58.7311 1.48604 57.9611L2.43604 55.7711C2.92604 54.7711 3.43604 53.7711 3.96604 52.7711C5.58997 49.7836 7.37942 46.8891 9.32604 44.1011L11.476 40.8211C12.1617 39.7026 12.92 38.6303 13.746 37.6111C14.116 37.1711 14.456 36.7111 14.866 36.2911C15.3723 35.6906 16.013 35.2178 16.736 34.9111C17.2636 34.7898 17.8167 34.8497 18.306 35.0811C18.5395 35.1569 18.7669 35.2505 18.986 35.3611C19.306 35.5511 19.406 35.9111 19.396 36.4211C19.3906 37.0731 19.2111 37.7118 18.876 38.2711L17.166 41.2111C16.606 42.2111 15.916 43.0811 15.286 44.0211C14.006 45.8911 12.716 47.7911 11.466 49.7211C10.4994 51.1278 9.56271 52.5611 8.65604 54.0211C8.20604 54.7511 7.77604 55.4911 7.35604 56.2311L6.74604 57.3611L6.47604 57.8711L6.33604 57.8511Z" fill="#CDCDDF"/>
</g>
</svg>
