<svg width="45" height="106" viewBox="0 0 45 106" fill="none" xmlns="http://www.w3.org/2000/svg">
<g id="scribble final version-146">
<path id="Path" d="M20.814 69.7802C23.2969 71.1347 25.7629 72.4318 28.2346 73.748C29.1353 74.2232 30.0698 74.6364 30.9732 75.1212C34.1486 76.8455 37.3172 78.5822 40.418 80.4431L44.5877 82.8548C46.421 83.8353 48.0832 85.1066 49.5095 86.6193C49.9367 87.1504 49.6844 87.2141 49.1116 87.0385C48.2384 86.7836 47.3884 86.4547 46.5711 86.0553C46.1337 85.8086 45.6608 85.5829 45.2167 85.3486L44.526 85.0201L43.8534 84.7176L41.1441 83.2315C39.3411 82.2398 37.5026 81.269 35.7059 80.1921C33.5655 78.9036 31.1767 77.834 28.8958 76.6702L21.3713 72.7745C19.8279 71.9567 18.2969 71.1456 16.7654 70.2618C16.477 70.0964 16.1791 69.9339 15.8947 69.7465C15.6103 69.5591 15.6035 69.5715 15.4585 69.4682C15.3134 69.3649 15.1645 69.2837 14.9585 69.1149C14.5629 68.8588 14.2813 68.4599 14.1725 68.0014C14.1432 67.7692 14.1442 67.5342 14.1753 67.3022C14.1996 67.0658 14.2499 66.8112 14.2804 66.6668C14.5886 65.3045 15.0283 64.0703 15.3963 62.8051C15.9913 60.8582 16.4847 58.9204 16.9837 57.0017C17.0972 56.5722 17.1723 56.1541 17.3106 55.7382C17.4729 55.1905 17.6825 54.6581 17.9371 54.1468C18.11 53.8858 18.3435 53.6705 18.6177 53.5193C18.7189 53.4465 18.8249 53.3805 18.9349 53.3218C19.098 53.2739 19.2266 53.3924 19.3406 53.7445C19.4892 54.228 19.5325 54.7378 19.4675 55.2395C19.1156 58.9702 17.5933 62.5136 16.7979 66.0829C16.7358 66.4034 16.6641 66.7268 16.6155 67.0225L16.5856 67.2398C16.5856 67.2398 16.6025 67.2973 16.5856 67.2398L16.848 67.4232L17.2594 67.6879C18.3857 68.399 19.6368 69.0735 20.8687 69.7536L20.814 69.7802Z" fill="#CDCDDF"/>
<path id="Path_2" d="M52.0741 54.3242L46.3008 56.3136L44.2257 57.0905L40.5241 58.3978C39.2673 58.7673 38.0359 59.2232 36.8017 59.6695C35.7113 60.0735 34.6267 60.4967 33.5612 60.9142L29.4211 62.538C28.9798 62.6678 29.0373 62.6508 29.4042 62.4804C29.771 62.31 30.3794 61.9331 31.1458 61.5618C33.8801 60.2263 36.62 58.9099 39.4051 57.747L44.5728 55.6126L50.3044 53.3749L53.8423 52.0428C55.6324 51.3601 57.431 50.7062 59.1878 49.9811C60.5586 49.4321 61.8476 48.7821 63.1823 48.1812C63.4893 48.091 63.7585 47.9076 64.105 47.7744C65.2128 47.3236 65.6209 47.3287 66.0243 47.6374C66.1214 47.7057 66.2109 47.7843 66.2912 47.8716C66.5339 48.1651 66.1856 48.6115 65.4046 49.0392C63.0041 50.299 60.5138 51.3796 57.954 52.2722L52.0825 54.353L52.0741 54.3242Z" fill="#CDCDDF"/>
<path id="Path_3" d="M33.579 56.2285L31.8816 55.0286C31.6717 54.8819 31.4482 54.76 31.2479 54.6104C30.5499 54.0443 29.8682 53.463 29.1837 52.8721L28.2684 52.0989C27.8714 51.8007 27.5234 51.4423 27.2369 51.0367C27.0631 50.7647 27.6952 50.7873 28.1274 51.0876C28.8875 51.6875 29.7391 52.2085 30.5364 52.8287C31.0434 53.1705 31.5676 53.486 32.1069 53.7741L33.8461 54.8679L34.9267 55.53C35.4814 55.8568 36.0294 56.196 36.6016 56.4759C37.0593 56.6679 37.5264 56.8367 38.0011 56.9817C38.1063 57.0072 38.2098 57.0394 38.3109 57.0782C38.6816 57.2402 38.746 57.3881 38.6269 57.7983C38.6059 57.8951 38.5781 57.9904 38.5439 58.0833C38.4493 58.3754 38.1496 58.549 37.8492 58.4856C36.9529 58.2667 36.099 57.9015 35.3216 57.4047C34.7268 57.048 34.1569 56.7049 33.5548 56.2878L33.579 56.2285Z" fill="#CDCDDF"/>
<path id="Path_4" d="M23.6523 69.0084C26.7459 70.9861 29.9031 72.8616 33.0604 74.7371C34.2348 75.4341 35.5067 75.967 36.6331 76.6781C40.744 79.1384 44.8104 81.6951 48.8717 84.3055C50.6487 85.4924 52.4912 86.6184 54.2941 87.7873L56.0474 88.9291C56.5976 89.3823 57.1326 89.8191 57.6489 90.3344C58.7898 91.3639 59.687 92.6348 60.275 94.0547C60.6163 95.2155 59.8522 94.992 58.955 94.7763C57.7344 94.6261 56.5347 94.339 55.3783 93.9205C54.8157 93.6378 54.2271 93.373 53.6193 93.114C53.0439 92.8081 52.4856 92.4712 51.9467 92.1048L48.5293 89.9826L46.811 88.9244L45.1248 87.7629C43.9979 86.9789 42.8778 86.1825 41.7616 85.3642C38.9271 83.5032 35.991 81.8019 32.9669 80.2681C29.73 78.4056 26.4847 76.5142 23.2608 74.5541C21.2683 73.3784 19.2875 72.1367 17.2933 70.7426L16.7267 70.3047C16.4959 70.1224 16.251 69.8921 16.0118 69.681C15.5667 69.2608 15.2094 68.7565 14.9606 68.1973C14.8369 67.5808 14.7988 66.9501 14.8473 66.3232C14.941 65.6494 14.9969 65.2368 15.0923 64.7814C15.4316 62.9931 15.8499 61.2962 16.1954 59.5998C16.4613 58.2708 16.6697 56.9588 16.8464 55.6456C17.0232 54.3324 17.1147 53.013 17.4003 51.7512C17.5251 51.1829 17.5787 50.6564 17.7035 50.0881C17.8253 49.3562 18.0434 48.6437 18.3521 47.9691C18.6122 47.581 18.961 47.2605 19.3697 47.0341C19.5711 46.9748 19.7427 46.7784 19.9069 46.6989C20.0712 46.6193 20.4566 46.7249 20.7607 47.1566C21.1613 47.7619 21.399 48.4603 21.4507 49.1843C21.5787 50.4705 21.6464 51.7639 21.6767 53.0371C21.6966 53.6686 21.6592 54.3006 21.5649 54.9253C21.4982 55.5494 21.4096 56.1696 21.3209 56.7898C20.9567 59.2734 20.4633 61.7429 20.1065 64.1097L19.884 65.3738C19.8476 65.5738 19.8235 65.7758 19.8117 65.9787L19.7874 66.2152C19.7701 66.211 19.7518 66.2164 19.7395 66.2293C19.6097 66.1424 20.0752 66.485 20.3557 66.6944L21.4053 67.4281C22.1411 67.9101 22.9058 68.3836 23.6772 68.8447L23.6523 69.0084Z" fill="#CDCDDF"/>
<path id="Path_5" d="M64.6402 28.5736C66.3654 30.7762 68.2557 32.8442 70.2949 34.7597C72.3608 36.7164 74.5384 38.5569 76.8949 40.4386L79.2971 42.3693L79.8078 43.0426L80.0549 43.3869L80.1853 43.5466L80.2135 43.6426L80.06 43.6877C80.1784 43.9324 80.2556 44.1949 80.2885 44.4648C80.2949 44.7559 80.2685 45.0469 80.21 45.3322C80.0722 45.9405 79.9007 46.5408 79.6963 47.1301L79.4355 47.8739L79.243 48.3891C76.3954 55.5429 73.4061 62.4986 70.7645 69.644C69.6102 72.8081 68.4728 76.0298 67.5369 79.1923C66.9069 81.2328 66.3582 83.3016 65.8135 85.3484C65.2688 87.3952 64.5259 89.4064 64.08 91.4346C63.8203 92.6784 63.366 92.5514 62.7634 91.3527C61.9857 89.4064 61.6782 87.3041 61.866 85.2166C62.6871 80.816 63.78 76.4705 65.1385 72.2051C66.5897 67.9947 68.2091 63.86 69.9854 59.7625C71.0522 57.3641 72.0021 54.7813 72.9165 52.2193L75.2246 45.641C75.2021 45.5643 75.3274 45.4232 75.2444 45.3538L75.0204 45.1591C74.9922 45.0631 74.8488 45.001 74.7506 44.9153L74.4741 44.6839L74.0803 44.3723L72.5047 43.1261C71.4709 42.3044 70.3931 41.4747 69.3435 40.5638C67.2183 38.7971 65.2002 36.9054 63.3 34.8986C62.62 34.1813 61.9632 33.4363 61.3227 32.6761C60.9943 32.3036 60.6919 31.9131 60.3798 31.5253L60.0345 31.0953L59.8331 30.8001C59.716 30.617 59.5788 30.4476 59.424 30.295C59.2096 30.3126 58.9974 30.3506 58.7902 30.4084L58.4736 30.5015L56.7947 30.9951C55.451 31.3173 54.2229 32.0327 52.8725 32.3673L48.9068 33.6271L44.9609 34.9541C43.6369 35.3434 42.3383 35.819 41.0341 36.2755C36.9928 37.7035 33.1575 39.4775 29.2415 41.1188C28.3774 41.4771 27.5619 41.8941 26.6799 42.2264C25.7978 42.5587 25.1798 42.7612 24.5918 42.9237C24.0635 42.998 23.5269 42.9905 23.0009 42.9016C22.2226 42.763 21.4953 42.4191 20.8944 41.9054C20.6355 41.7185 20.3881 41.5163 20.1534 41.2998C19.8499 40.9409 19.974 40.477 20.403 39.8088C20.9886 38.8799 21.7569 38.0795 22.6611 37.4563C26.1241 35.6416 29.6808 34.0113 33.3161 32.5723C35.1784 31.8162 37.0511 31.0954 38.9342 30.4097C40.8191 29.7303 42.6899 29.0031 44.6171 28.4677L48.4547 27.3393L50.3735 26.7751C51.0103 26.5723 51.661 26.4158 52.3204 26.3069C53.0039 26.2206 53.6957 26.1631 54.3323 26.0593L56.3087 25.4782C56.5101 25.4189 57.3448 25.1735 57.9345 25.0522C58.2569 24.9618 58.5849 24.8932 58.9165 24.8469L59.377 24.7115C59.5257 24.7004 59.6753 24.7165 59.8183 24.7589C60.1024 24.7891 60.376 24.8833 60.6185 25.0344L60.9921 25.206C61.0485 25.0435 60.8848 25.5502 61.1185 24.8561L61.1986 24.9159L61.3741 25.052L62.7708 26.0797L64.1087 27.6876L64.7204 28.4563L64.6402 28.5736Z" fill="#CDCDDF"/>
<path id="Path_6" d="M51.8311 55.5626C49.2171 56.4563 46.6019 57.3816 44.016 58.3712C43.0764 58.7204 42.1819 59.2232 41.2366 59.5533C37.8415 60.6975 34.452 61.8608 31.1088 63.1461C30.3582 63.4294 29.6437 63.7645 28.8931 64.0478L26.6815 64.9274C25.7503 65.3054 24.8247 65.7026 23.8823 66.0423L23.1436 66.2595L22.3698 66.3932C21.8444 66.4851 21.3286 66.5742 20.7795 66.621C20.4364 66.6594 20.2175 66.5883 20.2513 66.5262C20.2852 66.4641 20.4274 66.3806 20.6221 66.1566C20.8949 65.8594 21.1512 65.5474 21.3897 65.2221L21.8971 64.5726C21.984 64.4428 22.0918 64.3486 22.1855 64.2064L22.5326 63.9688C24.2877 62.8482 26.0344 61.6988 27.815 60.6645C29.6491 59.8125 31.6085 58.9966 33.5922 58.2987C35.9597 57.4879 38.1804 56.1783 40.5919 55.1982C43.1992 54.1398 45.833 53.136 48.4753 52.1611L53.3806 50.3748C55.8463 49.4726 58.3717 48.6675 60.8249 47.7586C61.7646 47.4093 62.6901 47.0121 63.6156 46.6149L65.0231 46.0134C65.263 45.9429 65.4927 45.8024 65.7297 45.7223L66.4684 45.5051C66.9098 45.3753 67.3319 45.2512 67.7732 45.1214C69.451 44.8366 70.0695 45.0612 70.579 45.9433C70.7038 46.1208 70.8146 46.3078 70.9102 46.5026C71.1647 47.0844 70.6409 47.9264 69.5929 48.4743C68.8175 48.9211 68.0421 49.368 67.2531 49.8398C66.4596 50.2521 65.6368 50.6055 64.7914 50.8971C63.1136 51.5364 61.3821 52.1705 59.6451 52.7855C57.0643 53.7216 54.4311 54.6209 51.8356 55.6134L51.8311 55.5626Z" fill="#CDCDDF"/>
<path id="Path_7" d="M49.3327 44.6132C48.6554 45.8547 47.9781 47.0962 47.3008 48.3377L45.1719 52.1219C44.6515 53.0463 44.2524 54.0287 43.6909 54.9547L42.908 56.2273C42.5138 56.8795 42.064 57.4965 41.5636 58.0714C41.2947 58.3062 41.01 58.5223 40.7114 58.718C40.3997 58.8434 40.0703 58.9191 39.7351 58.9426C39.002 58.9393 38.2811 58.7536 37.6375 58.4023C37.2916 58.2539 36.9592 58.0806 36.6269 57.9073L35.9299 57.4869C35.5146 57.2442 35.1128 56.9766 34.7235 56.7159L32.4132 55.1333C31.0956 54.197 29.6605 53.3577 28.2684 52.5579C27.343 52.1002 26.4552 51.5701 25.6133 50.9725C24.7872 50.3607 23.9786 49.7021 23.1332 49.0959C22.6152 48.7166 22.7512 48.5412 23.4149 48.3877C24.4625 48.1542 25.5445 48.1189 26.6051 48.2836L27.4307 48.4682C27.7052 48.5115 27.9719 48.5946 28.2224 48.7148L29.684 49.4317C30.6506 49.9187 31.6009 50.4211 32.5253 50.9415C34.374 51.9822 36.1984 53.0823 37.88 54.193C38.0232 54.2674 38.1515 54.3675 38.2586 54.4882C38.3408 54.5524 38.4275 54.6105 38.5182 54.662C38.6106 54.7186 38.7168 54.7487 38.8252 54.7489C38.9211 54.7207 38.9753 54.6214 39.0447 54.5385C39.1048 54.4536 39.1587 54.3646 39.2062 54.2721L39.5025 53.6847L40.3548 51.9748L44.1968 44.268L45.4616 41.9053L46.8834 39.4026C47.3123 38.5675 47.8531 37.7948 48.4908 37.1058C48.8018 36.8329 49.1575 36.6155 49.5422 36.4632C49.9573 36.4935 50.3633 36.6003 50.7397 36.7781C51.597 37.1731 52.4265 37.6256 53.2226 38.1327L54.9669 39.1729C56.7648 40.2182 58.6406 41.0321 60.5158 41.9505C60.9294 42.152 61.3509 42.3094 61.7319 42.5414C61.9181 42.643 62.0851 42.7502 62.2369 42.8411C62.3887 42.932 62.4846 43.081 62.5885 43.186C62.7693 43.3827 62.9192 43.6057 63.0331 43.8474C63.1261 44.058 63.1719 44.2865 63.1674 44.5167C63.144 44.7937 63.0917 45.0676 63.0115 45.3338C62.9421 45.594 62.911 45.8429 62.8343 46.0426C62.6424 46.6306 61.4583 47.1768 60.2247 46.8099C59.7614 46.7134 59.3112 46.5624 58.8834 46.36C58.4466 46.1862 58.0138 45.9903 57.5905 45.7916C56.7345 45.3971 55.8987 44.9653 55.0669 44.5115C54.2351 44.0578 53.4073 43.582 52.584 43.1569L51.3284 42.4317L50.8329 42.1292C50.8329 42.1292 50.8329 42.1292 50.816 42.0716C50.7991 42.014 50.816 42.0716 50.7488 42.0913L50.6393 42.3216L50.3983 42.7781L49.4416 44.6646L49.3327 44.6132Z" fill="#CDCDDF"/>
<path id="Path_8" d="M37.58 68.8423C37.9091 68.4016 38.2438 67.9801 38.5355 67.519C38.6456 67.3616 38.6716 67.1664 38.7941 67.0157C39.2061 66.4672 39.6677 65.9458 40.0481 65.3961C40.2021 65.1474 40.3085 64.8723 40.362 64.5847C40.4416 64.2173 40.3806 63.7974 40.8129 63.5661C41.081 63.4143 43.6938 64.6786 43.5888 65.1368C43.3794 65.9371 42.927 66.6528 42.294 67.1853C41.8832 67.525 41.8239 68.0323 41.6167 68.4267C41.4096 68.8212 41.0591 69.3308 40.7837 69.7766C40.5082 70.2224 40.4349 70.3273 40.2791 70.6129C40.0329 71.0152 39.8069 71.4296 39.6018 71.8543C39.4725 72.1946 39.5086 72.6009 39.3658 72.9661C39.3565 73.0456 39.3334 73.123 39.2975 73.1946C39.1361 73.461 38.9233 73.4818 38.3714 73.3418L37.9888 73.2459C37.6307 73.1597 37.3282 72.9211 37.161 72.5929C36.9797 72.1897 36.8545 71.7636 36.7886 71.3265C36.7917 70.964 36.8322 70.6028 36.9095 70.2486C36.9643 69.6905 37.3526 69.274 37.6003 68.8051L37.58 68.8423Z" fill="#CDCDDF"/>
<path id="Path_9" d="M23.3841 29.3216C23.6816 29.2341 23.5709 29.6732 23.2667 30.4818C23.1046 30.8514 22.8898 31.1954 22.6289 31.5032C22.4334 31.6343 22.2248 31.7445 22.0064 31.8322C21.418 31.7519 20.8347 31.6381 20.2593 31.4912C19.8769 31.4059 19.5164 31.2422 19.2006 31.0103C18.5517 30.5757 17.9084 30.1603 17.2594 29.7257C17.1183 29.6176 17.0004 29.4821 16.9129 29.3273C16.6117 28.8039 16.1715 28.3742 15.641 28.0857C15.5609 28.0258 15.4943 27.9412 15.3408 27.9863C15.1873 28.0314 13.8646 26.9715 13.7873 26.7441C13.5463 26.1995 13.3338 25.6426 13.1509 25.0759C13.1283 24.9991 13.0442 24.9613 13.0747 24.8168C13.1662 24.6169 13.1299 24.3816 12.9822 24.2186C12.8593 24.0057 12.7643 23.778 12.6995 23.5409C12.6921 23.3726 12.7131 23.2044 12.7616 23.0431C12.7921 22.8986 13.1477 22.6899 13.1985 22.6854C13.2493 22.6809 13.4648 22.4924 13.5986 22.3801L13.7352 22.2774C13.9988 22.2806 14.2616 22.308 14.5202 22.3593C14.8043 22.3835 15.087 22.4221 15.3672 22.475C15.3672 22.475 15.7684 22.6698 16.2244 22.838C16.6804 23.0062 17.0534 23.2822 17.1538 23.3047C17.2543 23.3273 17.287 23.4741 17.3276 23.5768C17.3682 23.6795 18.6363 24.2343 18.665 24.2259C18.8603 24.429 19.174 24.5035 19.187 24.9375C19.2124 25.0239 19.2208 25.0526 19.2925 25.0837C19.6928 25.3796 20.0536 25.7253 20.3663 26.1126C20.5546 26.2818 20.7565 26.4351 20.9701 26.5708C20.9701 26.5708 20.9984 26.6668 21.0125 26.7147C21.0266 26.7627 21.052 26.8491 21.1112 26.8733C21.5574 27.2712 22.0445 27.6206 22.5643 27.9158C22.702 27.9587 23.0219 28.6568 23.1788 28.694C23.3357 28.7313 23.269 29.3554 23.3841 29.3216Z" fill="#CDCDDF"/>
<path id="Path_10" d="M50.0517 18.3434C50.2255 18.6154 49.7633 18.7096 48.9196 18.6763C48.5315 18.6316 48.1516 18.5328 47.791 18.3827C47.6114 18.2406 47.4435 18.0843 47.2887 17.9154C47.2605 17.8195 47.0439 16.622 46.9418 16.2038C46.8471 15.8202 46.8291 15.4217 46.8889 15.0311C46.9928 14.2501 47.0526 13.4611 47.1469 12.6829C47.1661 12.5023 47.2253 12.3282 47.3202 12.1733C47.6346 11.6397 47.7874 11.0263 47.76 10.4076C47.7318 10.3116 47.8052 10.2067 47.6669 10.091C47.5463 9.41659 47.5928 8.72291 47.8025 8.07069L48.7101 6.5843C48.7535 6.51941 48.6678 6.4404 48.8912 6.38511C49.1141 6.36903 49.2949 6.19821 49.3235 5.97657C49.4026 5.74534 49.5182 5.52833 49.6661 5.33382C49.8094 5.21522 49.9737 5.12451 50.1504 5.06636C50.3961 5.04145 50.6442 5.07974 50.871 5.17759C51.0245 5.30966 51.2824 5.2651 51.5093 5.2922L51.7389 5.3289C52.1056 5.8216 52.4044 6.36123 52.6276 6.93337C52.6276 6.93337 52.6603 7.4345 52.6987 7.95482C52.737 8.47514 52.7121 8.99319 52.7488 9.11791C52.7855 9.24263 52.6557 9.33292 52.5919 9.43505C52.5281 9.53719 52.629 11.0502 52.6143 11.1066C52.5178 11.4164 52.6041 11.7454 52.2339 12.0106C52.1476 12.036 52.1662 12.1348 52.1639 12.198C52.0873 12.7433 51.9471 13.2778 51.7462 13.7905C51.6839 14.0655 51.637 14.3438 51.6056 14.624C51.6197 14.672 51.539 14.7166 51.5119 14.7662C51.4848 14.8159 51.4193 14.8768 51.4171 14.94C51.2573 15.5925 51.1457 16.2559 51.0834 16.9248C51.1285 17.0783 50.5732 17.7419 50.5884 17.9354C50.6036 18.129 49.9936 18.2875 50.0517 18.3434Z" fill="#CDCDDF"/>
<path id="Path_11" d="M47.6211 46.2731L46.1582 48.9547C45.9849 49.2871 45.8613 49.6466 45.6852 49.9694C45.0581 51.1335 44.409 52.2938 43.8164 53.4686C43.5539 53.994 43.3287 54.5397 43.1131 55.0826C42.8881 55.8453 42.4917 56.5465 41.9544 57.1327C41.7348 57.3432 41.561 57.0712 41.3867 56.7263C41.1385 56.3923 41.0175 55.9807 41.0454 55.5655C41.2147 54.8378 41.465 54.1314 41.7916 53.4595C42.1144 52.7484 42.474 52.0547 42.8691 51.3811C43.2851 50.5422 43.651 49.6794 43.9646 48.7971C44.3722 47.8434 44.8045 46.9033 45.2205 45.9784L46.0824 44.2657C46.5153 43.3983 46.9826 42.5417 47.4003 41.658C47.7096 40.9729 47.9128 40.2461 48.2396 39.5142C48.3181 39.3556 48.3717 39.1835 48.453 39.0345C48.5784 38.8199 48.787 38.6667 49.0293 38.6112C49.2716 38.5558 49.5261 38.603 49.7323 38.7417L50.0303 38.9043C50.1741 39.017 50.2782 39.1725 50.3277 39.3484C50.4048 39.5523 50.437 39.7704 50.4219 39.9878C50.4075 40.3034 50.3363 40.6139 50.2118 40.9043C50.0944 41.1785 49.9911 41.5008 49.8574 41.7903C49.5994 42.3664 49.3144 42.9922 49.0085 43.5825L47.6516 46.3059L47.6211 46.2731Z" fill="#CDCDDF"/>
</g>
</svg>
