<svg width="69" height="72" viewBox="0 0 69 72" fill="none" xmlns="http://www.w3.org/2000/svg">
<g id="scribble final version-60">
<path id="Path" d="M20.152 25.4236C18.252 28.5136 16.372 31.6236 14.552 34.7836C13.882 35.9336 13.342 37.1436 12.672 38.2836L9.13204 44.2836C8.01204 46.2836 6.93204 48.3436 5.86205 50.4336C4.92205 52.2936 4.09204 54.2236 3.18204 56.1136C2.6399 57.3577 2.00824 58.5608 1.29204 59.7136C0.552584 60.8624 -0.287378 61.9433 -1.21796 62.9436C-1.80796 63.5536 -2.14796 63.1736 -2.21796 62.2636C-2.33167 60.9951 -2.17489 59.7169 -1.75796 58.5136C-1.50796 57.9136 -1.32796 57.2736 -1.04796 56.6836L-0.247955 54.8936L1.32204 51.2436C2.35044 48.7037 3.5464 46.2349 4.90204 43.8536C5.74204 42.3936 6.56205 40.8536 7.30204 39.4136C8.04204 37.9736 8.79204 36.4136 9.58204 34.9236C11.322 31.6836 13.112 28.4736 14.932 25.2636L18.332 19.3636C20.082 16.3636 21.922 13.4836 23.612 10.5236C24.272 9.37357 24.872 8.20357 25.462 7.02357C26.052 5.84357 26.632 4.67357 27.322 3.55357C27.622 3.06357 27.872 2.55357 28.192 2.06357C28.582 1.3883 29.098 0.79421 29.712 0.313568C30.1393 0.0412135 30.6539 -0.0588578 31.152 0.0335684C31.3872 0.0470427 31.6211 0.0771176 31.852 0.123568C32.202 0.223568 32.382 0.543568 32.432 1.04357C32.4788 1.69569 32.3726 2.34971 32.122 2.95357C31.3228 5.21719 30.3672 7.42251 29.262 9.55357C28.112 11.7336 26.902 13.8536 25.712 15.9936C23.922 19.1536 22.122 22.3336 20.252 25.4736L20.152 25.4236Z" fill="#CDCDDF"/>
<path id="Path_2" d="M31.0617 34.1235L25.7517 42.9135C25.1117 43.9835 24.5817 45.1135 23.9317 46.1835C21.6617 50.0435 19.2717 53.7835 16.9317 57.5435C15.9317 59.2035 14.9917 60.9635 14.0217 62.6435C12.8946 64.8765 11.5869 67.0136 10.1117 69.0335C9.62167 69.6535 9.00166 69.2035 8.63166 68.2435C8.16482 67.0289 8.18993 65.68 8.70166 64.4835C9.23166 63.3235 9.78167 62.1735 10.3417 61.0235C10.6317 60.4535 10.9117 59.8735 11.2117 59.3135L12.2117 57.6635C13.5117 55.4769 14.885 53.3202 16.3317 51.1935C17.1887 49.9068 17.97 48.5712 18.6717 47.1935L19.6717 45.1035C20.0317 44.4035 20.4017 43.7035 20.7917 43.0135C22.4917 40.0135 24.2017 37.0135 25.9517 34.0135L29.1617 28.4735C30.7617 25.6635 32.3517 22.8435 33.8917 20.0235C34.4817 18.9235 35.0117 17.8035 35.5517 16.6735C36.069 15.5355 36.643 14.4241 37.2717 13.3435C37.5517 12.8735 37.7917 12.3935 38.0917 11.9335C39.2217 10.2335 39.8517 9.87354 40.9717 10.1035C41.2292 10.1346 41.4835 10.1881 41.7317 10.2635C42.5117 10.5435 42.6317 11.6135 42.1017 13.0235C41.3372 15.1225 40.4455 17.173 39.4317 19.1635C38.4317 21.1635 37.2917 23.1635 36.1917 25.1635C34.5717 28.1635 32.8317 31.1635 31.1917 34.1635L31.0617 34.1235Z" fill="#CDCDDF"/>
<path id="Path_3" d="M46.4421 36.8536L41.7421 45.2036C41.1621 46.2036 40.7421 47.3036 40.1021 48.3036C38.0021 51.8836 35.6021 55.1836 33.4721 58.6736C32.4721 60.2136 31.6821 61.8236 30.8821 63.4136C29.8914 65.5011 28.7379 67.5073 27.4321 69.4136C27.0021 70.0036 26.4321 69.6536 26.1121 68.8036C25.6489 67.6925 25.5888 66.4544 25.9421 65.3036C26.3421 64.1736 26.7321 63.0436 27.1921 61.9436C27.6521 60.8436 28.1921 59.7936 28.7621 58.7436C29.8475 56.6274 31.0459 54.5711 32.3521 52.5836C33.9121 50.1736 35.1321 47.5036 36.5021 44.9736C38.0221 42.1936 39.5255 39.3903 41.0121 36.5636L43.7521 31.3236L47.9221 23.3236C48.9821 21.2636 49.8121 19.1136 50.8321 17.0436C51.0621 16.5836 51.2821 16.1436 51.5421 15.7036C52.5421 14.1136 53.2021 13.7836 54.3721 14.0436C54.6357 14.0871 54.8962 14.1472 55.1521 14.2236C55.9721 14.5236 56.1521 15.5636 55.8121 16.9036C55.2628 18.9071 54.5539 20.8633 53.6921 22.7536C52.8621 24.6736 52.0121 26.5936 51.0021 28.4536L46.5621 36.8536H46.4421Z" fill="#CDCDDF"/>
<path id="Path_4" d="M49.3205 51.6836L45.9005 56.6236C45.4805 57.2236 45.1705 57.8836 44.7505 58.4736C43.2805 60.5936 41.7505 62.7036 40.4505 64.8936C39.8634 65.8657 39.3261 66.867 38.8405 67.8936C38.3111 69.2469 37.6408 70.5407 36.8405 71.7536C36.5605 72.1136 36.0005 71.7536 35.5805 71.1536C35.091 70.4939 34.9324 69.6456 35.1505 68.8536C36.2941 66.0449 37.7286 63.3636 39.4305 60.8536C40.4305 59.3636 41.2305 57.6236 42.1505 56.0236C43.1505 54.2636 44.2705 52.5636 45.3805 50.8636L47.3805 47.7236C48.3805 46.1336 49.4705 44.5736 50.3805 42.9336C51.0905 41.6636 51.6005 40.3036 52.2105 39.0036C52.3505 38.7136 52.4505 38.4036 52.6005 38.1236C53.1705 37.1236 53.6005 36.9036 54.6005 37.2336C54.8353 37.2952 55.0658 37.372 55.2905 37.4636C56.0324 37.793 56.3879 38.6445 56.1005 39.4036C55.7299 40.6879 55.2446 41.9362 54.6505 43.1336C54.0405 44.3236 53.3405 45.4836 52.6505 46.6336C51.5905 48.3536 50.4505 50.0136 49.3605 51.7136L49.3205 51.6836Z" fill="#CDCDDF"/>
<path id="Path_5" d="M29.0713 17.2036L39.1613 22.3736C40.3813 22.9936 41.6613 23.5036 42.8713 24.1436L49.2912 27.5636C50.2912 28.1336 51.4613 28.7236 52.5112 29.3336L55.6613 31.2236C57.5079 32.3569 59.3746 33.3869 61.2612 34.3136C62.4613 34.9136 63.7113 35.3936 64.9012 36.0036L68.5312 37.8536C69.2812 38.2436 69.0413 38.6836 68.1712 39.0236C66.8888 39.4854 65.5012 39.5721 64.1712 39.2736C63.4598 39.1079 62.7586 38.9009 62.0713 38.6536C61.3913 38.3936 60.7313 38.1036 60.0713 37.8136C58.7513 37.2336 57.4712 36.5936 56.2212 35.9436C53.7312 34.6236 51.3312 33.3336 48.9613 31.9436C46.0713 30.2436 42.7812 28.9436 39.6912 27.4736L29.4312 22.4836C27.3312 21.4836 25.2246 20.5036 23.1112 19.5436C19.9112 18.0736 16.7113 16.5436 13.4412 15.3436C12.1712 14.8536 10.9012 14.4636 9.60125 14.0736L7.67125 13.5236L5.77125 12.9036C5.21125 12.7136 4.65125 12.5636 4.09125 12.3436C3.33594 12.1106 2.6282 11.7449 2.00125 11.2636C1.6356 10.9041 1.4119 10.4247 1.37125 9.91357C1.32344 9.6795 1.29335 9.44216 1.28125 9.20357C1.28125 8.83357 1.56125 8.59357 2.04125 8.43357C2.68869 8.23398 3.37459 8.19282 4.04125 8.31357C6.53891 8.60618 9.0054 9.12156 11.4113 9.85357C13.8212 10.6136 16.2312 11.5036 18.6213 12.4536C22.1613 13.8736 25.6812 15.3936 29.1112 17.0636L29.0713 17.2036Z" fill="#CDCDDF"/>
<path id="Path_6" d="M19.412 26.3435L29.6819 31.4135C30.9319 32.0335 32.232 32.5335 33.482 33.1535L46.5719 39.7835C48.5019 40.7835 50.512 41.6035 52.452 42.5135C55.0219 43.5603 57.5119 44.7936 59.902 46.2035C60.632 46.6835 60.242 47.2935 59.282 47.6735C57.99 48.1435 56.5739 48.1435 55.282 47.6735L51.282 46.1335C50.622 45.8735 49.962 45.6135 49.282 45.3235L47.3619 44.4135C44.8019 43.1935 42.272 41.8735 39.782 40.4935C36.782 38.8635 33.482 37.6235 30.332 36.1835C26.872 34.5835 23.4119 32.9735 19.962 31.3235L16.822 29.8535C15.762 29.3835 14.692 28.9235 13.612 28.4835C10.332 27.1435 7.01195 25.8035 3.66195 24.7035C2.36195 24.2835 1.04195 23.9335 -0.268049 23.6135C-1.57805 23.2935 -2.89805 23.0035 -4.19805 22.6135C-4.76805 22.4635 -5.33805 22.3435 -5.90805 22.1835C-8.00805 21.5535 -8.58805 21.1235 -8.82805 20.0335C-8.89623 19.7909 -8.94637 19.5435 -8.97805 19.2935C-9.03805 18.5135 -7.97805 18.0535 -6.25805 18.2035C-1.16805 18.5335 3.74195 20.2035 8.64195 21.9135C12.2719 23.2335 15.882 24.6635 19.452 26.2735L19.412 26.3435Z" fill="#CDCDDF"/>
<path id="Path_7" d="M17.9032 43.6336C20.8132 45.2136 23.7032 46.7936 26.6232 48.3136C27.6932 48.8736 28.8132 49.3136 29.8732 49.8536L35.4732 52.7436C37.3532 53.6836 39.2732 54.5836 41.2132 55.4636C42.9332 56.2336 44.7132 56.9136 46.4632 57.6136C48.7604 58.4315 50.9524 59.5191 52.9932 60.8536C53.6232 61.3036 53.2732 61.7536 52.4332 62.0236C51.3009 62.359 50.0956 62.359 48.9632 62.0236L45.5032 61.0036L42.0832 59.7336C39.8032 58.8636 37.5232 57.9336 35.2732 56.8336C33.9232 56.1636 32.5032 55.6136 31.0832 54.9836C29.6632 54.3536 28.2632 53.7736 26.9032 53.1136C23.9032 51.6536 20.9032 50.1136 17.9732 48.5936C16.1432 47.6636 14.3332 46.7136 12.5032 45.8136C9.72321 44.4436 6.90321 43.0536 4.11321 41.8536C1.92321 40.9336 -0.336787 40.3036 -2.56679 39.5936C-3.06679 39.4436 -3.56679 39.2936 -4.02679 39.1036C-5.81679 38.3736 -6.28679 37.8836 -6.33679 36.7936C-6.35649 36.5474 -6.35649 36.2999 -6.33679 36.0536C-6.26679 35.2836 -5.33679 34.9436 -3.82679 35.1236C-2.72734 35.2502 -1.63569 35.4371 -0.556787 35.6836C0.513213 35.9536 1.59321 36.2536 2.65321 36.5936C4.81262 37.2631 6.92413 38.0783 8.97321 39.0336C12.0332 40.4236 14.9732 41.9836 17.9732 43.4936L17.9032 43.6336Z" fill="#CDCDDF"/>
<path id="Path_8" d="M21.3127 56.2836C23.1927 57.1936 25.0927 58.0736 26.9627 59.0336C27.6427 59.3736 28.3627 59.6236 29.0427 59.9836L36.1627 63.8536C37.2227 64.4136 38.3027 64.9136 39.3927 65.3836C40.8043 65.9188 42.1471 66.6205 43.3927 67.4736C43.7727 67.7736 43.3927 68.3236 42.7827 68.7336C42.086 69.2204 41.2019 69.3536 40.3927 69.0936C37.5375 67.9378 34.7585 66.6018 32.0727 65.0936C30.3979 64.2395 28.6712 63.4914 26.9027 62.8536C24.9827 62.0536 23.0927 61.1736 21.1827 60.3236C20.0027 59.8036 18.8327 59.3236 17.6427 58.7836C15.8427 58.0336 14.0527 57.2336 12.2227 56.6136C10.8027 56.1236 9.32271 55.8536 7.90271 55.4936C7.58271 55.4136 7.26271 55.3636 6.90271 55.2636C5.73271 54.8936 5.46271 54.5036 5.58271 53.4436C5.59397 53.2021 5.6207 52.9616 5.66271 52.7236C5.85625 51.918 6.64911 51.407 7.46271 51.5636C8.83852 51.706 10.2 51.9636 11.5327 52.3336C12.8727 52.7336 14.1927 53.2136 15.5327 53.7236C17.5327 54.4936 19.4127 55.3536 21.3527 56.1936L21.3127 56.2836Z" fill="#CDCDDF"/>
<path id="Path_9" d="M1.80221 31.6336C3.00221 29.7136 4.19221 27.7936 5.34221 25.8536C5.76221 25.1436 6.09221 24.3836 6.51221 23.6836C7.98221 21.1836 9.51221 18.6836 10.9122 16.1736C11.5167 15.0413 12.0576 13.8762 12.5322 12.6836C13.0541 11.1298 13.7238 9.62957 14.5322 8.20363C15.1022 7.32363 17.1222 9.51363 16.4822 11.3536C15.3125 14.5697 13.8005 17.6508 11.9722 20.5436C10.8822 22.2836 9.97221 24.2236 8.97221 26.0536C7.84221 28.0536 6.66221 30.0536 5.48221 31.9736L3.31221 35.5936C2.23221 37.4336 1.10221 39.2436 0.122214 41.1136C-0.637786 42.5636 -1.20779 44.1136 -1.87779 45.5836C-2.01779 45.9136 -2.12779 46.2436 -2.28779 46.5836C-2.86779 47.7836 -3.28779 48.0436 -4.21779 47.8636C-4.43351 47.8287 -4.64716 47.7819 -4.85779 47.7236C-5.54779 47.5036 -5.80779 46.7236 -5.52779 45.7836C-4.57524 42.903 -3.31461 40.1337 -1.76779 37.5236C-0.657786 35.5236 0.532214 33.5736 1.68221 31.6036L1.80221 31.6336Z" fill="#CDCDDF"/>
</g>
</svg>
