<svg width="94" height="107" viewBox="0 0 94 107" fill="none" xmlns="http://www.w3.org/2000/svg">
<g id="scribble final version-146">
<path id="Path" d="M21.5679 70.6818C24.0508 72.0364 26.5168 73.3334 28.9885 74.6496C29.8892 75.1248 30.8237 75.538 31.7271 76.0228C34.9025 77.7471 38.0711 79.4838 41.1719 81.3447L45.3416 83.7564C47.1749 84.7369 48.8371 86.0083 50.2634 87.5209C50.6906 88.052 50.4383 88.1157 49.8655 87.9402C48.9923 87.6852 48.1423 87.3563 47.325 86.9569C46.8876 86.7102 46.4147 86.4845 45.9706 86.2502L45.2799 85.9217L44.6073 85.6192L41.898 84.1331C40.095 83.1414 38.2565 82.1706 36.4598 81.0937C34.3194 79.8052 31.9306 78.7356 29.6497 77.5718L22.1252 73.6762C20.5818 72.8583 19.0508 72.0473 17.5193 71.1634C17.2309 70.998 16.933 70.8355 16.6486 70.6481C16.3642 70.4607 16.3574 70.4731 16.2124 70.3698C16.0673 70.2665 15.9184 70.1853 15.7124 70.0165C15.3168 69.7604 15.0352 69.3616 14.9264 68.903C14.8971 68.6708 14.8981 68.4358 14.9292 68.2038C14.9535 67.9674 15.0038 67.7129 15.0343 67.5684C15.3425 66.2061 15.7822 64.972 16.1503 63.7068C16.7452 61.7599 17.2386 59.822 17.7376 57.9033C17.8511 57.4738 17.9262 57.0557 18.0645 56.6398C18.2268 56.0921 18.4364 55.5597 18.691 55.0484C18.8639 54.7874 19.0974 54.5721 19.3716 54.4209C19.4728 54.3481 19.5788 54.2821 19.6888 54.2234C19.8519 54.1755 19.9806 54.294 20.0945 54.6461C20.2431 55.1297 20.2864 55.6394 20.2214 56.1411C19.8695 59.8718 18.3472 63.4152 17.5518 66.9845C17.4897 67.305 17.418 67.6284 17.3694 67.9241L17.3395 68.1414C17.3395 68.1414 17.3564 68.1989 17.3395 68.1414L17.6019 68.3248L18.0133 68.5895C19.1396 69.3007 20.3907 69.9751 21.6226 70.6552L21.5679 70.6818Z" fill="#CDCDDF"/>
<path id="Path_2" d="M52.6334 66.582C52.6334 66.582 54.8072 65.7865 54.7831 64.4281C54.7589 63.0698 55.8889 68.1889 55.8889 68.1889L52.6334 66.582Z" fill="#CDCDDF"/>
<path id="Path_3" d="M52.826 55.2258L47.0527 57.2152L44.9776 57.9922L41.2761 59.2994C40.0193 59.669 38.7879 60.1248 37.5536 60.5711C36.4633 60.9751 35.3786 61.3983 34.3131 61.8158L30.1731 63.4396C29.7317 63.5694 29.7893 63.5525 30.1561 63.3821C30.523 63.2117 31.1313 62.8347 31.8977 62.4635C34.632 61.1279 37.372 59.8115 40.157 58.6487L45.3248 56.5142L51.0563 54.2765L54.5942 52.9444C56.3844 52.2617 58.1829 51.6078 59.9398 50.8827C61.3106 50.3338 62.5996 49.6837 63.9343 49.0828C64.2413 48.9926 64.5105 48.8092 64.857 48.676C65.9648 48.2252 66.3728 48.2303 66.7763 48.539C66.8734 48.6073 66.9628 48.6859 67.0432 48.7733C67.2858 49.0667 66.9376 49.5131 66.1565 49.9408C63.7561 51.2006 61.2658 52.2812 58.706 53.1738L52.8345 55.2546L52.826 55.2258Z" fill="#CDCDDF"/>
<path id="Path_4" d="M34.3329 57.1301L32.6355 55.9302C32.4256 55.7835 32.2021 55.6616 32.0018 55.512C31.3038 54.9459 30.6221 54.3646 29.9376 53.7737L29.0223 53.0005C28.6253 52.7023 28.2773 52.3439 27.9908 51.9383C27.817 51.6663 28.4491 51.6889 28.8813 51.9892C29.6414 52.5891 30.493 53.1101 31.2903 53.7303C31.7973 54.0721 32.3215 54.3876 32.8608 54.6757L34.6 55.7695L35.6806 56.4316C36.2353 56.7584 36.7833 57.0976 37.3555 57.3775C37.8132 57.5695 38.2803 57.7383 38.755 57.8833C38.8602 57.9088 38.9637 57.941 39.0648 57.9798C39.4355 58.1418 39.4999 58.2897 39.3808 58.6999C39.3598 58.7967 39.332 58.892 39.2978 58.9849C39.2032 59.277 38.9035 59.4506 38.6031 59.3872C37.7068 59.1683 36.8529 58.8031 36.0755 58.3063C35.4807 57.9496 34.9108 57.6065 34.3087 57.1894L34.3329 57.1301Z" fill="#CDCDDF"/>
<path id="Path_5" d="M24.4043 69.91C27.4978 71.8877 30.6551 73.7632 33.8124 75.6387C34.9867 76.3358 36.2587 76.8686 37.385 77.5797C41.496 80.04 45.5624 82.5967 49.6237 85.2071C51.4007 86.394 53.2431 87.52 55.0461 88.6889L56.7994 89.8307C57.3496 90.2839 57.8845 90.7207 58.4008 91.236C59.5418 92.2655 60.4389 93.5364 61.0269 94.9563C61.3683 96.1171 60.6042 95.8936 59.7069 95.6779C58.4864 95.5277 57.2866 95.2406 56.1302 94.8221C55.5676 94.5394 54.979 94.2746 54.3713 94.0156C53.7959 93.7097 53.2375 93.3728 52.6987 93.0064L49.2812 90.8843L47.5629 89.826L45.8768 88.6645C44.7499 87.8805 43.6298 87.0842 42.5136 86.2658C39.6791 84.4048 36.7429 82.7035 33.7188 81.1697C30.482 79.3072 27.2367 77.4158 24.0128 75.4557C22.0202 74.28 20.0395 73.0383 18.0453 71.6443L17.4787 71.2063C17.2479 71.024 17.003 70.7937 16.7637 70.5826C16.3187 70.1624 15.9614 69.6581 15.7125 69.0989C15.5889 68.4824 15.5508 67.8517 15.5992 67.2248C15.693 66.551 15.7489 66.1384 15.8443 65.683C16.1836 63.8947 16.6019 62.1978 16.9474 60.5014C17.2133 59.1724 17.4216 57.8604 17.5984 56.5472C17.7751 55.234 17.8666 53.9146 18.1523 52.6528C18.277 52.0845 18.3307 51.558 18.4555 50.9897C18.5772 50.2579 18.7953 49.5453 19.104 48.8707C19.3641 48.4826 19.7129 48.1621 20.1216 47.9357C20.3231 47.8764 20.4947 47.6801 20.6589 47.6005C20.8231 47.5209 21.2085 47.6265 21.5127 48.0582C21.9132 48.6636 22.1509 49.362 22.2027 50.0859C22.3307 51.3721 22.3983 52.6655 22.4287 53.9387C22.4486 54.5702 22.4111 55.2022 22.3168 55.8269C22.2502 56.4511 22.1615 57.0713 22.0729 57.6914C21.7087 60.175 21.2153 62.6445 20.8584 65.0113L20.636 66.2754C20.5996 66.4754 20.5755 66.6774 20.5637 66.8804L20.5394 67.1168C20.522 67.1126 20.5038 67.118 20.4914 67.1309C20.3616 67.044 20.8272 67.3866 21.1076 67.596L22.1572 68.3297C22.8931 68.8117 23.6577 69.2852 24.4291 69.7463L24.4043 69.91Z" fill="#CDCDDF"/>
<path id="Path_6" d="M65.3941 29.4753C67.1193 31.6778 69.0096 33.7458 71.0488 35.6614C73.1147 37.6181 75.2923 39.4585 77.6488 41.3402L80.051 43.271L80.5617 43.9442L80.8088 44.2885L80.9392 44.4482L80.9674 44.5442L80.8139 44.5893C80.9323 44.834 81.0095 45.0966 81.0424 45.3664C81.0488 45.6576 81.0224 45.9485 80.9639 46.2338C80.8261 46.8421 80.6546 47.4424 80.4502 48.0317L80.1894 48.7755L79.9969 49.2907C77.1493 56.4445 74.16 63.4002 71.5184 70.5456C70.3641 73.7097 69.2267 76.9314 68.2908 80.0939C67.6608 82.1344 67.1122 84.2032 66.5674 86.25C66.0227 88.2968 65.2799 90.308 64.8339 92.3362C64.5742 93.58 64.1199 93.453 63.5173 92.2543C62.7396 90.308 62.4321 88.2057 62.6199 86.1182C63.441 81.7176 64.5339 77.3721 65.8924 73.1067C67.3436 68.8963 68.963 64.7616 70.7393 60.6641C71.8061 58.2658 72.756 55.6829 73.6705 53.1209L75.9785 46.5426C75.956 46.4659 76.0813 46.3248 75.9983 46.2554L75.7743 46.0607C75.7461 45.9647 75.6027 45.9027 75.5045 45.8169L75.228 45.5855L74.8342 45.2739L73.2586 44.0278C72.2249 43.206 71.147 42.3764 70.0975 41.4654C67.9722 39.6987 65.9541 37.807 64.0539 35.8002C63.3739 35.0829 62.7171 34.3379 62.0767 33.5777C61.7482 33.2052 61.4458 32.8147 61.1337 32.4269L60.7884 31.9969L60.587 31.7017C60.4699 31.5186 60.3327 31.3492 60.1779 31.1966C59.9635 31.2142 59.7513 31.2522 59.5441 31.31L59.2275 31.4031L57.5486 31.8968C56.2049 32.2189 54.9768 32.9344 53.6264 33.2689L49.6607 34.5287L45.7148 35.8557C44.3908 36.245 43.0923 36.7207 41.788 37.1771C37.7467 38.6051 33.9114 40.3791 29.9954 42.0204C29.1313 42.3787 28.3159 42.7957 27.4338 43.128C26.5517 43.4603 25.9337 43.6629 25.3457 43.8253C24.8174 43.8996 24.2808 43.8921 23.7548 43.8032C22.9765 43.6646 22.2492 43.3207 21.6483 42.807C21.3894 42.6201 21.142 42.4179 20.9073 42.2014C20.6038 41.8425 20.7279 41.3786 21.1569 40.7105C21.7425 39.7815 22.5108 38.9811 23.415 38.3579C26.8781 36.5432 30.4347 34.9129 34.07 33.4739C35.9323 32.7178 37.805 31.997 39.6881 31.3113C41.573 30.632 43.4438 29.9047 45.371 29.3693L49.2086 28.2409L51.1274 27.6767C51.7642 27.4739 52.4149 27.3175 53.0744 27.2085C53.7578 27.1222 54.4496 27.0647 55.0862 26.9609L57.0626 26.3798C57.264 26.3206 58.0987 26.0751 58.6884 25.9539C59.0108 25.8635 59.3388 25.7949 59.6704 25.7485L60.1309 25.6131C60.2797 25.602 60.4292 25.6181 60.5722 25.6606C60.8563 25.6907 61.1299 25.7849 61.3724 25.936L61.746 26.1076C61.8024 25.9451 61.6387 26.4518 61.8724 25.7577L61.9525 25.8175L62.128 25.9536L63.5247 26.9813L64.8626 28.5892L65.4743 29.3579L65.3941 29.4753Z" fill="#CDCDDF"/>
<path id="Path_7" d="M52.587 56.4642C49.9729 57.3579 47.3577 58.2832 44.7719 59.2728C43.8322 59.6221 42.9377 60.1248 41.9924 60.4549C38.5973 61.5991 35.2079 62.7625 31.8646 64.0477C31.1141 64.331 30.3996 64.6661 29.649 64.9494L27.4373 65.829C26.5061 66.207 25.5806 66.6042 24.6381 66.9439L23.8994 67.1611L23.1257 67.2948C22.6003 67.3867 22.0845 67.4759 21.5354 67.5227C21.1923 67.561 20.9733 67.4899 21.0072 67.4278C21.041 67.3657 21.1833 67.2822 21.378 67.0582C21.6508 66.761 21.907 66.449 22.1455 66.1237L22.6529 65.4742C22.7398 65.3444 22.8476 65.2502 22.9413 65.108L23.2884 64.8704C25.0436 63.7498 26.7903 62.6004 28.5708 61.5661C30.405 60.7141 32.3644 59.8982 34.3481 59.2003C36.7155 58.3896 38.9363 57.0799 41.3478 56.0999C43.9551 55.0414 46.5889 54.0376 49.2312 53.0627L54.1365 51.2764C56.6021 50.3742 59.1276 49.5691 61.5808 48.6602C62.5204 48.3109 63.446 47.9137 64.3715 47.5165L65.779 46.915C66.0188 46.8445 66.2485 46.704 66.4856 46.6239L67.2243 46.4067C67.6656 46.2769 68.0877 46.1528 68.5291 46.023C70.2068 45.7382 70.8253 45.9628 71.3349 46.8449C71.4597 47.0224 71.5704 47.2094 71.6661 47.4042C71.9205 47.986 71.3968 48.828 70.3488 49.3759C69.5733 49.8228 68.7979 50.2696 68.0089 50.7414C67.2154 51.1537 66.3926 51.5071 65.5472 51.7987C63.8694 52.438 62.138 53.0722 60.4009 53.6871C57.8202 54.6232 55.1869 55.5225 52.5915 56.515L52.587 56.4642Z" fill="#CDCDDF"/>
<path id="Path_8" d="M50.0866 45.5148C49.4093 46.7563 48.732 47.9978 48.0548 49.2393L45.9258 53.0235C45.4054 53.9479 45.0063 54.9303 44.4448 55.8564L43.6619 57.1289C43.2677 57.7811 42.8179 58.3981 42.3175 58.973C42.0487 59.2079 41.7639 59.4239 41.4653 59.6197C41.1536 59.745 40.8242 59.8207 40.489 59.8442C39.7559 59.8409 39.035 59.6552 38.3915 59.304C38.0455 59.1555 37.7132 58.9822 37.3808 58.809L36.6839 58.3885C36.2685 58.1458 35.8667 57.8783 35.4774 57.6175L33.1671 56.0349C31.8495 55.0986 30.4144 54.2593 29.0223 53.4596C28.0969 53.0018 27.2091 52.4717 26.3672 51.8741C25.5411 51.2623 24.7325 50.6037 23.8871 49.9975C23.3691 49.6183 23.5051 49.4428 24.1688 49.2893C25.2164 49.0558 26.2984 49.0205 27.359 49.1852L28.1846 49.3698C28.4591 49.4131 28.7258 49.4962 28.9763 49.6164L30.4379 50.3333C31.4046 50.8204 32.3549 51.3227 33.2792 51.8431C35.1279 52.8839 36.9523 53.9839 38.6339 55.0946C38.7771 55.169 38.9054 55.2691 39.0125 55.3898C39.0947 55.454 39.1814 55.5121 39.2721 55.5636C39.3645 55.6202 39.4707 55.6503 39.5791 55.6506C39.675 55.6224 39.7292 55.523 39.7986 55.4401C39.8587 55.3552 39.9126 55.2662 39.9601 55.1737L40.2564 54.5863L41.1087 52.8764L44.9507 45.1696L46.2155 42.8069L47.6373 40.3042C48.0662 39.4691 48.607 38.6964 49.2447 38.0075C49.5557 37.7346 49.9114 37.5172 50.2961 37.3648C50.7112 37.3951 51.1172 37.5019 51.4936 37.6798C52.3509 38.0747 53.1804 38.5272 53.9765 39.0344L55.7208 40.0746C57.5187 41.1198 59.3945 41.9338 61.2697 42.8521C61.6833 43.0536 62.1049 43.2111 62.4858 43.443C62.672 43.5446 62.839 43.6519 62.9908 43.7427C63.1426 43.8336 63.2385 43.9826 63.3424 44.0876C63.5232 44.2843 63.6731 44.5073 63.787 44.749C63.88 44.9596 63.9258 45.1881 63.9213 45.4183C63.8979 45.6954 63.8456 45.9692 63.7654 46.2354C63.696 46.4956 63.665 46.7445 63.5882 46.9442C63.3963 47.5323 62.2123 48.0784 60.9787 47.7115C60.5153 47.615 60.0651 47.464 59.6373 47.2616C59.2005 47.0878 58.7677 46.8919 58.3444 46.6933C57.4884 46.2987 56.6526 45.8669 55.8208 45.4132C54.989 44.9594 54.1612 44.4836 53.3379 44.0586L52.0823 43.3333L51.5868 43.0308C51.5868 43.0308 51.5868 43.0308 51.5699 42.9732C51.553 42.9156 51.5699 42.9732 51.5028 42.993L51.3933 43.2232L51.1522 43.6797L50.1956 45.5662L50.0866 45.5148Z" fill="#CDCDDF"/>
<path id="Path_9" d="M38.3339 69.7439C38.663 69.3032 38.9977 68.8817 39.2895 68.4207C39.3995 68.2632 39.4255 68.068 39.548 67.9173C39.96 67.3688 40.4216 66.8474 40.802 66.2978C40.956 66.0491 41.0625 65.7739 41.1159 65.4863C41.1955 65.1189 41.1346 64.699 41.5668 64.4677C41.8349 64.3159 44.4477 65.5802 44.3427 66.0384C44.1333 66.8387 43.6809 67.5544 43.0479 68.0869C42.6371 68.4266 42.5778 68.9339 42.3706 69.3284C42.1635 69.7228 41.813 70.2324 41.5376 70.6782C41.2621 71.124 41.1888 71.2289 41.033 71.5145C40.7869 71.9168 40.5608 72.3312 40.3557 72.7559C40.2264 73.0962 40.2625 73.5026 40.1197 73.8677C40.1104 73.9472 40.0873 74.0246 40.0514 74.0962C39.89 74.3626 39.6772 74.3834 39.1253 74.2434L38.7427 74.1475C38.3846 74.0613 38.0821 73.8227 37.9149 73.4945C37.7337 73.0913 37.6084 72.6652 37.5425 72.2281C37.5456 71.8656 37.5861 71.5044 37.6634 71.1502C37.7182 70.5921 38.1065 70.1756 38.3543 69.7067L38.3339 69.7439Z" fill="#CDCDDF"/>
<path id="Path_10" d="M59.152 67.4165C59.1905 67.6989 59.176 67.986 59.1091 68.263L58.9911 68.9961L58.7472 70.5062C58.632 70.7173 58.6179 71.0237 58.474 71.2432C58.4336 71.2421 58.3935 71.2364 58.3543 71.2263C56.5221 70.7731 54.7474 70.1129 53.0644 69.2586L51.9488 68.6902L51.3918 68.4266L50.8913 68.0005C50.4726 67.6754 49.9907 67.5253 49.7875 67.3661C49.5103 67.1944 49.2726 66.9659 49.09 66.6956C48.9704 66.5015 49.2492 65.9609 49.681 65.4796C50.1128 64.9982 50.7268 64.4633 51.1105 64.5276L51.5947 64.6146L51.6523 64.5977C51.6523 64.5977 51.6523 64.5977 51.6777 64.684C51.7988 64.9439 51.9637 65.181 52.1652 65.3849C52.2951 65.541 52.4566 65.6676 52.6392 65.7563C52.773 65.8212 52.8249 65.7851 52.9987 65.8799C53.0342 65.8866 53.0689 65.8974 53.102 65.9121C53.1787 65.8895 53.3446 66.0284 53.4242 66.0154C53.4715 65.9805 53.5118 65.9368 53.5427 65.8867C53.6087 65.7802 53.6518 65.661 53.6691 65.5369C53.6989 65.3272 53.6926 65.114 53.6506 64.9065C53.6145 64.4395 53.481 63.9852 53.2585 63.573C53.0878 63.2956 52.8771 63.045 52.6332 62.8291C52.4143 62.5808 52.1762 62.3381 51.9708 62.065C51.8737 61.9476 51.7383 61.8415 51.7247 61.6891C51.6159 61.1061 51.8795 60.7264 52.8434 60.3179C53.0559 60.219 53.2746 60.1338 53.498 60.0628C54.1105 59.846 54.7682 59.7889 55.4089 59.8971L55.9444 60.0523C56.0874 60.1149 56.2227 60.1941 56.3473 60.2882C56.589 60.4636 56.812 60.6636 57.0126 60.8848C57.1764 61.119 57.322 61.3654 57.4482 61.6218L57.5075 61.8233L57.6835 62.2093L58.0136 62.9774C58.5941 64.415 59.0324 65.906 59.3225 67.429L59.152 67.4165Z" fill="#CDCDDF"/>
<path id="Path_11" d="M24.1381 30.2232C24.4355 30.1358 24.3248 30.5748 24.0206 31.3835C23.8585 31.753 23.6437 32.097 23.3828 32.4049C23.1873 32.5359 22.9787 32.6461 22.7603 32.7338C22.1719 32.6536 21.5886 32.5397 21.0132 32.3928C20.6308 32.3075 20.2703 32.1438 19.9545 31.9119C19.3056 31.4773 18.6623 31.0619 18.0133 30.6273C17.8722 30.5192 17.7543 30.3837 17.6668 30.2289C17.3657 29.7055 16.9254 29.2758 16.3949 28.9873C16.3148 28.9274 16.2482 28.8428 16.0947 28.8879C15.9412 28.9331 14.6185 27.8731 14.5412 27.6457C14.3002 27.1011 14.0877 26.5443 13.9048 25.9775C13.8822 25.9007 13.7981 25.8629 13.8286 25.7184C13.9201 25.5185 13.8838 25.2832 13.7361 25.1202C13.6132 24.9074 13.5182 24.6796 13.4534 24.4425C13.4461 24.2742 13.4671 24.106 13.5155 23.9447C13.546 23.8003 13.9016 23.5915 13.9524 23.587C14.0032 23.5825 14.2188 23.394 14.3525 23.2817L14.4891 23.179C14.7527 23.1822 15.0155 23.2096 15.2741 23.2609C15.5582 23.2851 15.8409 23.3237 16.1211 23.3766C16.1211 23.3766 16.5223 23.5714 16.9783 23.7396C17.4343 23.9078 17.8073 24.1838 17.9077 24.2064C18.0082 24.2289 18.0409 24.3757 18.0815 24.4784C18.1221 24.5811 19.3902 25.1359 19.4189 25.1275C19.6142 25.3306 19.9279 25.4052 19.9409 25.8391C19.9663 25.9255 19.9747 25.9543 20.0464 25.9853C20.4467 26.2812 20.8075 26.6269 21.1203 27.0142C21.3085 27.1834 21.5104 27.3367 21.7241 27.4725C21.7241 27.4725 21.7523 27.5684 21.7664 27.6164C21.7805 27.6643 21.8059 27.7507 21.8651 27.7749C22.3113 28.1728 22.7984 28.5222 23.3182 28.8174C23.4559 28.8603 23.7758 29.5584 23.9327 29.5956C24.0896 29.6329 24.0229 30.2571 24.1381 30.2232Z" fill="#CDCDDF"/>
<path id="Path_12" d="M50.8056 19.245C50.9794 19.517 50.5172 19.6113 49.6735 19.5779C49.2854 19.5333 48.9055 19.4345 48.5449 19.2843C48.3653 19.1422 48.1974 18.9859 48.0427 18.817C48.0144 18.7211 47.7978 17.5236 47.6957 17.1054C47.601 16.7218 47.583 16.3233 47.6428 15.9327C47.7467 15.1517 47.8065 14.3627 47.9009 13.5845C47.92 13.4039 47.9792 13.2298 48.0741 13.075C48.3885 12.5413 48.5413 11.9279 48.5139 11.3092C48.4857 11.2133 48.5591 11.1083 48.4208 10.9926C48.3002 10.3182 48.3467 9.62452 48.5564 8.9723L49.464 7.48592C49.5074 7.42102 49.4217 7.34201 49.6451 7.28672C49.868 7.27064 50.0488 7.09982 50.0774 6.87818C50.1565 6.64695 50.2721 6.42994 50.42 6.23543C50.5633 6.11684 50.7276 6.02612 50.9043 5.96797C51.15 5.94306 51.3981 5.98135 51.6249 6.0792C51.7784 6.21127 52.0363 6.16671 52.2632 6.19381L52.4928 6.23051C52.8595 6.72321 53.1584 7.26284 53.3815 7.83498C53.3815 7.83498 53.4142 8.33611 53.4526 8.85643C53.4909 9.37675 53.466 9.8948 53.5027 10.0195C53.5394 10.1442 53.4096 10.2345 53.3458 10.3367C53.282 10.4388 53.3829 11.9518 53.3682 12.0082C53.2717 12.318 53.358 12.647 52.9878 12.9123C52.9015 12.9376 52.9201 13.0364 52.9178 13.0996C52.8412 13.6449 52.701 14.1794 52.5001 14.6921C52.4378 14.9671 52.3909 15.2454 52.3595 15.5256C52.3736 15.5736 52.2929 15.6182 52.2658 15.6678C52.2387 15.7175 52.1732 15.7784 52.171 15.8416C52.0112 16.4941 51.8996 17.1575 51.8373 17.8264C51.8824 17.9799 51.3271 18.6435 51.3423 18.8371C51.3575 19.0306 50.7475 19.1891 50.8056 19.245Z" fill="#CDCDDF"/>
<path id="Path_13" d="M48.375 47.1748L46.9121 49.8563C46.7388 50.1887 46.6152 50.5482 46.4391 50.871C45.812 52.0351 45.163 53.1954 44.5703 54.3703C44.3079 54.8956 44.0826 55.4413 43.867 55.9842C43.642 56.7469 43.2457 57.4481 42.7083 58.0343C42.4887 58.2448 42.315 57.9728 42.1406 57.628C41.8924 57.2939 41.7714 56.8823 41.7993 56.4671C41.9686 55.7394 42.2189 55.033 42.5455 54.3611C42.8683 53.65 43.2279 52.9563 43.623 52.2827C44.039 51.4439 44.4049 50.581 44.7185 49.6987C45.1261 48.745 45.5584 47.8049 45.9744 46.88L46.8363 45.1673C47.2692 44.3 47.7365 43.4433 48.1542 42.5596C48.4635 41.8745 48.6667 41.1477 48.9935 40.4158C49.072 40.2572 49.1256 40.0851 49.2069 39.9361C49.3323 39.7215 49.5409 39.5683 49.7832 39.5128C50.0255 39.4574 50.28 39.5046 50.4862 39.6433L50.7842 39.8059C50.928 39.9186 51.0321 40.0742 51.0816 40.25C51.1587 40.4539 51.1909 40.672 51.1758 40.8894C51.1614 41.2051 51.0902 41.5155 50.9658 41.8059C50.8484 42.0801 50.7451 42.4024 50.6113 42.6919C50.3533 43.268 50.0683 43.8939 49.7624 44.4841L48.4055 47.2075L48.375 47.1748Z" fill="#CDCDDF"/>
</g>
</svg>
