<svg width="16" height="16" viewBox="0 0 16 16" fill="none" xmlns="http://www.w3.org/2000/svg">
<g id="Huge-icon/device/bulk/setting">
<g id="setting">
<path id="Vector" opacity="0.4" d="M8.56566 2.6665H7.43435C6.80954 2.6665 6.30303 3.14407 6.30303 3.73317C6.30303 4.40731 5.58173 4.83591 4.98963 4.5136L4.9295 4.48086C4.38839 4.18631 3.69649 4.36111 3.38409 4.87129L2.81843 5.79505C2.50602 6.30523 2.69142 6.95759 3.23252 7.25214C3.8249 7.57461 3.8249 8.42507 3.23252 8.74753C2.69142 9.04209 2.50602 9.69445 2.81843 10.2046L3.38409 11.1284C3.69649 11.6386 4.38839 11.8134 4.9295 11.5188L4.98963 11.4861C5.58173 11.1638 6.30303 11.5924 6.30303 12.2665C6.30303 12.8556 6.80954 13.3332 7.43435 13.3332H8.56566C9.19047 13.3332 9.69698 12.8556 9.69698 12.2665C9.69698 11.5924 10.4183 11.1638 11.0104 11.4861L11.0705 11.5188C11.6116 11.8134 12.3035 11.6386 12.6159 11.1284L13.1816 10.2046C13.494 9.69444 13.3086 9.04208 12.7675 8.74753C12.1751 8.42506 12.1751 7.57461 12.7675 7.25215C13.3086 6.9576 13.494 6.30523 13.1816 5.79505L12.6159 4.87129C12.3035 4.36112 11.6116 4.18632 11.0705 4.48087L11.0104 4.5136C10.4183 4.83592 9.69698 4.40731 9.69698 3.73317C9.69698 3.14407 9.19047 2.6665 8.56566 2.6665Z" fill="#4E5668"/>
<path id="Ellipse 91" d="M10 8C10 9.10457 9.10457 10 8 10C6.89543 10 6 9.10457 6 8C6 6.89543 6.89543 6 8 6C9.10457 6 10 6.89543 10 8Z" fill="#4E5668"/>
</g>
</g>
</svg>
