<svg width="20" height="20" viewBox="0 0 20 20" fill="none" xmlns="http://www.w3.org/2000/svg">
<g id="share">
<path id="Rectangle 959" opacity="0.4" d="M0 4C0 1.79086 1.79086 0 4 0H16C18.2091 0 20 1.79086 20 4V16C20 18.2091 18.2091 20 16 20H4C1.79086 20 0 18.2091 0 16V4Z" fill="#252525"/>
<path id="Ellipse 1089 (Stroke)" fill-rule="evenodd" clip-rule="evenodd" d="M10.376 5.58405C10.6057 5.23941 11.0714 5.14628 11.416 5.37604L14.416 7.37604C14.7607 7.60581 14.8538 8.07146 14.624 8.4161L12.624 11.4161C12.3943 11.7608 11.9286 11.8539 11.584 11.6241C11.2393 11.3944 11.1462 10.9287 11.376 10.5841L12.5342 8.84666C11.1792 9.0275 9.9123 9.45993 8.91603 10.1241C7.58888 11.0089 6.75 12.291 6.75 14.0001C6.75 14.4143 6.41421 14.7501 6 14.7501C5.58579 14.7501 5.25 14.4143 5.25 14.0001C5.25 11.7091 6.41112 9.99128 8.08397 8.87604C9.1621 8.15729 10.455 7.6838 11.8105 7.44181L10.584 6.62412C10.2393 6.39435 10.1462 5.9287 10.376 5.58405Z" fill="#252525"/>
</g>
</svg>
