<svg width="24" height="25" viewBox="0 0 24 25" fill="none" xmlns="http://www.w3.org/2000/svg">
<g id="Huge-icon/interface/bulk/smile-rectangle">
<g id="smile rectangle">
<path id="Vector 167" opacity="0.4" d="M6 2.58337H18C20.2091 2.58337 22 4.37424 22 6.58337V18.5834C22 20.7925 20.2091 22.5834 18 22.5834H6C3.79086 22.5834 2 20.7925 2 18.5834V6.58337C2 4.37424 3.79086 2.58337 6 2.58337Z" fill="#252525"/>
<path id="Ellipse 38" d="M17 10.5834C17 11.1357 16.5523 11.5834 16 11.5834C15.4477 11.5834 15 11.1357 15 10.5834C15 10.0311 15.4477 9.58337 16 9.58337C16.5523 9.58337 17 10.0311 17 10.5834Z" fill="#252525"/>
<path id="Ellipse 39" d="M9 10.5834C9 11.1357 8.55228 11.5834 8 11.5834C7.44772 11.5834 7 11.1357 7 10.5834C7 10.0311 7.44772 9.58337 8 9.58337C8.55228 9.58337 9 10.0311 9 10.5834Z" fill="#252525"/>
<path id="Vector 168 (Stroke)" fill-rule="evenodd" clip-rule="evenodd" d="M9.49455 15.0195C9.1849 14.7479 8.71354 14.7768 8.43945 15.0851C8.16426 15.3947 8.19215 15.8688 8.50174 16.1439L9.00001 15.5834C8.50174 16.1439 8.5015 16.1437 8.50174 16.1439L8.5027 16.1448L8.50376 16.1457L8.50622 16.1479L8.51243 16.1533L8.53 16.1683C8.54398 16.1801 8.56252 16.1954 8.58552 16.2136C8.6315 16.2501 8.6955 16.2988 8.77679 16.3553C8.93912 16.4682 9.17203 16.6139 9.46968 16.7582C10.065 17.0469 10.9268 17.3334 12 17.3334C13.0733 17.3334 13.935 17.0469 14.5303 16.7582C14.828 16.6139 15.0609 16.4682 15.2232 16.3553C15.3045 16.2988 15.3685 16.2501 15.4145 16.2136C15.4375 16.1954 15.456 16.1801 15.47 16.1683L15.4876 16.1533L15.4938 16.1479L15.4963 16.1457L15.4973 16.1448C15.4976 16.1446 15.4983 16.1439 15 15.5834L15.4983 16.1439C15.8079 15.8688 15.8358 15.3947 15.5606 15.0851C15.2865 14.7768 14.8151 14.7479 14.5055 15.0195L14.5046 15.0203C14.5012 15.0232 14.4929 15.03 14.4815 15.0391C14.4587 15.0572 14.4201 15.0868 14.3666 15.124C14.2594 15.1985 14.0939 15.3028 13.8759 15.4085C13.44 15.6199 12.8018 15.8334 12 15.8334C11.1983 15.8334 10.56 15.6199 10.1241 15.4085C9.90611 15.3028 9.74058 15.1985 9.63338 15.124C9.57991 15.0868 9.54136 15.0572 9.5185 15.0391C9.50708 15.03 9.49961 15.0238 9.4962 15.0209C9.49547 15.0203 9.49491 15.0198 9.49455 15.0195C9.49456 15.0195 9.49455 15.0195 9.49455 15.0195ZM14.5055 15.0195L14.5046 15.0203L14.5034 15.0214L14.5026 15.0221C14.5037 15.0211 14.5044 15.0205 14.5055 15.0195Z" fill="#252525"/>
</g>
</g>
</svg>
