<svg width="65" height="69" viewBox="0 0 65 69" fill="none" xmlns="http://www.w3.org/2000/svg">
<g id="Frame 1000003855">
<path id="Vector" d="M3.5116 53.945C7.93697 52.1656 12.3623 50.3724 16.7422 48.4837C17.935 50.3406 19.1233 52.1974 20.3071 54.0543C21.4771 55.8747 23.9493 54.8689 23.7627 52.7936L23.0888 45.6165C27.414 43.5958 31.671 41.4295 35.8004 39.0128C36.1495 38.8147 36.4258 38.5098 36.5887 38.1431C36.7515 37.7763 36.7924 37.367 36.7053 36.9752C36.6181 36.5835 36.4076 36.2301 36.1046 35.9669C35.8015 35.7037 35.422 35.5446 35.0218 35.513C30.6557 35.0988 26.2531 34.6483 21.9962 33.5697C21.7412 30.751 21.4847 27.9308 21.2267 25.1091C21.6592 24.3263 22.0918 23.539 22.5152 22.7516C23.3256 21.2543 21.9415 19.8116 20.694 19.889C20.0111 18.2051 16.9971 19.0743 17.1929 21.2225L17.4706 24.2854C16.3263 26.3698 15.1639 28.4284 13.9831 30.4612C13.1058 29.9567 12.2632 29.3942 11.4609 28.7773C9.41664 27.1981 7.77306 25.2047 4.92753 25.7099C3.82119 25.9056 3.02445 27.3938 3.68006 28.3859C5.70456 31.4655 7.72299 34.5527 9.73535 37.6475C6.9399 42.2623 4.05643 46.821 1.08494 51.3236C-0.044163 52.9848 1.91355 54.5868 3.5116 53.945ZM19.1962 43.3409L18.1353 43.8233C16.7938 41.745 15.4492 39.6682 14.1015 37.5929C14.5568 36.8328 15.0121 36.0773 15.4674 35.3173C16.4933 35.7451 17.5344 36.1259 18.5906 36.4596C18.7879 38.7504 18.9898 41.0441 19.1962 43.3409ZM28.9301 38.5941C26.8905 39.6742 24.8295 40.7073 22.7474 41.6934L22.3649 37.47C24.5275 37.9524 26.7311 38.3347 28.9301 38.5896V38.5941ZM18.0807 30.8117C18.1308 31.3442 18.1763 31.8767 18.2264 32.4091C17.935 32.3045 17.6436 32.1907 17.3523 32.0769L18.0807 30.8117ZM11.2059 33.0872C11.4199 33.2238 11.6339 33.3603 11.8524 33.4877L12.1347 33.6516L11.8661 34.1067L11.2059 33.0872ZM14.7253 45.3161C12.3077 46.3583 9.87648 47.3687 7.44071 48.3654C8.98868 45.9563 10.5063 43.529 11.9936 41.0836C12.895 42.5005 13.798 43.9144 14.7025 45.3252L14.7253 45.3161Z" fill="#2D2E79"/>
<path id="Vector_2" d="M37.89 5.392L38.8775 12.2295C35.5904 13.234 32.3012 14.2388 29.0097 15.244C28.6512 15.3157 28.3242 15.4983 28.0742 15.7663C27.8243 16.0343 27.6638 16.3744 27.6154 16.739C27.5759 17.1094 27.6594 17.4828 27.8529 17.8008C28.0465 18.1188 28.339 18.3636 28.685 18.4969L40.2442 21.633L41.3206 29.0049C41.5474 30.5735 44.1287 31.009 44.5453 29.3334C45.0612 27.2877 45.7736 25.2978 46.6724 23.3918L60.3662 27.0652C60.7835 27.2118 61.2402 27.1929 61.6434 27.0123C62.0465 26.8317 62.3658 26.5031 62.5361 26.0933C62.6912 25.6742 62.6765 25.2102 62.4949 24.8013C62.3134 24.3923 61.9796 24.0711 61.5656 23.907L48.333 20.3011C49.3703 18.5834 50.5644 16.9668 51.8997 15.4724C54.8916 17.7204 57.7999 20.0808 60.6246 22.5534C60.9897 22.8105 61.44 22.9136 61.879 22.8405C62.318 22.7675 62.7107 22.5242 62.973 22.1628C63.2225 21.7942 63.3209 21.3426 63.2476 20.902C63.1743 20.4615 62.935 20.0661 62.5796 19.7981C59.9172 17.4541 57.1623 15.2101 54.315 13.0661C55.7176 11.8028 57.2349 10.6748 58.8471 9.69675C59.2105 9.51897 59.4989 9.21658 59.6605 8.84377C59.8221 8.47096 59.8463 8.05212 59.7289 7.66231C59.6165 7.26971 59.3636 6.93266 59.0191 6.71615C58.6747 6.49964 58.263 6.41904 57.8636 6.48991L48.9708 9.17748C46.2269 7.27257 43.4241 5.45068 40.5624 3.71181C40.2878 3.51152 39.9603 3.39811 39.6217 3.38615C39.2831 3.37419 38.949 3.4642 38.6619 3.64465C38.3749 3.82511 38.1481 4.08778 38.0106 4.39907C37.8731 4.71036 37.8311 5.0561 37.89 5.392ZM35.3692 16.7946C36.7058 16.3869 38.0368 15.987 39.3668 15.5804L39.717 17.9727C38.2696 17.5774 36.8207 17.1869 35.3703 16.8012L35.3692 16.7946ZM44.922 19.3858L43.2508 18.9294L42.6192 14.6C44.5207 14.0228 46.4155 13.4467 48.3181 12.8762L49.169 13.4829C47.5548 15.2997 46.1319 17.2801 44.9231 19.3925L44.922 19.3858ZM42.1343 11.2346L41.724 8.4404C42.7419 9.09481 43.7616 9.76037 44.7831 10.437C43.9009 10.7074 43.0187 10.9777 42.1354 11.2413L42.1343 11.2346Z" fill="#2D2E79"/>
<path id="Vector_3" d="M51.7023 45.7861L46.907 47.611C45.6458 45.3916 44.384 43.1707 43.1215 40.9483C43.0114 40.7001 42.8261 40.4927 42.5913 40.355C42.3565 40.2173 42.084 40.1562 41.8118 40.1803C41.537 40.2117 41.28 40.3328 41.0809 40.5247C40.8818 40.7165 40.7518 40.9683 40.7113 41.2406L40.3135 50.1268L35.1453 52.1028C34.0453 52.5216 34.1484 54.4631 35.4304 54.4932C36.9966 54.5352 38.5544 54.7288 40.0816 55.071L39.6406 65.5915C39.602 65.9177 39.6898 66.2456 39.8861 66.5085C40.0824 66.7714 40.3723 66.9495 40.6969 67.0064C41.0258 67.0509 41.3597 66.9649 41.6267 66.767C41.8936 66.5691 42.0722 66.2751 42.124 65.9484L42.5909 55.7732C44.0041 56.2464 45.3694 56.8495 46.6691 57.5748C45.5251 60.1079 44.2862 62.5986 42.9524 65.0469C42.8253 65.3532 42.8237 65.6963 42.9478 66.0026C43.0719 66.3089 43.312 66.5541 43.6165 66.6855C43.9241 66.8066 44.2673 66.8046 44.5747 66.68C44.8821 66.5555 45.1299 66.3179 45.2664 66.0168C46.5334 63.707 47.7129 61.3464 48.8048 58.935C49.9479 59.7466 51.0116 60.6633 51.9819 61.6731C52.1697 61.9076 52.4357 62.0676 52.7321 62.1242C53.0285 62.1809 53.336 62.1305 53.5994 61.9822C53.8657 61.837 54.069 61.5991 54.17 61.3143C54.2711 61.0295 54.2627 60.7181 54.1466 60.4401L50.7562 54.4311C51.6917 52.1334 52.5575 49.8065 53.3535 47.4504C53.4541 47.2189 53.4832 46.9632 53.4369 46.7158C53.3907 46.4685 53.2712 46.2409 53.0939 46.0622C52.9166 45.8834 52.6894 45.7617 52.4415 45.7125C52.1936 45.6633 51.9362 45.689 51.7023 45.7861ZM43.0294 45.8089C43.5417 46.7114 44.0474 47.6112 44.5578 48.5091L42.8808 49.1511C42.9325 48.0379 42.9805 46.9245 43.0247 45.8108L43.0294 45.8089ZM42.701 53.1526L42.7607 51.8673L45.796 50.7073C46.5227 51.9918 47.2476 53.2716 47.9697 54.558L47.668 55.273C46.0894 54.3979 44.4233 53.6879 42.6963 53.1545L42.701 53.1526ZM48.1563 49.81L50.1149 49.0593C49.8057 49.9032 49.4888 50.7502 49.1641 51.6003C48.825 51.0048 48.486 50.4093 48.1517 49.8119L48.1563 49.81Z" fill="#2D2E79"/>
</g>
</svg>
