<svg width="24" height="25" viewBox="0 0 24 25" fill="none" xmlns="http://www.w3.org/2000/svg">
<g id="Frame 1000003855">
<path id="Vector" d="M1.9796 19.5442C3.56503 18.9067 5.15046 18.2643 6.71958 17.5876C7.14693 18.2528 7.57265 18.9181 7.99673 19.5833C8.41593 20.2355 9.30161 19.8752 9.23474 19.1317L8.99333 16.5604C10.5429 15.8365 12.068 15.0604 13.5474 14.1946C13.6724 14.1236 13.7714 14.0144 13.8298 13.883C13.8881 13.7516 13.9028 13.6049 13.8715 13.4646C13.8403 13.3243 13.7649 13.1976 13.6563 13.1033C13.5478 13.009 13.4118 12.952 13.2684 12.9407C11.7042 12.7924 10.1269 12.6309 8.60187 12.2445C8.51053 11.2347 8.41864 10.2243 8.32621 9.21345C8.48117 8.933 8.63612 8.65093 8.78781 8.36886C9.07815 7.83243 8.58229 7.31556 8.13537 7.34328C7.89071 6.74 6.81092 7.05143 6.88106 7.82101L6.98056 8.91833C6.57061 9.66509 6.15413 10.4026 5.73113 11.1309C5.41682 10.9501 5.11494 10.7486 4.8275 10.5276C4.09514 9.96184 3.50631 9.24769 2.48687 9.42867C2.09052 9.49878 1.80508 10.0319 2.03995 10.3874C2.76525 11.4907 3.48837 12.5967 4.20932 13.7054C3.20782 15.3587 2.1748 16.9919 1.11023 18.605C0.705718 19.2002 1.40709 19.7741 1.9796 19.5442ZM7.59874 15.7452L7.2187 15.918C6.73807 15.1734 6.25635 14.4294 5.77354 13.6859C5.93665 13.4136 6.09976 13.1429 6.26287 12.8706C6.63041 13.0239 7.00339 13.1603 7.38181 13.2799C7.45249 14.1005 7.5248 14.9223 7.59874 15.7452ZM11.086 14.0446C10.3553 14.4315 9.61696 14.8017 8.871 15.1549L8.73399 13.6418C9.50876 13.8147 10.2982 13.9516 11.086 14.0429V14.0446ZM7.19912 11.2564C7.21707 11.4472 7.23338 11.638 7.25132 11.8287C7.14693 11.7912 7.04254 11.7505 6.93815 11.7097L7.19912 11.2564ZM4.73616 12.0717C4.81282 12.1206 4.88949 12.1695 4.96778 12.2152L5.06891 12.2739L4.97267 12.4369L4.73616 12.0717ZM5.997 16.4528C5.13089 16.8262 4.25988 17.1881 3.38724 17.5452C3.94182 16.6821 4.48552 15.8126 5.01834 14.9364C5.3413 15.4441 5.6648 15.9506 5.98885 16.4561L5.997 16.4528Z" fill="#2D2E79"/>
<path id="Vector_2" d="M14.2985 2.14957L14.6523 4.59917C13.4747 4.95903 12.2963 5.31903 11.1171 5.67915C10.9887 5.70483 10.8715 5.77024 10.782 5.86626C10.6924 5.96228 10.6349 6.08411 10.6176 6.21475C10.6034 6.34743 10.6334 6.48119 10.7027 6.59513C10.772 6.70907 10.8768 6.79677 11.0008 6.84451L15.142 7.96807L15.5276 10.6091C15.6089 11.1711 16.5336 11.3271 16.6829 10.7268C16.8677 9.9939 17.1229 9.281 17.4449 8.59816L22.3509 9.9142C22.5004 9.96673 22.664 9.95994 22.8084 9.89524C22.9529 9.83055 23.0672 9.71281 23.1282 9.566C23.1838 9.41587 23.1785 9.24963 23.1135 9.10312C23.0485 8.95661 22.9289 8.84155 22.7806 8.78276L18.0399 7.49089C18.4115 6.87549 18.8393 6.29636 19.3177 5.76095C20.3895 6.56634 21.4315 7.41196 22.4434 8.29782C22.5742 8.38991 22.7356 8.42683 22.8929 8.40067C23.0501 8.3745 23.1908 8.28733 23.2848 8.15785C23.3742 8.0258 23.4094 7.86401 23.3832 7.70619C23.3569 7.54837 23.2712 7.4067 23.1438 7.3107C22.19 6.47092 21.203 5.66698 20.183 4.89888C20.6854 4.44631 21.229 4.04218 21.8066 3.69179C21.9368 3.62809 22.0401 3.51976 22.098 3.3862C22.1559 3.25264 22.1646 3.10258 22.1226 2.96293C22.0823 2.82227 21.9917 2.70152 21.8683 2.62396C21.7449 2.54639 21.5974 2.51751 21.4543 2.5429L18.2684 3.50575C17.2853 2.8233 16.2812 2.17059 15.256 1.54763C15.1576 1.47587 15.0403 1.43524 14.919 1.43095C14.7977 1.42667 14.6779 1.45892 14.5751 1.52357C14.4723 1.58821 14.391 1.68232 14.3418 1.79384C14.2925 1.90536 14.2774 2.02923 14.2985 2.14957ZM13.3955 6.23464C13.8743 6.08858 14.3512 5.94531 14.8276 5.79965L14.9531 6.65673C14.4346 6.51511 13.9155 6.37521 13.3959 6.23703L13.3955 6.23464ZM16.8178 7.16298L16.2191 6.99945L15.9928 5.4484C16.6741 5.24162 17.3529 5.03523 18.0345 4.83085L18.3394 5.0482C17.7611 5.6991 17.2513 6.40859 16.8182 7.16537L16.8178 7.16298ZM15.8191 4.24274L15.6721 3.24169C16.0368 3.47613 16.4021 3.71458 16.7681 3.957C16.452 4.05385 16.136 4.15069 15.8195 4.24514L15.8191 4.24274Z" fill="#2D2E79"/>
<path id="Vector_3" d="M19.2466 16.621L17.5286 17.2747C17.0768 16.4796 16.6247 15.684 16.1724 14.8878C16.133 14.7989 16.0666 14.7246 15.9825 14.6752C15.8984 14.6259 15.8007 14.604 15.7032 14.6126C15.6048 14.6239 15.5127 14.6673 15.4414 14.736C15.37 14.8047 15.3235 14.8949 15.309 14.9925L15.1664 18.1761L13.3149 18.884C12.9208 19.034 12.9577 19.7296 13.417 19.7404C13.9782 19.7554 14.5362 19.8248 15.0834 19.9474L14.9254 23.7164C14.9115 23.8333 14.943 23.9508 15.0133 24.045C15.0836 24.1392 15.1875 24.2029 15.3038 24.2233C15.4216 24.2393 15.5413 24.2085 15.6369 24.1376C15.7325 24.0667 15.7965 23.9614 15.8151 23.8443L15.9824 20.1989C16.4886 20.3685 16.9778 20.5845 17.4434 20.8444C17.0336 21.7519 16.5897 22.6442 16.1119 23.5213C16.0663 23.6311 16.0657 23.754 16.1102 23.8637C16.1547 23.9735 16.2407 24.0613 16.3498 24.1084C16.46 24.1517 16.5829 24.151 16.6931 24.1064C16.8032 24.0618 16.892 23.9767 16.9409 23.8688C17.3948 23.0413 17.8173 22.1956 18.2086 21.3317C18.6181 21.6225 18.9991 21.9509 19.3468 22.3126C19.4141 22.3967 19.5093 22.454 19.6155 22.4743C19.7217 22.4946 19.8319 22.4765 19.9263 22.4234C20.0217 22.3714 20.0945 22.2861 20.1307 22.1841C20.1669 22.0821 20.1639 21.9705 20.1223 21.8709L18.9077 19.7181C19.2428 18.895 19.553 18.0613 19.8382 17.2172C19.8742 17.1343 19.8846 17.0427 19.868 16.9541C19.8515 16.8655 19.8087 16.7839 19.7451 16.7199C19.6816 16.6558 19.6002 16.6122 19.5114 16.5946C19.4226 16.577 19.3304 16.5862 19.2466 16.621ZM16.1394 16.6291C16.323 16.9525 16.5042 17.2748 16.687 17.5965L16.0862 17.8265C16.1047 17.4277 16.1219 17.0288 16.1378 16.6298L16.1394 16.6291ZM16.0218 19.2601L16.0432 18.7996L17.1306 18.384C17.391 18.8442 17.6507 19.3027 17.9094 19.7636L17.8013 20.0198C17.2357 19.7062 16.6388 19.4519 16.0201 19.2608L16.0218 19.2601ZM17.9762 18.0626L18.6779 17.7936C18.5671 18.096 18.4536 18.3994 18.3372 18.704C18.2158 18.4906 18.0943 18.2773 17.9745 18.0632L17.9762 18.0626Z" fill="#2D2E79"/>
</g>
</svg>
