<svg width="80" height="75" viewBox="0 0 80 75" fill="none" xmlns="http://www.w3.org/2000/svg">
<g id="Vector">
<path d="M30.4011 60.6927C30.4011 60.6927 30.3449 60.6692 30.3136 60.6561C29.6468 60.3187 29.376 59.5081 29.7071 58.8389C36.0935 46.1054 40.3475 32.5175 42.3462 18.4568C42.9464 14.244 43.2855 9.00437 40.5756 5.82357C38.8399 3.79136 35.8403 2.69197 32.3314 2.81129C29.5011 2.90589 26.7495 3.70873 24.3761 5.11753C17.1455 9.41518 14.1243 18.4014 11.202 27.0984L10.9751 27.7818C8.69101 34.5652 6.09626 41.3362 3.25674 47.9022C2.96317 48.5871 2.17951 48.8982 1.47667 48.6119C0.791559 48.3182 0.4728 47.5169 0.76637 46.8321C3.57716 40.3349 6.14945 33.6352 8.40223 26.9268L8.62908 26.2434C11.5671 17.5088 14.8877 7.61267 22.9882 2.79757C25.7527 1.15579 28.9543 0.225303 32.2391 0.11509C36.5752 -0.0329546 40.3698 1.41339 42.6407 4.08039C46.054 8.09108 45.7111 14.0779 45.0368 18.8545C42.9972 33.2064 38.6559 47.0735 32.1384 60.0679C31.8178 60.7121 31.0586 60.9822 30.4084 60.7104L30.4011 60.6927Z" fill="#CDCDDF"/>
<path d="M2.80496 49.9673C2.32981 49.7687 1.99197 49.3118 1.97008 48.7668C1.94368 48.0216 2.5296 47.3928 3.27496 47.3666C8.2683 47.1922 12.6939 49.3428 16.9784 51.427C19.504 52.6587 22.1172 53.927 24.7575 54.656C25.0482 54.7335 25.3452 54.8136 25.6423 54.8937C28.144 55.5501 30.9828 56.296 32.338 58.94C32.6778 59.6032 32.4174 60.4195 31.7515 60.7652C31.0882 61.1047 30.2655 60.8416 29.9258 60.1784C29.1241 58.6173 27.0986 58.0865 24.9554 57.5212C24.6433 57.4421 24.3338 57.3568 24.0368 57.2768C21.1547 56.4761 18.4316 55.1545 15.796 53.8695C11.6278 51.8411 7.69811 49.9272 3.37454 50.0805C3.17439 50.085 2.98366 50.0493 2.8086 49.9761L2.80496 49.9673Z" fill="#CDCDDF"/>
<path d="M40.3607 65.3469C39.7355 65.0856 39.3874 64.3895 39.5851 63.7233L49.0284 31.2339C50.4042 26.501 51.9646 21.1331 55.2726 16.8552C58.4382 12.7601 64.1091 9.33032 69.6318 10.9116C73.5133 12.0272 76.6706 15.4904 78.0713 20.1871C79.2865 24.2556 79.1021 28.5981 78.7302 32.6861C77.4063 46.9773 73.6613 60.8588 67.5992 73.9407C67.2869 74.6178 66.4766 74.9399 65.7973 74.5972C65.12 74.2848 64.8252 73.4788 65.1376 72.8018C71.0759 59.9985 74.7383 46.4203 76.0285 32.4379C76.3824 28.6214 76.5546 24.5895 75.4786 20.9609C74.3579 17.2109 71.8406 14.3602 68.8887 13.5156C64.6051 12.2907 59.9405 15.2454 57.4143 18.5138C54.422 22.3876 52.9374 27.4862 51.628 31.99L42.1847 64.4794C41.9724 65.1982 41.2261 65.6132 40.5071 65.4007C40.4571 65.3798 40.4107 65.3678 40.3607 65.3469Z" fill="#CDCDDF"/>
<path d="M41.8169 64.8322C41.2605 64.5997 40.9108 64.013 40.9958 63.3878C41.1002 62.6459 41.7913 62.1345 42.5334 62.2391C51.1832 63.4901 59.6948 66.548 67.1433 71.0778C67.7803 71.4689 67.9828 72.3023 67.5981 72.9418C67.2071 73.5786 66.3735 73.7809 65.7338 73.3961C58.5895 69.0521 50.4359 66.1217 42.1389 64.9227C42.0222 64.9033 41.9107 64.8714 41.8106 64.8296L41.8169 64.8322Z" fill="#CDCDDF"/>
<path d="M37.6158 39.6864C38.1487 38.4114 38.6904 37.1328 39.2295 35.8605C39.4332 35.373 39.4044 34.9498 39.2447 34.6115C39.517 33.8369 39.7867 33.0686 40.0528 32.2915C40.1232 32.2108 40.1795 32.1462 40.1936 32.1301C40.7561 31.4695 41.3134 30.8214 41.6368 29.9949C41.8541 29.4396 41.9652 28.84 41.9705 28.2475C43.306 29.1287 44.9082 26.8764 43.6226 25.6123C38.4133 20.4692 31.5603 26.6573 28.2869 31.3093C24.0359 37.3515 21.7764 44.4976 19.6224 51.4968C19.2 52.8767 20.5114 53.8506 21.4973 53.5651C21.7973 54.3586 22.7923 54.8772 23.5615 54.4425C23.924 54.7702 24.4179 54.9766 25.1012 54.9758C25.1893 54.9759 25.2539 54.9442 25.3384 54.9355C24.7263 56.7867 27.1761 57.7077 28.0982 55.9934C28.2005 55.8013 28.3029 55.6091 28.4026 55.4232C28.3481 55.7822 28.3086 56.1401 28.2968 56.5023C28.2569 57.8805 29.9837 59.0206 30.9477 57.6101C34.6289 52.2108 35.469 45.7196 37.6106 39.6989L37.6158 39.6864Z" fill="#CDCDDF"/>
<path d="M67.9995 70.0481C68.3848 67.8085 68.8101 65.5782 69.2568 63.3495C70.0549 61.5981 70.7592 59.8074 71.3697 57.9776C71.9253 58.0189 72.4832 57.7382 72.7372 57.0074C73.344 55.2567 73.8606 53.4758 74.2845 51.6707C74.4044 51.1555 74.2281 50.7514 73.9255 50.4561C74.0493 49.6856 74.1793 48.9177 74.2905 48.1419C74.9073 46.2266 75.3663 44.2674 75.6809 42.2845C76.0178 42.0582 76.3339 41.7939 76.5886 41.4305C77.4493 40.197 77.487 38.3847 77.7239 36.9567C77.856 36.131 77.2911 35.4617 76.559 35.2806C76.429 34.9766 76.213 34.7028 75.8279 34.5345C69.7344 31.9292 65.1799 39.2247 62.8325 44.0508C59.5706 50.7486 57.5752 58.1592 55.1902 65.2014C54.8238 66.289 55.5725 67.1158 56.3943 67.2757C56.5648 68.3087 57.8221 68.7094 58.666 68.1664C58.7393 68.3071 58.8038 68.4516 58.9012 68.5877C59.4316 69.2866 60.6625 69.4339 61.2387 68.6176C61.2455 68.6718 61.2308 68.7244 61.2376 68.7786C61.34 69.5702 62.0883 70.2574 62.8964 70.0812C63.0429 70.047 63.1695 69.9898 63.3124 69.9467C63.4234 70.0151 63.5307 70.0746 63.6416 70.143C63.689 70.1702 63.7167 70.1744 63.7542 70.19C63.9399 71.1339 65.0394 71.8945 66.1158 71.1991C66.046 71.2433 65.9823 71.2901 65.9124 71.3343C66.7917 71.8486 67.8449 70.9453 68.0032 70.057L67.9995 70.0481Z" fill="#CDCDDF"/>
</g>
</svg>
