<svg width="22" height="21" viewBox="0 0 22 21" fill="none" xmlns="http://www.w3.org/2000/svg">
<g id="Vector">
<path d="M8.23229 16.9849C8.23229 16.9849 8.21694 16.9784 8.2084 16.9749C8.02642 16.8828 7.95252 16.6616 8.04287 16.4789C9.78585 13.0038 10.9468 9.29537 11.4923 5.45798C11.6561 4.30824 11.7487 2.87826 11.0091 2.01016C10.5354 1.45554 9.71673 1.1555 8.7591 1.18806C7.98667 1.21388 7.23569 1.43299 6.58796 1.81747C4.6146 2.99037 3.79009 5.44285 2.99253 7.81643L2.93062 8.00294C2.30724 9.85423 1.59909 11.7022 0.824137 13.4941C0.744017 13.681 0.530143 13.766 0.338327 13.6878C0.151349 13.6077 0.0643547 13.389 0.144475 13.2021C0.911587 11.4289 1.61361 9.60041 2.22843 7.76958L2.29034 7.58307C3.09217 5.19926 3.99843 2.49844 6.20919 1.18432C6.96366 0.736247 7.83744 0.482302 8.73391 0.452223C9.91729 0.411819 10.9529 0.80655 11.5727 1.53442C12.5042 2.629 12.4106 4.26292 12.2266 5.56651C11.67 9.48338 10.4852 13.268 8.70642 16.8143C8.61891 16.9902 8.41174 17.0639 8.23428 16.9897L8.23229 16.9849Z" fill="#CDCDDF"/>
<path d="M0.70084 14.0577C0.571163 14.0035 0.478963 13.8788 0.472987 13.7301C0.465784 13.5267 0.625691 13.3551 0.82911 13.3479C2.19188 13.3004 3.39971 13.8873 4.569 14.4561C5.25829 14.7923 5.97147 15.1384 6.69205 15.3374C6.7714 15.3585 6.85246 15.3804 6.93352 15.4022C7.61627 15.5814 8.39104 15.7849 8.76091 16.5065C8.85363 16.6875 8.78258 16.9103 8.60084 17.0046C8.41981 17.0973 8.19527 17.0255 8.10256 16.8445C7.88376 16.4184 7.33098 16.2736 6.74607 16.1193C6.66088 16.0977 6.57641 16.0744 6.49535 16.0526C5.70879 15.8341 4.96561 15.4734 4.24632 15.1227C3.10873 14.5691 2.03626 14.0468 0.856287 14.0886C0.801663 14.0898 0.74961 14.0801 0.701835 14.0601L0.70084 14.0577Z" fill="#CDCDDF"/>
<path d="M10.9504 18.2551C10.7798 18.1838 10.6848 17.9938 10.7387 17.812L13.316 8.94507C13.6915 7.65337 14.1173 6.18838 15.0201 5.02089C15.8841 3.90327 17.4317 2.96721 18.939 3.39877C19.9983 3.70323 20.86 4.64841 21.2423 5.9302C21.5739 7.04056 21.5236 8.2257 21.4221 9.34138C21.0608 13.2417 20.0387 17.0302 18.3843 20.6005C18.299 20.7852 18.0779 20.8731 17.8925 20.7796C17.7077 20.6944 17.6272 20.4744 17.7124 20.2896C19.3331 16.7954 20.3326 13.0897 20.6848 9.27367C20.7813 8.23207 20.8283 7.13169 20.5347 6.14139C20.2288 5.11795 19.5418 4.33994 18.7362 4.10945C17.5671 3.77514 16.2941 4.58154 15.6046 5.47353C14.788 6.53077 14.3828 7.92226 14.0255 9.15141L11.4482 18.0183C11.3903 18.2145 11.1866 18.3277 10.9904 18.2698C10.9767 18.2641 10.9641 18.2608 10.9504 18.2551Z" fill="#CDCDDF"/>
<path d="M11.3478 18.1146C11.196 18.0511 11.1006 17.891 11.1238 17.7204C11.1523 17.5179 11.3409 17.3784 11.5434 17.4069C13.9041 17.7483 16.227 18.5829 18.2598 19.8191C18.4337 19.9259 18.489 20.1533 18.384 20.3278C18.2773 20.5016 18.0497 20.5568 17.8752 20.4518C15.9254 19.2663 13.7001 18.4665 11.4357 18.1393C11.4039 18.134 11.3734 18.1253 11.3461 18.1139L11.3478 18.1146Z" fill="#CDCDDF"/>
<path d="M10.2013 11.2519C10.3467 10.9039 10.4946 10.555 10.6417 10.2077C10.6973 10.0747 10.6894 9.9592 10.6459 9.86685C10.7202 9.65547 10.7938 9.44579 10.8664 9.23369C10.8856 9.21167 10.901 9.19406 10.9048 9.18965C11.0583 9.00937 11.2104 8.8325 11.2987 8.60691C11.358 8.45538 11.3883 8.29173 11.3898 8.13003C11.7543 8.37052 12.1915 7.75584 11.8406 7.41084C10.4189 6.00721 8.54865 7.69604 7.65528 8.96565C6.49511 10.6147 5.87847 12.5649 5.2906 14.4752C5.17531 14.8517 5.53323 15.1175 5.80229 15.0396C5.88417 15.2562 6.15572 15.3977 6.36565 15.2791C6.46457 15.3685 6.59936 15.4248 6.78585 15.4246C6.80989 15.4247 6.82754 15.416 6.85058 15.4136C6.68353 15.9188 7.35214 16.1702 7.60379 15.7024C7.63172 15.6499 7.65965 15.5975 7.68687 15.5467C7.67198 15.6447 7.66122 15.7424 7.65799 15.8412C7.64711 16.2174 8.11836 16.5285 8.38146 16.1436C9.38612 14.67 9.6154 12.8985 10.1999 11.2553L10.2013 11.2519Z" fill="#CDCDDF"/>
<path d="M18.4935 19.5381C18.5987 18.9269 18.7147 18.3182 18.8367 17.71C19.0545 17.232 19.2467 16.7433 19.4133 16.2439C19.5649 16.2551 19.7172 16.1785 19.7865 15.9791C19.9521 15.5013 20.0931 15.0152 20.2088 14.5226C20.2415 14.382 20.1934 14.2717 20.1108 14.1911C20.1446 13.9808 20.1801 13.7713 20.2104 13.5595C20.3788 13.0368 20.504 12.5021 20.5899 11.9609C20.6819 11.8992 20.7681 11.8271 20.8376 11.7279C21.0725 11.3913 21.0828 10.8966 21.1475 10.5069C21.1835 10.2816 21.0294 10.0989 20.8296 10.0495C20.7941 9.96652 20.7351 9.89178 20.63 9.84586C18.967 9.13481 17.724 11.1259 17.0833 12.443C16.1931 14.271 15.6485 16.2934 14.9977 18.2154C14.8977 18.5122 15.102 18.7378 15.3263 18.7815C15.3728 19.0634 15.7159 19.1727 15.9462 19.0245C15.9663 19.063 15.9839 19.1024 16.0104 19.1395C16.1552 19.3303 16.4911 19.3705 16.6484 19.1477C16.6502 19.1625 16.6462 19.1768 16.6481 19.1916C16.676 19.4077 16.8803 19.5952 17.1008 19.5471C17.1408 19.5378 17.1753 19.5222 17.2143 19.5104C17.2446 19.5291 17.2739 19.5453 17.3042 19.564C17.3171 19.5714 17.3247 19.5726 17.3349 19.5768C17.3856 19.8344 17.6857 20.042 17.9794 19.8522C17.9604 19.8643 17.943 19.8771 17.9239 19.8891C18.1639 20.0295 18.4513 19.783 18.4945 19.5405L18.4935 19.5381Z" fill="#CDCDDF"/>
</g>
</svg>
