<svg width="16" height="17" viewBox="0 0 16 17" fill="none" xmlns="http://www.w3.org/2000/svg">
<g id="Huge-icon/interface/bulk/trash">
<g id="trash">
<g id="Vector 304" opacity="0.4">
<path d="M8.49996 15.6673H7.16663C4.95749 15.6673 3.16663 13.8765 3.16663 11.6673V4.33398H12.5V11.6673C12.5 13.8765 10.7091 15.6673 8.49996 15.6673Z" fill="#C92014"/>
</g>
<path id="Vector 305 (Stroke)" fill-rule="evenodd" clip-rule="evenodd" d="M9.16663 7.16797C9.44277 7.16797 9.66663 7.39183 9.66663 7.66797L9.66663 11.668C9.66663 11.9441 9.44277 12.168 9.16663 12.168C8.89048 12.168 8.66663 11.9441 8.66663 11.668L8.66663 7.66797C8.66663 7.39183 8.89048 7.16797 9.16663 7.16797Z" fill="#C92014"/>
<path id="Vector 306 (Stroke)" fill-rule="evenodd" clip-rule="evenodd" d="M6.5 7.16797C6.77614 7.16797 7 7.39183 7 7.66797L7 11.668C7 11.9441 6.77614 12.168 6.5 12.168C6.22386 12.168 6 11.9441 6 11.668L6 7.66797C6 7.39183 6.22386 7.16797 6.5 7.16797Z" fill="#C92014"/>
<path id="Rectangle 91 (Stroke)" fill-rule="evenodd" clip-rule="evenodd" d="M5.68813 2.65037C6.02815 2.14034 6.60058 1.83398 7.21356 1.83398H8.45307C9.06605 1.83398 9.63847 2.14034 9.97849 2.65037L10.7676 3.83398H13.8333C14.1095 3.83398 14.3333 4.05784 14.3333 4.33398C14.3333 4.61013 14.1095 4.83398 13.8333 4.83398H1.83331C1.55717 4.83398 1.33331 4.61013 1.33331 4.33398C1.33331 4.05784 1.55717 3.83398 1.83331 3.83398H4.89905L5.68813 2.65037Z" fill="#C92014"/>
</g>
</g>
</svg>
