<svg width="25" height="25" viewBox="0 0 25 25" fill="none" xmlns="http://www.w3.org/2000/svg">
<g id="Huge-icon/editor/bulk/underline">
<path id="Vector 2629 (Stroke)" opacity="0.4" fill-rule="evenodd" clip-rule="evenodd" d="M4.2998 20.4004C4.2998 19.9862 4.63559 19.6504 5.0498 19.6504H19.0498C19.464 19.6504 19.7998 19.9862 19.7998 20.4004C19.7998 20.8146 19.464 21.1504 19.0498 21.1504H5.0498C4.63559 21.1504 4.2998 20.8146 4.2998 20.4004Z" fill="#252525"/>
<path id="Vector 2628 (Stroke)" fill-rule="evenodd" clip-rule="evenodd" d="M7.0498 3.65039C7.46402 3.65039 7.7998 3.98618 7.7998 4.40039V11.4004C7.7998 13.7476 9.70259 15.6504 12.0498 15.6504C14.397 15.6504 16.2998 13.7476 16.2998 11.4004V4.40039C16.2998 3.98618 16.6356 3.65039 17.0498 3.65039C17.464 3.65039 17.7998 3.98618 17.7998 4.40039V11.4004C17.7998 14.576 15.2254 17.1504 12.0498 17.1504C8.87417 17.1504 6.2998 14.576 6.2998 11.4004V4.40039C6.2998 3.98618 6.63559 3.65039 7.0498 3.65039Z" fill="#252525"/>
</g>
</svg>
