<svg width="78" height="78" viewBox="0 0 78 78" fill="none" xmlns="http://www.w3.org/2000/svg">
<g id="150">
<g id="scribble final version-145">
<path id="Path" d="M23.7173 55.2239C23.7173 55.0021 25.1779 62.1062 27.6937 57.388C28.4584 55.9656 25.9426 63.5056 25.9426 63.5056C25.9426 63.5056 23.4649 59.5903 23.7173 55.2239Z" fill="#F2F6FF"/>
<path id="Path_2" d="M57.2569 28.9563L53.3875 32.5351C52.9211 32.971 52.4852 33.4374 52.0111 33.8657L46.9564 38.3698C46.1916 39.0274 45.4805 39.731 44.7464 40.4039C44.289 40.8561 43.8092 41.2848 43.3087 41.6886C43.0487 41.8798 42.7811 42.0557 42.544 42.2316C42.3069 42.4074 41.9628 42.5527 41.6799 42.7133C41.3969 42.8739 41.2975 42.7133 41.4505 42.3921C41.6928 41.8563 41.9846 41.3443 42.3222 40.8627C43.1634 39.9069 44.1499 39.0733 45.0675 38.1633C45.9852 37.2533 46.9487 36.3892 47.9352 35.5327C49.1052 34.5004 50.1834 33.2769 51.2999 32.1374L54.9934 28.3751C55.7581 27.6104 56.5228 26.8457 57.2416 26.081C58.3581 24.888 59.5358 23.7104 60.5452 22.4639C61.3211 21.4875 62.0386 20.4662 62.694 19.4051C62.8393 19.1757 62.9693 18.9386 63.1222 18.7169C63.3822 18.3192 63.5811 18.0745 63.8411 17.9521C64.1204 17.9573 64.399 17.9829 64.6746 18.0286C64.8352 18.0286 65.0034 18.0286 65.1411 18.0286C65.2787 18.0286 65.5311 18.1816 65.6381 18.5027C65.6911 18.6995 65.7066 18.9044 65.684 19.1069C65.6663 19.3034 65.6063 19.4939 65.5081 19.6651C64.324 21.732 62.8511 23.6194 61.134 25.2704C59.8952 26.5398 58.6028 27.7633 57.3105 29.0021L57.2569 28.9563Z" fill="#F2F6FF"/>
<path id="Path_3" d="M44.4181 50.9186C45.3893 51.1251 46.3375 51.3927 47.2781 51.6833C47.6222 51.7827 47.974 51.8592 48.3181 51.9816C49.5022 52.4278 50.6501 52.9646 51.7516 53.5874C52.2411 53.8704 52.7458 54.1151 53.2352 54.3521C53.5612 54.5193 53.871 54.7164 54.1605 54.941C54.4265 55.2083 54.6531 55.5121 54.8334 55.8433C54.9481 56.0498 54.7646 56.1798 54.4358 56.2639C54.0502 56.3712 53.6466 56.3972 53.2505 56.3404C53.0927 56.306 52.944 56.2382 52.8146 56.1416L52.4169 55.8816L51.5681 55.3845L49.8246 54.3904C49.0723 54.021 48.2792 53.7412 47.4616 53.5569C46.5746 53.2892 45.6722 53.0674 44.7622 52.8686C44.1964 52.7616 43.6305 52.6545 43.0569 52.578L41.7569 52.4327C41.3211 52.4327 40.8852 52.3792 40.4493 52.3792C39.7776 52.4256 39.1104 52.5227 38.4534 52.6698C38.3081 52.6698 38.1628 52.7463 38.0175 52.7692C37.4746 52.7692 37.2528 52.6469 37.1381 52.1116C37.1381 51.9969 37.0617 51.8898 37.0387 51.7904C36.973 51.3937 37.1973 51.0059 37.574 50.8651C38.1792 50.6146 38.8237 50.4722 39.4781 50.4445C40.1399 50.3948 40.8045 50.3948 41.4664 50.4445C42.4596 50.517 43.4477 50.6472 44.4258 50.8345L44.4181 50.9186Z" fill="#F2F6FF"/>
<path id="Path_4" d="M49.841 37.5895L39.7774 45.4813C38.5539 46.4448 37.3915 47.4619 36.1604 48.4178C35.0451 49.1972 34.0193 50.0974 33.1015 51.1019C32.8636 51.3518 32.608 51.5844 32.3368 51.7978C32.2527 51.8742 32.2374 51.8819 32.2145 51.8895C32.188 51.9116 32.1648 51.9373 32.1457 51.966C32.0692 52.0654 31.9774 52.1725 31.901 52.2872C31.5721 52.746 31.3198 53.3119 30.9986 53.8166C30.3683 54.97 29.8189 56.1658 29.3545 57.3954L29.171 57.8619L28.9568 58.4583L28.3986 59.9189C28.0621 60.8595 27.7562 61.8001 27.4274 62.5113C27.202 63.0025 26.9142 63.4626 26.571 63.8801C26.4434 64.0619 26.2613 64.1985 26.051 64.2701H25.9286C25.9286 64.3695 25.9286 64.2701 25.9286 64.3236H25.8674C25.7943 64.3002 25.7228 64.2721 25.6533 64.2395C25.5145 64.1709 25.3858 64.0834 25.271 63.9795C25.1486 63.8801 25.0492 63.7807 24.9421 63.6889C24.8418 63.574 24.7474 63.454 24.6592 63.3295C24.4796 63.0871 24.3186 62.8315 24.1774 62.5648C24.005 62.277 23.8518 61.9781 23.7186 61.6701C23.6064 61.3285 23.4841 60.9844 23.3515 60.6378C23.1986 60.1713 23.1068 59.613 22.9539 59.1083L22.7551 58.2672C22.6786 58.0072 22.6251 57.6325 22.5868 57.5025L22.3651 56.3401C22.2708 55.9589 22.2119 55.5698 22.1892 55.1778L22.021 52.9448C21.9855 52.5942 21.9727 52.2417 21.9827 51.8895C21.9803 51.5898 21.9547 51.2906 21.9062 50.9948C21.9062 50.8342 21.9062 50.7578 21.9062 50.6583C21.9083 50.5463 21.9488 50.4383 22.021 50.3525C22.3168 50.0614 22.7758 50.0168 23.1221 50.2454C23.8193 50.621 24.427 51.1427 24.9039 51.7748C25.4583 52.4934 25.838 53.3312 26.0127 54.2219C26.0815 54.6195 26.1733 54.9866 26.2039 55.4148V57.1813C26.2039 57.3189 26.2039 57.2807 26.2039 57.2807C26.172 57.3565 26.172 57.4419 26.2039 57.5178C26.2498 57.6172 26.2804 57.6172 26.3798 57.5178L26.4639 57.403C26.4639 57.403 26.4639 57.403 26.5021 57.3113L26.548 57.166L26.7315 56.5848C26.9915 55.8201 27.2668 55.0554 27.588 54.2907C27.7792 53.8242 27.978 53.3578 28.1921 52.8913C28.3068 52.6542 28.4139 52.4172 28.5363 52.1801C28.6586 51.943 28.8115 51.7213 28.9568 51.4919C29.2722 51.0058 29.6223 50.5432 30.0045 50.1077C30.144 49.971 30.2922 49.8433 30.448 49.7254L30.731 49.5036C30.9202 49.348 31.1195 49.205 31.3274 49.0754C31.7404 48.8078 32.1762 48.563 32.5662 48.3107L33.6598 47.2325L35.8392 45.2825L45.4286 36.8095L48.388 34.1942C49.3821 33.3378 50.3763 32.4813 51.3627 31.6095C54.3527 28.9789 57.3504 26.333 60.1874 23.5801C61.281 22.5019 62.321 21.393 63.338 20.2689C64.3551 19.1448 65.3339 17.9748 66.328 16.866C66.7563 16.3536 67.2151 15.8948 67.6892 15.4283C68.3024 14.79 68.9965 14.2347 69.7539 13.7766C69.9907 13.6408 70.2496 13.5476 70.5186 13.5013C70.7729 13.4761 71.029 13.4761 71.2833 13.5013C71.4898 13.5013 71.7115 13.5013 71.8568 13.5013C72.2621 13.5395 72.2315 14.8701 71.2068 16.476C70.8398 17.0878 70.4421 17.6536 70.0445 18.2425L69.4404 19.1219C69.2339 19.4125 68.9968 19.6725 68.7751 19.9478C67.7963 21.0438 66.8174 22.1093 65.8386 23.1442C64.8445 24.1689 63.8198 25.1783 62.7798 26.203L59.6598 29.1548C56.4786 32.0454 53.2388 34.8774 49.9404 37.6507L49.841 37.5895Z" fill="#F2F6FF"/>
<path id="Path_5" d="M53.8559 27.4649C51.3069 28.9944 48.7578 30.5238 46.2088 32.0532C45.2835 32.6191 44.4118 33.2614 43.4865 33.8197L33.7059 39.7308C32.2453 40.5949 30.8306 41.5432 29.4388 42.4838C27.6527 43.7023 25.7906 44.8057 23.8641 45.7873C23.26 46.0855 23.1759 45.8332 23.4359 45.2214C23.8535 44.2797 24.4391 43.422 25.1641 42.6902L26.38 41.5661L26.9918 40.9926L27.6494 40.4879C28.5263 39.8149 29.4133 39.1573 30.3106 38.5149C31.2129 37.8726 32.1076 37.2226 33.0559 36.6414C34.0041 36.0602 34.96 35.4485 35.9541 34.9361C38.2865 33.6361 40.4965 31.9614 42.7753 30.4779C45.2835 28.8491 47.8223 27.2585 50.3459 25.6602L55.0259 22.7161C57.3735 21.1867 59.7671 19.7644 62.0612 18.2044C63.8429 16.9961 65.5329 15.7114 67.2918 14.4955C67.6818 14.2279 68.0565 13.945 68.4541 13.7308C69.9835 12.8055 70.7482 12.8744 71.36 13.3026C71.5124 13.3912 71.6581 13.4908 71.7959 13.6008C71.9947 13.792 71.9794 14.0673 71.7959 14.4267C71.5836 14.9018 71.2765 15.3286 70.8935 15.6808C70.2129 16.3767 69.4559 16.9426 68.7141 17.585C67.9723 18.2273 67.1847 18.8161 66.42 19.4279C64.8495 20.6558 63.2076 21.7895 61.5029 22.8232C58.9947 24.4291 56.4253 25.9738 53.8559 27.5644V27.4649Z" fill="#F2F6FF"/>
<path id="Path_6" d="M48.6008 53.6561C47.6409 53.3175 46.66 53.0416 45.6643 52.8303C45.2973 52.7385 44.8996 52.7767 44.5479 52.7003C43.8979 52.555 43.2402 52.5014 42.5673 52.402C41.8949 52.3197 41.2182 52.2763 40.5408 52.272C39.9423 52.2758 39.3465 52.3529 38.7667 52.5014C38.0441 52.7563 37.2846 52.8907 36.5185 52.8991C36.2661 52.8991 36.1361 52.2491 36.1896 51.5991C36.2432 50.9491 36.5032 50.2761 36.9543 50.1538C38.6282 49.7351 40.3716 49.6752 42.0702 49.9779C43.0873 50.1538 44.1502 50.0697 45.1826 50.215C46.3152 50.3798 47.4327 50.6356 48.5243 50.9797C49.1973 51.2014 49.8626 51.4156 50.5126 51.6679C51.5067 52.0273 52.4473 52.5167 53.4108 52.9373C54.1796 53.2258 54.9281 53.5656 55.6514 53.9544C55.7967 54.0614 55.9573 54.1532 56.0949 54.2756C56.592 54.7573 56.6455 55.0403 56.4314 55.4991C56.3942 55.5986 56.3507 55.6956 56.3014 55.7897C56.0423 56.0985 55.6204 56.2168 55.2385 56.0879C54.8943 56.0114 54.5196 55.9732 54.1755 55.912C53.849 55.8439 53.5328 55.7334 53.2349 55.5832L51.3996 54.8185C50.473 54.4176 49.523 54.0728 48.5549 53.7861L48.6008 53.6561Z" fill="#F2F6FF"/>
<path id="Path_7" d="M65.7228 30.3175C65.3251 31.2122 64.958 32.1222 64.568 33.0322C64.178 33.9422 63.8033 34.8446 63.4363 35.7699C63.1686 36.4352 62.9928 37.1387 62.7328 37.8117C61.8151 40.1822 60.9433 42.5834 60.2398 45.0228C59.9492 46.1546 59.6586 47.2099 59.4292 48.3034C59.2916 48.9993 59.1692 49.7028 59.0622 50.3987C58.9038 51.0698 58.7813 51.7488 58.6951 52.4328C58.6951 52.7693 58.5116 52.8993 58.1292 52.5399C57.6394 51.9545 57.3287 51.2403 57.2345 50.4828C57.1984 48.9489 57.2853 47.4146 57.4945 45.8946C57.7812 44.4087 58.1878 42.9484 58.7104 41.5281C59.3298 39.8152 59.6816 37.9722 60.2398 36.1752C60.8592 34.2405 61.5092 32.3517 62.2892 30.4322C62.7557 29.2775 63.2528 28.1381 63.7422 26.9758C64.5069 25.2322 65.3328 23.5193 66.1204 21.8064C66.4416 21.1411 66.7092 20.4605 66.9998 19.7799C67.2643 19.0864 67.5813 18.414 67.948 17.7687C68.1163 17.4858 68.2463 17.1875 68.4451 16.9122C69.1639 15.8952 69.638 15.7193 70.3645 16.0022C70.535 16.0559 70.7011 16.1224 70.8616 16.2011C71.3663 16.4993 71.4351 17.1646 71.1369 17.9217C70.6857 19.0611 70.3722 20.2846 69.768 21.4087L68.1469 24.9264C67.3822 26.7005 66.5333 28.4975 65.8069 30.3328L65.7228 30.3175Z" fill="#F2F6FF"/>
<path id="Path_8" d="M40.8857 30.256L28.9563 35.1501C27.5034 35.7466 26.104 36.4425 24.651 37.0389L17.004 40.1895L16.071 40.5872L15.5969 40.8013L15.2222 40.9695L14.3887 41.2907C13.8151 41.5277 13.1728 41.7954 12.4998 42.1089C12.3469 42.1777 12.2016 42.2466 12.064 42.323C11.9908 42.3581 11.9237 42.4046 11.8651 42.4607C11.911 42.4607 11.9951 42.4607 12.064 42.4607L12.9434 42.5219C13.5551 42.5601 14.1822 42.5983 14.7481 42.6595C14.9316 42.6595 15.1151 42.6977 15.291 42.7283C15.3446 42.7283 15.3522 42.7283 15.4516 42.7283L15.7575 42.7972L16.3616 42.9348C17.1778 43.1283 17.978 43.3839 18.7551 43.6995C19.5728 44.0255 20.3441 44.4574 21.0493 44.9842C21.7916 45.5652 22.3581 46.3409 22.6857 47.2248C22.8922 47.7754 22.8004 48.066 22.6322 48.1195C22.464 48.173 22.1428 48.0201 21.684 47.8595C21.1048 47.6816 20.5 47.6015 19.8945 47.6225C19.2126 47.5574 18.5388 47.4242 17.8834 47.2248C17.2268 47.0204 16.5575 46.8595 15.8798 46.743C15.5281 46.6819 15.1763 46.6207 14.8169 46.5748L14.5416 46.5289L13.9451 46.4448C13.5322 46.4448 13.0963 46.3989 12.6681 46.376L11.4063 46.223L10.0987 46.093L8.74514 45.986L8.06455 45.9401C7.85831 45.9328 7.65335 45.9046 7.45279 45.856C6.91815 45.75 6.41233 45.531 5.96926 45.2136C5.71338 45.0637 5.52254 44.8237 5.43396 44.5407C5.38271 44.3592 5.3595 44.171 5.36514 43.9825C5.37747 43.8757 5.37747 43.768 5.36514 43.6613C5.34964 43.5573 5.34964 43.4517 5.36514 43.3477C5.44318 42.7672 5.71222 42.2291 6.12985 41.8183C6.53992 41.381 7.02733 41.0232 7.56749 40.763L7.8122 40.633L8.22514 40.526C8.48514 40.4572 8.79102 40.3883 8.98984 40.3195L10.1063 39.8454L12.2551 38.9583L13.2951 38.576L13.7769 38.3772L13.9987 38.293L14.1363 38.2395C17.7304 36.8172 21.2787 34.9513 24.8422 33.3301L36.764 28.0307L44.0516 24.7425C47.7069 23.0601 51.4463 21.5154 55.0328 19.7413C56.4245 19.0607 57.7781 18.3266 59.1163 17.5772L63.1616 15.4513C63.7581 15.1377 64.324 14.8089 64.9281 14.503C65.5322 14.1972 65.9451 13.9983 66.3351 13.8225C66.673 13.6927 67.0208 13.5904 67.3751 13.5166C67.8179 13.4137 68.2783 13.4137 68.721 13.5166C68.8931 13.5483 69.0666 13.5713 69.241 13.5854C69.501 13.6236 69.4857 13.9677 69.1951 14.4495C68.77 15.0999 68.2551 15.6868 67.6657 16.193C65.3716 17.9136 63.0163 19.5042 60.554 21.0336C58.0304 22.433 55.4304 23.7407 52.8075 25.0254C50.8575 25.966 48.9534 26.9219 46.9193 27.8013L40.9316 30.3554L40.8857 30.256Z" fill="#F2F6FF"/>
</g>
</g>
</svg>
