<svg width="66" height="66" viewBox="0 0 66 66" fill="none" xmlns="http://www.w3.org/2000/svg">
<g id="103">
<g id="scribble final version-107">
<path id="Path" d="M50.5098 47.9601C48.8439 49.575 46.9248 50.9061 44.8286 51.9007C42.7815 52.8575 40.6231 53.5552 38.4033 53.9778C36.8228 54.3134 35.2166 54.5147 33.6021 54.5795C27.9231 54.7102 22.3318 53.1616 17.5292 50.1278C15.4012 48.7776 13.4992 47.1006 11.8933 45.1583C10.8512 43.9079 9.98081 42.5239 9.30508 41.043C8.71185 39.53 8.40892 37.9188 8.41213 36.2936C8.41213 35.2907 9.10449 35.3878 9.96508 36.0283C11.0577 36.8724 11.9987 37.8965 12.7474 39.0566C13.8459 41.4618 15.4713 43.5892 17.5033 45.2813C19.6277 47.071 22.0325 48.4985 24.621 49.5066C27.811 50.8007 31.5315 50.956 35.0257 50.6454C38.8914 50.3915 42.6104 49.0674 45.7668 46.8213C47.6816 45.4061 49.296 43.6246 50.5163 41.5801C52.4061 38.3931 53.5539 34.8214 53.8745 31.1301C54.0718 28.2811 53.8803 25.4186 53.3051 22.6213C53.1886 22.0066 53.0268 21.4113 52.9104 20.7966C52.6257 18.493 52.6968 17.7295 53.6545 16.966C53.8298 16.7929 54.0156 16.6308 54.211 16.4807C54.7545 16.0925 55.8998 16.8495 56.5598 18.6225C57.0872 19.9408 57.4628 21.315 57.6792 22.7183C57.9269 24.1494 58.076 25.5957 58.1257 27.0472C58.2285 30.0456 57.9171 33.0438 57.2004 35.9572C56.1436 40.5111 53.8534 44.6862 50.581 48.0248L50.5098 47.9601Z" fill="#F2F6FF"/>
<path id="Path_2" d="M20.9258 18.5057C21.1652 20.6022 22.4658 23.2487 24.4781 24.174C25.3452 24.5752 26.6328 24.3228 26.8528 23.2099C27.1507 21.2482 26.7499 19.2443 25.7205 17.5481C25.3076 16.7355 24.6954 16.0409 23.9411 15.5293C23.3895 15.2406 22.735 15.2252 22.1706 15.4878C21.6061 15.7504 21.1962 16.2609 21.0617 16.8687C20.4793 18.8681 23.5981 19.7222 24.1805 17.7228L24.2517 17.464L23.5075 18.4346L23.1258 18.5446L21.9999 18.0722C23.0934 18.9457 24.0252 20.9257 23.747 22.3493L26.1217 21.3787C25.0928 20.7435 24.3859 19.6973 24.1805 18.5057C24.1535 17.6237 23.4448 16.915 22.5628 16.8881C21.6724 16.8951 20.9522 17.6153 20.9452 18.5057H20.9258Z" fill="#F2F6FF"/>
<path id="Path_3" d="M30.7236 14.1771C30.9694 16.3188 32.3153 19.1788 34.373 20.1429C35.24 20.5441 36.5342 20.2853 36.7477 19.1723C37.0359 17.1288 36.6084 15.0484 35.5377 13.2841C35.1239 12.4574 34.5044 11.7511 33.7389 11.2329C33.1936 10.9439 32.5455 10.9227 31.9826 11.1757C31.4198 11.4287 31.0052 11.9274 30.8594 12.5271C30.2771 14.5329 33.4024 15.3871 33.9783 13.3876L34.0559 13.1288L33.3118 14.0994L32.9236 14.2094L31.7783 13.7371C32.9171 14.6494 33.9136 16.83 33.6289 18.3053L36.0036 17.3412C35.02 16.8818 34.0624 15.2318 33.9589 14.1706C33.7259 12.1259 30.4842 12.1 30.7236 14.1706V14.1771Z" fill="#F2F6FF"/>
</g>
</g>
</svg>
