<svg width="102" height="86" viewBox="0 0 102 86" fill="none" xmlns="http://www.w3.org/2000/svg">
<g id="150">
<g id="scribble final version-145">
<path id="Path" d="M31.0158 72.2157C31.0158 71.9257 32.9258 81.2157 36.2158 75.0457C37.2158 73.1857 33.9258 83.0457 33.9258 83.0457C33.9258 83.0457 30.6858 77.9257 31.0158 72.2157Z" fill="#F2F6FF"/>
<path id="Path_2" d="M74.8749 37.8656L69.8149 42.5456C69.2049 43.1156 68.6349 43.7256 68.0149 44.2856L61.4049 50.1756C60.4049 51.0356 59.4749 51.9556 58.5149 52.8356C57.9169 53.4268 57.2894 53.9876 56.6349 54.5156C56.2949 54.7656 55.9449 54.9956 55.6349 55.2256C55.3249 55.4556 54.8749 55.6456 54.5049 55.8556C54.1349 56.0656 54.0049 55.8556 54.2049 55.4356C54.5218 54.7349 54.9034 54.0653 55.3449 53.4356C56.4449 52.1856 57.7349 51.0956 58.9349 49.9056C60.1349 48.7156 61.3949 47.5856 62.6849 46.4656C64.2149 45.1156 65.6249 43.5156 67.0849 42.0256L71.9149 37.1056C72.9149 36.1056 73.9149 35.1056 74.8549 34.1056C76.3149 32.5456 77.8549 31.0056 79.1749 29.3756C80.1896 28.0988 81.1279 26.7631 81.9849 25.3756C82.1749 25.0756 82.3449 24.7656 82.5449 24.4756C82.8849 23.9556 83.1449 23.6356 83.4849 23.4756C83.8502 23.4823 84.2145 23.5157 84.5749 23.5756C84.7849 23.5756 85.0049 23.5756 85.1849 23.5756C85.3649 23.5756 85.6949 23.7756 85.8349 24.1956C85.9041 24.4528 85.9245 24.7208 85.8949 24.9856C85.8718 25.2427 85.7933 25.4917 85.6649 25.7156C84.1164 28.4184 82.1904 30.8866 79.9449 33.0456C78.3249 34.7056 76.6349 36.3056 74.9449 37.9256L74.8749 37.8656Z" fill="#F2F6FF"/>
<path id="Path_3" d="M58.0848 66.5857C59.3548 66.8557 60.5948 67.2057 61.8248 67.5857C62.2748 67.7157 62.7348 67.8157 63.1848 67.9757C64.7332 68.5592 66.2344 69.2613 67.6748 70.0757C68.3148 70.4457 68.9748 70.7657 69.6148 71.0757C70.0411 71.2943 70.4462 71.5521 70.8248 71.8457C71.1727 72.1953 71.469 72.5926 71.7048 73.0257C71.8548 73.2957 71.6148 73.4657 71.1848 73.5757C70.6806 73.716 70.1528 73.7501 69.6348 73.6757C69.4284 73.6307 69.2341 73.5421 69.0648 73.4157L68.5448 73.0757L67.4348 72.4257L65.1548 71.1257C64.171 70.6427 63.1339 70.2769 62.0648 70.0357C60.9048 69.6857 59.7248 69.3957 58.5348 69.1357C57.7948 68.9957 57.0548 68.8557 56.3048 68.7557L54.6048 68.5657C54.0348 68.5657 53.4648 68.4957 52.8948 68.4957C52.0164 68.5564 51.144 68.6834 50.2848 68.8757C50.0948 68.8757 49.9048 68.9757 49.7148 69.0057C49.0048 69.0057 48.7148 68.8457 48.5648 68.1457C48.5648 67.9957 48.4648 67.8557 48.4348 67.7257C48.3489 67.2069 48.6422 66.6999 49.1348 66.5157C49.9262 66.1881 50.769 66.002 51.6248 65.9657C52.4902 65.9007 53.3593 65.9007 54.2248 65.9657C55.5236 66.0606 56.8158 66.2309 58.0948 66.4757L58.0848 66.5857Z" fill="#F2F6FF"/>
<path id="Path_4" d="M65.1745 49.1555L52.0145 59.4755C50.4145 60.7355 48.8945 62.0655 47.2845 63.3155C45.8262 64.3349 44.4847 65.512 43.2845 66.8255C42.9734 67.1523 42.6392 67.4565 42.2845 67.7355C42.1745 67.8355 42.1545 67.8455 42.1245 67.8555C42.0899 67.8844 42.0596 67.918 42.0345 67.9555C41.9345 68.0855 41.8145 68.2255 41.7145 68.3755C41.2845 68.9755 40.9545 69.7155 40.5345 70.3755C39.7103 71.8838 38.9919 73.4476 38.3845 75.0555L38.1445 75.6655L37.8645 76.4455L37.1345 78.3555C36.6945 79.5855 36.2945 80.8155 35.8645 81.7455C35.5698 82.3879 35.1934 82.9896 34.7445 83.5355C34.5777 83.7733 34.3395 83.9519 34.0645 84.0455H33.9045C33.9045 84.1755 33.9045 84.0455 33.9045 84.1155H33.8245C33.7289 84.0849 33.6354 84.0482 33.5445 84.0055C33.363 83.9157 33.1948 83.8013 33.0445 83.6655C32.8845 83.5355 32.7545 83.4055 32.6145 83.2855C32.4833 83.1352 32.3598 82.9783 32.2445 82.8155C32.0097 82.4985 31.7991 82.1642 31.6145 81.8155C31.3891 81.4391 31.1886 81.0483 31.0145 80.6455C30.8679 80.1989 30.7079 79.7489 30.5345 79.2955C30.3345 78.6855 30.2145 77.9555 30.0145 77.2955L29.7545 76.1955C29.6545 75.8555 29.5845 75.3655 29.5345 75.1955L29.2445 73.6755C29.1212 73.177 29.0442 72.6682 29.0145 72.1555L28.7945 69.2355C28.7481 68.7771 28.7314 68.3161 28.7445 67.8555C28.7413 67.4635 28.7079 67.0724 28.6445 66.6855C28.6445 66.4755 28.6445 66.3755 28.6445 66.2455C28.6472 66.0989 28.7002 65.9577 28.7945 65.8455C29.1814 65.4649 29.7816 65.4066 30.2345 65.7055C31.1462 66.1966 31.9409 66.8789 32.5645 67.7055C33.2896 68.6453 33.786 69.7408 34.0145 70.9055C34.1045 71.4255 34.2245 71.9055 34.2645 72.4655V74.7755C34.2645 74.9555 34.2645 74.9055 34.2645 74.9055C34.2229 75.0047 34.2229 75.1164 34.2645 75.2155C34.3245 75.3455 34.3645 75.3455 34.4945 75.2155L34.6045 75.0655C34.6045 75.0655 34.6045 75.0655 34.6545 74.9455L34.7145 74.7555L34.9545 73.9955C35.2945 72.9955 35.6545 71.9955 36.0745 70.9955C36.3245 70.3855 36.5845 69.7755 36.8645 69.1655C37.0145 68.8555 37.1545 68.5455 37.3145 68.2355C37.4745 67.9255 37.6745 67.6355 37.8645 67.3355C38.2769 66.6999 38.7348 66.095 39.2345 65.5255C39.417 65.3467 39.6107 65.1797 39.8145 65.0255L40.1845 64.7355C40.432 64.5321 40.6926 64.345 40.9645 64.1755C41.5045 63.8255 42.0745 63.5055 42.5845 63.1755L44.0145 61.7655L46.8645 59.2155L59.4045 48.1355L63.2745 44.7155C64.5745 43.5955 65.8745 42.4755 67.1645 41.3355C71.0745 37.8955 74.9945 34.4355 78.7045 30.8355C80.1345 29.4255 81.4945 27.9755 82.8245 26.5055C84.1545 25.0355 85.4345 23.5055 86.7345 22.0555C87.2945 21.3855 87.8945 20.7855 88.5145 20.1755C89.3164 19.3408 90.2241 18.6146 91.2145 18.0155C91.5242 17.8379 91.8627 17.7161 92.2145 17.6555C92.5471 17.6226 92.882 17.6226 93.2145 17.6555C93.4845 17.6555 93.7745 17.6555 93.9645 17.6555C94.4945 17.7055 94.4545 19.4455 93.1145 21.5455C92.6345 22.3455 92.1145 23.0855 91.5945 23.8555L90.8045 25.0055C90.5345 25.3855 90.2245 25.7255 89.9345 26.0855C88.6545 27.5189 87.3745 28.9122 86.0945 30.2655C84.7945 31.6055 83.4545 32.9255 82.0945 34.2655L78.0145 38.1255C73.8545 41.9055 69.6179 45.6089 65.3045 49.2355L65.1745 49.1555Z" fill="#F2F6FF"/>
<path id="Path_5" d="M70.4247 35.9157C67.0913 37.9157 63.758 39.9157 60.4247 41.9157C59.2147 42.6557 58.0747 43.4957 56.8647 44.2257L44.0747 51.9557C42.1647 53.0857 40.3147 54.3257 38.4947 55.5557C36.1589 57.1491 33.724 58.592 31.2047 59.8757C30.4147 60.2657 30.3047 59.9357 30.6447 59.1357C31.1907 57.9043 31.9566 56.7826 32.9047 55.8257L34.4947 54.3557L35.2947 53.6057L36.1547 52.9457C37.3013 52.0657 38.4613 51.2057 39.6347 50.3657C40.8147 49.5257 41.9847 48.6757 43.2247 47.9157C44.4647 47.1557 45.7147 46.3557 47.0147 45.6857C50.0647 43.9857 52.9547 41.7957 55.9347 39.8557C59.2147 37.7257 62.5347 35.6457 65.8347 33.5557L71.9547 29.7057C75.0247 27.7057 78.1547 25.8457 81.1547 23.8057C83.4847 22.2257 85.6947 20.5457 87.9947 18.9557C88.5047 18.6057 88.9947 18.2357 89.5147 17.9557C91.5147 16.7457 92.5147 16.8357 93.3147 17.3957C93.514 17.5115 93.7045 17.6419 93.8847 17.7857C94.1447 18.0357 94.1247 18.3957 93.8847 18.8657C93.607 19.487 93.2055 20.045 92.7047 20.5057C91.8147 21.4157 90.8247 22.1557 89.8547 22.9957C88.8847 23.8357 87.8547 24.6057 86.8547 25.4057C84.8009 27.0114 82.6538 28.494 80.4247 29.8457C77.1447 31.9457 73.7847 33.9657 70.4247 36.0457V35.9157Z" fill="#F2F6FF"/>
<path id="Path_6" d="M63.5561 70.1656C62.3009 69.7228 61.0182 69.362 59.7161 69.0856C59.2361 68.9656 58.7161 69.0156 58.2561 68.9156C57.4061 68.7256 56.5461 68.6556 55.6661 68.5256C54.7868 68.418 53.902 68.3612 53.0161 68.3556C52.2334 68.3606 51.4543 68.4613 50.6961 68.6556C49.7512 68.989 48.758 69.1646 47.7561 69.1756C47.4261 69.1756 47.2561 68.3256 47.3261 67.4756C47.3961 66.6256 47.7361 65.7456 48.3261 65.5856C50.515 65.0381 52.7948 64.9598 55.0161 65.3556C56.3461 65.5856 57.7361 65.4756 59.0861 65.6656C60.5672 65.8813 62.0286 66.2157 63.4561 66.6656C64.3361 66.9556 65.2061 67.2356 66.0561 67.5656C67.3561 68.0356 68.5861 68.6756 69.8461 69.2256C70.8514 69.6029 71.8303 70.0473 72.7761 70.5556C72.9661 70.6956 73.1761 70.8156 73.3561 70.9756C74.0061 71.6056 74.0761 71.9756 73.7961 72.5756C73.7474 72.7057 73.6906 72.8326 73.6261 72.9556C73.2873 73.3595 72.7356 73.5143 72.2361 73.3456C71.7861 73.2456 71.2961 73.1956 70.8461 73.1156C70.4191 73.0266 70.0056 72.882 69.6161 72.6856L67.2161 71.6856C66.0043 71.1614 64.7621 70.7105 63.4961 70.3356L63.5561 70.1656Z" fill="#F2F6FF"/>
<path id="Path_7" d="M85.9444 39.6458C85.4244 40.8158 84.9444 42.0058 84.4344 43.1958C83.9244 44.3858 83.4344 45.5658 82.9544 46.7758C82.6044 47.6458 82.3744 48.5658 82.0344 49.4458C80.8344 52.5458 79.6944 55.6858 78.7744 58.8758C78.3944 60.3558 78.0144 61.7358 77.7144 63.1658C77.5344 64.0758 77.3744 64.9958 77.2344 65.9058C77.0273 66.7833 76.8671 67.6713 76.7544 68.5658C76.7544 69.0058 76.5144 69.1758 76.0144 68.7058C75.3738 67.9403 74.9676 67.0063 74.8444 66.0158C74.7972 64.0099 74.9108 62.0035 75.1844 60.0158C75.5593 58.0727 76.0911 56.1631 76.7744 54.3058C77.5844 52.0658 78.0444 49.6558 78.7744 47.3058C79.5844 44.7758 80.4344 42.3058 81.4544 39.7958C82.0644 38.2858 82.7144 36.7958 83.3544 35.2758C84.3544 32.9958 85.4344 30.7558 86.4644 28.5158C86.8844 27.6458 87.2344 26.7558 87.6144 25.8658C87.9602 24.9589 88.3748 24.0797 88.8544 23.2358C89.0744 22.8658 89.2444 22.4758 89.5044 22.1158C90.4444 20.7858 91.0644 20.5558 92.0144 20.9258C92.2373 20.996 92.4546 21.0829 92.6644 21.1858C93.3244 21.5758 93.4144 22.4458 93.0244 23.4358C92.4344 24.9258 92.0244 26.5258 91.2344 27.9958L89.1144 32.5958C88.1144 34.9158 87.0044 37.2658 86.0544 39.6658L85.9444 39.6458Z" fill="#F2F6FF"/>
<path id="Path_8" d="M53.4652 39.5656L37.8652 45.9656C35.9652 46.7456 34.1352 47.6556 32.2352 48.4356L22.2352 52.5555L21.0152 53.0756L20.3952 53.3556L19.9052 53.5756L18.8152 53.9956C18.0652 54.3056 17.2252 54.6556 16.3452 55.0656C16.1452 55.1556 15.9552 55.2456 15.7752 55.3456C15.6795 55.3914 15.5918 55.4521 15.5152 55.5256C15.5752 55.5256 15.6852 55.5256 15.7752 55.5256L16.9252 55.6056C17.7252 55.6556 18.5452 55.7056 19.2852 55.7856C19.5252 55.7856 19.7652 55.8356 19.9952 55.8756C20.0652 55.8756 20.0752 55.8756 20.2052 55.8756L20.6052 55.9656L21.3952 56.1455C22.4625 56.3986 23.5089 56.7329 24.5252 57.1455C25.5944 57.5718 26.603 58.1367 27.5252 58.8256C28.496 59.5853 29.2368 60.5997 29.6652 61.7556C29.9352 62.4756 29.8152 62.8556 29.5952 62.9256C29.3752 62.9956 28.9552 62.7956 28.3552 62.5856C27.5978 62.3529 26.807 62.2482 26.0152 62.2756C25.1234 62.1904 24.2423 62.0162 23.3852 61.7556C22.5266 61.4883 21.6514 61.2778 20.7652 61.1256C20.3052 61.0456 19.8452 60.9656 19.3752 60.9056L19.0152 60.8456L18.2352 60.7355C17.6952 60.7355 17.1252 60.6755 16.5652 60.6455L14.9152 60.4456L13.2052 60.2756L11.4352 60.1356L10.5452 60.0756C10.2755 60.066 10.0075 60.0291 9.7452 59.9656C9.04605 59.827 8.38461 59.5406 7.8052 59.1256C7.47059 58.9294 7.22103 58.6157 7.1052 58.2456C7.03818 58.0082 7.00783 57.7621 7.0152 57.5156C7.03132 57.376 7.03132 57.2351 7.0152 57.0956C6.99493 56.9596 6.99493 56.8215 7.0152 56.6856C7.11725 55.9264 7.46907 55.2227 8.0152 54.6856C8.55145 54.1136 9.18883 53.6457 9.8952 53.3055L10.2152 53.1356L10.7552 52.9956C11.0952 52.9056 11.4952 52.8156 11.7552 52.7256L13.2152 52.1056L16.0252 50.9456L17.3852 50.4456L18.0152 50.1856L18.3052 50.0756L18.4852 50.0056C23.1852 48.1455 27.8252 45.7056 32.4852 43.5856L48.0752 36.6556L57.6052 32.3556C62.3852 30.1556 67.2752 28.1356 71.9652 25.8156C73.7852 24.9256 75.5552 23.9656 77.3052 22.9856L82.5952 20.2056C83.3752 19.7956 84.1152 19.3656 84.9052 18.9656C85.6952 18.5656 86.2352 18.3056 86.7452 18.0756C87.187 17.9059 87.6418 17.7721 88.1052 17.6756C88.6842 17.5411 89.2862 17.5411 89.8652 17.6756C90.0902 17.7171 90.3172 17.7471 90.5452 17.7656C90.8852 17.8156 90.8652 18.2656 90.4852 18.8956C89.9293 19.746 89.256 20.5136 88.4852 21.1756C85.4852 23.4256 82.4052 25.5056 79.1852 27.5056C75.8852 29.3356 72.4852 31.0456 69.0552 32.7256C66.5052 33.9556 64.0152 35.2056 61.3552 36.3556L53.5252 39.6956L53.4652 39.5656Z" fill="#F2F6FF"/>
</g>
</g>
</svg>
