<svg width="56" height="56" viewBox="0 0 56 56" fill="none" xmlns="http://www.w3.org/2000/svg">
<g id="Avatar/Large/Women" clip-path="url(#clip0_1465_39372)">
<mask id="mask0_1465_39372" style="mask-type:luminance" maskUnits="userSpaceOnUse" x="0" y="0" width="56" height="56">
<path id="Background" fill-rule="evenodd" clip-rule="evenodd" d="M28 56C43.464 56 56 43.464 56 28C56 12.536 43.464 0 28 0C12.536 0 0 12.536 0 28C0 43.464 12.536 56 28 56Z" fill="white"/>
</mask>
<g mask="url(#mask0_1465_39372)">
<g id="Avatar">
<path id="Background_2" fill-rule="evenodd" clip-rule="evenodd" d="M28 56C43.464 56 56 43.464 56 28C56 12.536 43.464 0 28 0C12.536 0 0 12.536 0 28C0 43.464 12.536 56 28 56Z" fill="#0069FF"/>
<g id="Symbol/Avatar/Women">
<g id="layer1">
<g id="g600">
<path id="path602" d="M39.4925 15.7126C39.4925 15.7126 40.2037 20.7793 42.3371 24.1571C45.4136 29.0281 41.448 29.6681 42.248 33.0459C43.048 36.4238 49.1813 39.2681 41.8925 47.0014C37.1221 52.0627 31.4037 42.2014 31.4037 42.2014L29.8037 29.3126L39.4925 15.7126Z" fill="#FF6A59"/>
</g>
<path id="path606" d="M37.1389 23.956C36.3693 23.3795 35.6213 22.7838 34.8901 22.1729L29.8037 28.4766L31.4037 39.8568C31.4037 39.8568 32.8192 42.0112 34.8288 43.6267C35.3506 43.0483 36.5776 45.7302 37.2704 45.4902C39.5813 44.6902 43.7592 40.2459 40.737 36.8681C37.1272 32.8336 41.448 28.2459 37.1389 23.956Z" fill="#F2534F"/>
<g id="g608">
<path id="path610" d="M33.5916 40.249C31.3298 39.0151 31.9466 33.0514 31.9466 33.0514L28.5591 33.2695V33.0522L28.1967 33.161L27.834 33.0522V33.2695L24.4466 33.0514C24.4466 33.0514 25.0636 39.0151 22.8018 40.249C20.5399 41.4829 7.17428 42.0997 8.61348 55.8765H27.834H28.5591H47.7796C49.2191 42.0997 35.8535 41.4829 33.5916 40.249Z" fill="#FF9D7B"/>
</g>
<g id="g612">
<path id="path614" d="M23.9717 38.7109C26.6775 38.3077 29.3815 37.8915 32.0837 37.4627C31.7034 35.4064 31.9466 33.0517 31.9466 33.0517L28.5591 33.2701V33.0525L28.1965 33.1613L27.8341 33.0525V33.2701L24.4466 33.0517C24.4466 33.0517 24.8037 36.5168 23.9717 38.7109Z" fill="#DA7E65"/>
</g>
<g id="g616">
<path id="path618" d="M36.7542 50.4678C36.1531 47.452 36.2955 44.2475 37.0283 41.292C36.4561 41.1259 35.9219 40.9843 35.4465 40.856C35.2307 43.3456 34.9385 45.8736 34.0019 48.1163C33.6411 48.9803 33.2057 49.7576 32.7017 50.4678H36.7542Z" fill="#352836"/>
</g>
<g id="g620">
<path id="path622" d="M40.8705 42.5887C38.634 45.6487 33.8401 47.7647 28.2854 47.7647C22.731 47.7647 17.9372 45.6487 15.7004 42.5887C11.7204 44.4653 7.79796 48.0647 8.61396 55.8765H27.9214H28.6497H47.9569C48.7732 48.0647 44.8505 44.4653 40.8705 42.5887Z" fill="#438685"/>
</g>
<g id="g624">
<path id="path626" d="M27.2703 52.2456C35.1711 52.2456 42.0857 49.9605 45.8903 46.5437C44.5375 44.6936 42.7105 43.4563 40.8703 42.5888C38.6337 45.6488 33.8399 47.7648 28.2855 47.7648C22.7308 47.7648 17.9369 45.6488 15.7004 42.5888C13.5268 43.6136 11.3724 45.1544 9.99561 47.612C13.9671 50.4277 20.2255 52.2456 27.2703 52.2456Z" fill="#559C9A"/>
</g>
<g id="g628">
<path id="path630" d="M21.5737 24.322C20.9073 22.2545 19.3292 22.7332 19.1815 22.783C19.0265 22.8012 17.3953 23.0433 17.6772 25.1972C17.9607 27.3641 19.2177 28.5382 20.3967 28.1934C21.61 28.0012 22.2441 26.402 21.5737 24.322Z" fill="#DA7E65"/>
</g>
<g id="g632">
<path id="path634" d="M34.8806 24.322C35.547 22.2545 37.1252 22.7332 37.2729 22.783C37.4278 22.8012 39.059 23.0433 38.7772 25.1972C38.4937 27.3641 37.2366 28.5382 36.0577 28.1934C34.8444 28.0012 34.2102 26.402 34.8806 24.322Z" fill="#DA7E65"/>
</g>
<g id="g636">
<path id="path638" d="M19.9569 21.1898C20.7828 12.1255 27.6737 12.6332 28.3236 12.7015C28.9735 12.6332 35.8641 12.1255 36.69 21.1898C37.5209 30.3079 33.4596 36.2631 28.3236 35.9354C23.1873 36.2631 19.126 30.3079 19.9569 21.1898Z" fill="#FF9D7B"/>
</g>
<g id="g640">
<path id="path642" d="M23.3594 13.8905C23.3594 13.8905 24.2039 20.7793 31.0482 22.1126L29.3594 17.8905C29.3594 17.8905 29.9372 23.0017 36.7372 22.735C36.7372 22.735 39.226 23.8905 38.3372 26.5571C38.3372 26.5571 40.7815 24.5126 39.8482 21.0459C38.9148 17.5793 41.0927 17.3571 37.626 12.2459C34.5684 7.73793 24.5594 7.22379 23.3594 13.8905Z" fill="#FF6A59"/>
</g>
<g id="g644">
<path id="path646" d="M25.2703 12.4235C25.2703 12.4235 21.9815 9.75686 19.4925 12.779C17.0037 15.8014 17.6258 20.5123 15.3149 23.4457C13.0037 26.379 13.3591 28.9569 16.2037 31.7123C19.0482 34.4681 8.20368 37.0457 11.6703 43.8902C15.137 50.7347 23.7591 47.0902 24.3815 41.6681C25.0037 36.2457 24.6482 35.0902 24.6482 35.0902C24.6482 35.0902 21.0037 32.2457 20.3815 27.7123C19.7591 23.179 20.8258 20.9569 22.7815 19.3569C24.737 17.7569 26.5149 16.3347 25.2703 12.4235Z" fill="#FF6A59"/>
</g>
<g id="g648">
<path id="path650" d="M13.2702 40.6902C12.5454 39.2907 12.4398 38.2011 12.699 37.3115C11.2358 38.9905 10.2473 41.0809 11.6702 43.8902C15.1369 50.7347 23.759 47.0902 24.3814 41.6681C24.395 41.5478 24.4078 41.4321 24.4206 41.3161C21.6924 43.4713 15.946 45.8566 13.2702 40.6902Z" fill="#F2534F"/>
</g>
<g id="g652">
<path id="path654" d="M29.5115 25.7216C29.6251 25.931 29.7128 26.1456 29.792 26.3624C29.8704 26.579 29.9368 26.7984 29.996 27.0192C30.0275 27.1291 30.0496 27.2411 30.0765 27.352C30.1045 27.4627 30.1256 27.575 30.1459 27.6872C30.1904 27.911 30.2219 28.1376 30.2475 28.3656L30.2592 28.472L30.2013 28.5248C30.0165 28.6942 29.8267 28.8587 29.6336 29.02C29.4373 29.1784 29.2424 29.3382 29.0317 29.4824C29.1683 29.2667 29.3208 29.0662 29.472 28.8643C29.6264 28.6656 29.784 28.4699 29.9464 28.279L29.9005 28.4384C29.8323 28.2195 29.7699 27.9992 29.7208 27.7766C29.6941 27.6654 29.6685 27.5542 29.6493 27.4416C29.6296 27.3291 29.6048 27.2179 29.5893 27.1046C29.5549 26.8784 29.5275 26.651 29.512 26.4211C29.4976 26.191 29.4915 25.959 29.5115 25.7216Z" fill="#B36651"/>
</g>
<g id="g656">
<path id="path658" d="M31.8363 31.1106C30.1957 32.7053 27.4168 32.617 25.312 31.1957L31.8363 31.1106Z" fill="white"/>
</g>
<g id="g660">
<path id="path662" d="M34.8219 22.6479C34.8219 22.6479 34.7501 22.6082 34.6245 22.5386C34.5635 22.5053 34.4893 22.4647 34.4045 22.4181C34.3213 22.3741 34.2272 22.3245 34.1248 22.2703C34.0189 22.225 33.9131 22.1639 33.7947 22.1175C33.7373 22.0919 33.6784 22.0658 33.6181 22.0389C33.5573 22.0167 33.4952 21.9941 33.4323 21.9711C33.3093 21.9167 33.1757 21.897 33.0483 21.8517C32.916 21.8381 32.7864 21.7879 32.6544 21.793L32.4579 21.777C32.3931 21.7847 32.3285 21.7869 32.2637 21.7906C32.1325 21.785 32.0107 21.8338 31.884 21.8495C31.7576 21.8695 31.6445 21.9306 31.5259 21.9618L31.4381 21.989L31.3584 22.0293C31.304 22.0546 31.2517 22.0791 31.2013 22.1026C31.1013 22.1525 30.9987 22.1882 30.9213 22.2421C30.8419 22.2919 30.7661 22.3311 30.7043 22.3653C30.5797 22.4325 30.5 22.4679 30.5 22.4679C30.5 22.4679 30.5315 22.3919 30.6019 22.265C30.6373 22.2021 30.68 22.1234 30.7363 22.0378C30.7859 21.9461 30.8645 21.8623 30.9539 21.7714C31.0461 21.6847 31.1291 21.5647 31.26 21.489C31.3872 21.4111 31.5136 21.3055 31.6717 21.2469C31.7501 21.2151 31.8317 21.1869 31.9144 21.1575C31.996 21.1229 32.0837 21.1079 32.1736 21.0975C32.2629 21.0853 32.3533 21.0714 32.4445 21.0629C32.5352 21.0642 32.6267 21.0706 32.7179 21.0757C32.9029 21.0794 33.0739 21.1408 33.2453 21.1826C33.3275 21.2122 33.4064 21.2479 33.4843 21.2818C33.5637 21.3138 33.6381 21.3506 33.7059 21.3962C33.7752 21.4389 33.844 21.4789 33.9085 21.5223C33.9688 21.5701 34.028 21.6167 34.0856 21.6623C34.2021 21.7503 34.2904 21.8581 34.3787 21.9463C34.5448 22.1354 34.6589 22.3095 34.7264 22.4391C34.7968 22.5671 34.8219 22.6479 34.8219 22.6479Z" fill="#352836"/>
</g>
<g id="g664">
<path id="path666" d="M26.2379 22.6479C26.2379 22.6479 26.1661 22.6082 26.0405 22.5386C25.9795 22.5053 25.9053 22.4647 25.8205 22.4181C25.7373 22.3741 25.6432 22.3245 25.5408 22.2703C25.4349 22.225 25.3291 22.1639 25.2107 22.1175C25.1533 22.0919 25.0944 22.0658 25.0341 22.0389C24.9733 22.0167 24.9112 21.9941 24.8483 21.9711C24.7253 21.9167 24.5917 21.897 24.4643 21.8517C24.332 21.8381 24.2024 21.7879 24.0704 21.793L23.8739 21.777C23.8091 21.7847 23.7445 21.7869 23.6797 21.7906C23.5485 21.785 23.4267 21.8338 23.3 21.8495C23.1736 21.8695 23.0605 21.9306 22.9419 21.9618L22.8541 21.989L22.7744 22.0293C22.72 22.0546 22.6677 22.0791 22.6173 22.1026C22.5173 22.1525 22.4147 22.1882 22.3373 22.2421C22.2579 22.2919 22.1824 22.3311 22.1203 22.3653C21.9957 22.4325 21.916 22.4679 21.916 22.4679C21.916 22.4679 21.9475 22.3919 22.0179 22.265C22.0533 22.2021 22.096 22.1234 22.152 22.0378C22.2019 21.9461 22.2805 21.8623 22.3699 21.7714C22.4621 21.6847 22.5451 21.5647 22.676 21.489C22.8032 21.4111 22.9296 21.3055 23.0877 21.2469C23.1661 21.2151 23.2477 21.1869 23.3304 21.1575C23.412 21.1229 23.4997 21.1079 23.5896 21.0975C23.6789 21.0853 23.7693 21.0714 23.8605 21.0629C23.9512 21.0642 24.0427 21.0706 24.1339 21.0757C24.3189 21.0794 24.4899 21.1408 24.6613 21.1826C24.7435 21.2122 24.8224 21.2479 24.9003 21.2818C24.9797 21.3138 25.0541 21.3506 25.1219 21.3962C25.1912 21.4389 25.26 21.4789 25.3245 21.5223C25.3848 21.5701 25.444 21.6167 25.5016 21.6623C25.6181 21.7503 25.7064 21.8581 25.7947 21.9463C25.9605 22.1354 26.0749 22.3095 26.1424 22.4391C26.2128 22.5671 26.2379 22.6479 26.2379 22.6479Z" fill="#352836"/>
</g>
<g id="g668">
<path id="path670" d="M25.9655 25.9326C25.9655 25.9326 25.9468 25.859 25.905 25.7358C25.8631 25.6126 25.798 25.4393 25.6964 25.2494C25.5935 25.0612 25.4498 24.8564 25.2492 24.707C25.1506 24.6316 25.0372 24.5716 24.9143 24.5342C24.8538 24.5129 24.7919 24.4929 24.725 24.4886C24.6596 24.4798 24.5948 24.466 24.5263 24.4729C24.4628 24.4753 24.382 24.4673 24.3327 24.4764C24.2634 24.4897 24.1764 24.4932 24.1228 24.5142C24.0146 24.5494 23.8911 24.5908 23.798 24.6684C23.6983 24.7366 23.6215 24.8302 23.5522 24.923C23.4898 25.0214 23.4362 25.1217 23.3972 25.2212C23.3199 25.4198 23.2807 25.6012 23.2578 25.7289C23.2351 25.8569 23.2284 25.9326 23.2284 25.9326C23.2284 25.9326 23.2082 25.8593 23.1946 25.7265C23.182 25.5942 23.1743 25.4006 23.2218 25.1692C23.2447 25.0534 23.2842 24.9292 23.3466 24.8033C23.4143 24.6817 23.4962 24.5494 23.6218 24.4502C23.7396 24.343 23.8863 24.2644 24.0572 24.2137C24.1418 24.1846 24.2058 24.1838 24.2818 24.1673C24.3788 24.1502 24.4487 24.1588 24.5338 24.1545C24.6148 24.1497 24.697 24.1668 24.7786 24.1804C24.8607 24.1892 24.9394 24.2153 25.017 24.2444C25.0967 24.2665 25.1679 24.3081 25.237 24.3505C25.3092 24.3876 25.3676 24.442 25.4276 24.4913C25.6612 24.6988 25.7911 24.9574 25.8636 25.1774C25.938 25.3996 25.9591 25.5913 25.9668 25.7241C25.9735 25.8572 25.9655 25.9326 25.9655 25.9326Z" fill="#352836"/>
</g>
<g id="g672">
<path id="path674" d="M33.6794 25.8081C33.6794 25.8081 33.6607 25.7345 33.6188 25.6113C33.577 25.4881 33.5119 25.3148 33.4103 25.1249C33.3074 24.9366 33.1636 24.7318 32.9631 24.5825C32.8644 24.507 32.7511 24.447 32.6282 24.4097C32.5676 24.3884 32.5058 24.3684 32.4388 24.3641C32.3735 24.3553 32.3087 24.3414 32.2402 24.3484C32.1767 24.3508 32.0959 24.3428 32.0466 24.3518C31.9772 24.3652 31.8903 24.3686 31.8367 24.3897C31.7284 24.4249 31.605 24.4662 31.5119 24.5436C31.4122 24.6121 31.3354 24.7057 31.266 24.7985C31.2036 24.8969 31.1503 24.9972 31.1111 25.0966C31.0338 25.2953 30.9946 25.4766 30.9716 25.6044C30.949 25.7324 30.9423 25.8081 30.9423 25.8081C30.9423 25.8081 30.922 25.735 30.9084 25.602C30.8959 25.4697 30.8882 25.2761 30.9356 25.0446C30.9586 24.9289 30.998 24.8046 31.0604 24.6788C31.1282 24.5572 31.21 24.4249 31.3356 24.3257C31.4535 24.2185 31.6004 24.1398 31.7711 24.0889C31.8556 24.0601 31.9196 24.0593 31.9956 24.0428C32.0927 24.0257 32.1626 24.0342 32.2476 24.03C32.3287 24.0252 32.4108 24.0422 32.4924 24.0558C32.5746 24.0646 32.6532 24.0908 32.7308 24.1198C32.8106 24.142 32.8818 24.1836 32.9508 24.226C33.0231 24.263 33.0815 24.3174 33.1415 24.367C33.3751 24.5742 33.505 24.8329 33.5775 25.0529C33.6519 25.275 33.673 25.4668 33.6807 25.5996C33.6874 25.7326 33.6794 25.8081 33.6794 25.8081Z" fill="#352836"/>
</g>
</g>
</g>
</g>
</g>
</g>
<defs>
<clipPath id="clip0_1465_39372">
<rect width="56" height="56" fill="white"/>
</clipPath>
</defs>
</svg>
