<svg width="25" height="25" viewBox="0 0 25 25" fill="none" xmlns="http://www.w3.org/2000/svg">
<g id="Huge-icon/arrows/bulk/zoom out">
<g id="zoom out">
<path id="Vector 205 (Stroke)" opacity="0.4" d="M13.7003 7.25C13.286 7.25 12.9503 6.91421 12.9503 6.5C12.9503 6.08579 13.286 5.75 13.7003 5.75H18.2003C18.6145 5.75 18.9503 6.08579 18.9503 6.5V11C18.9503 11.4142 18.6145 11.75 18.2003 11.75C17.786 11.75 17.4503 11.4142 17.4503 11V8.31066L12.7306 13.0303L11.6699 11.9697L16.3896 7.25H13.7003Z" fill="#252525"/>
<path id="Vector 205 (Stroke)_2" d="M10.8276 17.623C11.2418 17.623 11.5776 17.9588 11.5776 18.373C11.5776 18.7873 11.2418 19.123 10.8276 19.123L6.32758 19.123C5.91337 19.123 5.57758 18.7873 5.57758 18.373L5.57758 13.873C5.57758 13.4588 5.91337 13.123 6.32758 13.123C6.74179 13.123 7.07758 13.4588 7.07758 13.873L7.07758 16.5624L11.7973 11.8427L12.8579 12.9034L8.13824 17.623L10.8276 17.623Z" fill="#252525"/>
</g>
</g>
</svg>
